SplineFontDB: 3.0
FontName: Crimson-Roman
FullName: Crimson
FamilyName: Crimson
Weight: Roman
Copyright: Copyright (c) 2010, Sebastian Kosch (sebastian@aldusleaf.org),\nwith Reserved Font Name "Crimson".\nThis Font Software is licensed under the SIL Open Font License, Version 1.1.\nThis license is available with a FAQ at: http://scripts.sil.org/OFL
Version: 0.2
ItalicAngle: 0
UnderlinePosition: -112
UnderlineWidth: 47
Ascent: 717
Descent: 307
sfntRevision: 0x00004cc7
LayerCount: 2
Layer: 0 0 "Back"  1
Layer: 1 0 "Fore"  0
NeedsXUIDChange: 1
XUID: [1021 559 149143806 1270264]
FSType: 0
OS2Version: 3
OS2_WeightWidthSlopeOnly: 0
OS2_UseTypoMetrics: 1
CreationTime: 1270926789
ModificationTime: 1313553892
PfmFamily: 17
TTFWeight: 400
TTFWidth: 5
LineGap: 92
VLineGap: 0
Panose: 2 0 5 3 0 0 0 0 0 0
OS2TypoAscent: 1026
OS2TypoAOffset: 0
OS2TypoDescent: -271
OS2TypoDOffset: 0
OS2TypoLinegap: 0
OS2WinAscent: 1026
OS2WinAOffset: 0
OS2WinDescent: 271
OS2WinDOffset: 0
HheadAscent: 1026
HheadAOffset: 0
HheadDescent: -271
HheadDOffset: 0
OS2SubXSize: 666
OS2SubYSize: 716
OS2SubXOff: 0
OS2SubYOff: 143
OS2SupXSize: 666
OS2SupYSize: 716
OS2SupXOff: 0
OS2SupYOff: 490
OS2StrikeYSize: 50
OS2StrikeYPos: 264
OS2FamilyClass: 258
OS2Vendor: 'PfEd'
OS2CodePages: 20000001.00000000
OS2UnicodeRanges: 80000043.40000062.00000000.00000000
Lookup: 1 0 0 "'c2sc' Capitals to Small Capitals in Latin lookup 0"  {"'c2sc' Capitals to Small Capitals in Latin lookup 0 subtable"  } ['c2sc' ('DFLT' <'dflt' > 'latn' <'dflt' > ) ]
Lookup: 1 0 0 "'pnum' Proportional Numbers lookup 12"  {"'pnum' Proportional Numbers lookup 12-1" ("prop" ) } ['pnum' ('DFLT' <'dflt' > 'grek' <'dflt' > 'latn' <'AZE ' 'CRT ' 'DEU ' 'FRA ' 'ITA ' 'MOL ' 'ROM ' 'TRK ' 'dflt' > ) ]
Lookup: 1 0 0 "'zero' Slashed Zero lookup 11"  {"'zero' Slashed Zero lookup 11-1"  } ['zero' ('DFLT' <'dflt' > 'grek' <'dflt' > 'latn' <'AZE ' 'CRT ' 'DEU ' 'FRA ' 'ITA ' 'MOL ' 'ROM ' 'TRK ' 'dflt' > ) ]

StartChar: exclam
Encoding: 33 33 1
Width: 236
Flags: W
HStem: -11 110<75.2305 161.537> 622 20G<107 138.5>
VStem: 63 110<1.23046 87.5371> 73 94<327.09 632.2>
LayerCount: 2
Fore
SplineSet
63 45 m 4xe0
 63 75 89 99 119 99 c 4
 149 99 173 75 173 45 c 4
 173 15 149 -11 119 -11 c 4
 89 -11 63 15 63 45 c 4xe0
123 642 m 4
 154 642 167 610 167 584 c 4
 167 556 153 422 132 172 c 5
 128 164 125 160 116 159 c 5
 111 161 106 164 103 170 c 5
 89 331 73 533 73 584 c 4xd0
 73 612 91 642 123 642 c 4
EndSplineSet
Validated: 1
Substitution2: "'sinf' Scientific Inferiors lookup 5-1" exclam.sinf
Substitution2: "'sups' Superscript lookup 6-1" exclam.ssup
Substitution2: "'smcp' Lowercase to Small Capitals lookup 2-1" exclam.sc
Substitution2: "'subs' Subscript lookup 1-1" exclam.subs
Substitution2: "'ordn' Ordinals lookup 0-1" exclam.ordn
EndChar

StartChar: quotedbl
Encoding: 34 34 2
Width: 278
Flags: W
HStem: 473 226<73.0952 101.855 193.095 221.855>
VStem: 38 78<523.482 685.326> 158 78<523.482 685.326>
LayerCount: 2
Back
SplineSet
97 698 m 2
 111 698 l 2
 127 698 141 692 141 633 c 0
 141 577 116 516 110 449 c 0
 109 439 101 434 94 434 c 0
 86 434 77 439 76 447 c 0
 67 537 42 594 42 635 c 0
 42 653 71 698 97 698 c 2
260 698 m 2
 275 698 l 2
 291 698 304 692 304 633 c 0
 304 577 277 516 271 449 c 0
 270 439 262 434 255 434 c 0
 248 434 241 439 240 447 c 0
 231 537 206 594 206 635 c 0
 206 653 234 698 260 698 c 2
EndSplineSet
Fore
SplineSet
210 699 m 0
 222 699 228 696 236 686 c 1
 236 657 228 544 222 492 c 1
 219 486 210 477 202 473 c 1
 199 473 195 475 193 479 c 1
 172 551 158 601 158 629 c 0
 158 657 178 699 210 699 c 0
90 699 m 4
 102 699 108 696 116 686 c 5
 116 657 108 544 102 492 c 5
 99 486 90 477 82 473 c 5
 79 473 75 475 73 479 c 5
 52 551 38 601 38 629 c 4
 38 657 58 699 90 699 c 4
EndSplineSet
Validated: 1
Substitution2: "'smcp' Lowercase to Small Capitals lookup 2-1" quotedbl.sc
EndChar

StartChar: numbersign
Encoding: 35 35 3
Width: 478
Flags: W
HStem: 178 49<58.7157 391.673> 369 49<85.8227 419.581>
LayerCount: 2
Fore
SplineSet
413 369 m 1
 254 369 254 369 84 369 c 1
 72 369 80 414 93 418 c 9
 419 418 l 17
 433 418 426 375 413 369 c 1
385 178 m 1
 226 178 226 178 56 178 c 1
 44 178 53 223 66 227 c 9
 392 227 l 17
 406 227 398 184 385 178 c 1
373 528 m 1
 301 77 l 2
 300 73 292 64 277 64 c 0
 267 64 266 68 266 68 c 1
 338 518 l 1
 341 527 341 531 360 531 c 0
 369 531 370 530 373 528 c 1
212 528 m 1
 139 77 l 2
 138 73 131 64 116 64 c 0
 106 64 105 68 105 68 c 1
 177 518 l 1
 180 527 180 531 199 531 c 0
 208 531 209 530 212 528 c 1
EndSplineSet
Validated: 37
Substitution2: "'smcp' Lowercase to Small Capitals lookup 2-1" numbersign.sc
EndChar

StartChar: dollar
Encoding: 36 36 4
Width: 496
Flags: W
HStem: -10 36<219.444 312.473> 604 35<186.151 279.766>
VStem: 49 39<114.135 176.696> 68 77<435.029 550.873> 171 35<-48.3816 -8.51413> 291 35<639.634 680.877> 363 84<85.5952 206.996> 378 35<468.369 527.286>
LayerCount: 2
Fore
SplineSet
256 639 m 0xde
 316 639 338 626 401 612 c 1
 413 561 413 501 413 475 c 0
 413 468 406 468 403 468 c 0
 399 468 380 468 378 478 c 0
 372 526 326 604 250 604 c 0
 166 604 145 546 145 500 c 0xdd
 145 423 217 391 280 351 c 0
 343 311 447 261 447 166 c 0
 447 60 349 -10 246 -10 c 0
 181 -10 120 8 73 18 c 1
 61 75 49 159 49 171 c 0
 49 176 57 177 64 177 c 0
 75 177 85 172 88 168 c 1xee
 95 139 121 26 248 26 c 0
 308 26 363 65 363 140 c 0
 363 220 301 240 235 278 c 0
 161 321 68 373 68 470 c 0
 68 572 160 639 256 639 c 0xde
291 683 m 17
 299 683 326 683 326 676 c 9
 206 -52 l 17
 197 -52 171 -50 171 -43 c 9
 291 683 l 17
EndSplineSet
Validated: 5
Substitution2: "'smcp' Lowercase to Small Capitals lookup 2-1" dollar.sc
EndChar

StartChar: percent
Encoding: 37 37 5
Width: 663
Flags: W
HStem: -7 25<449.434 519.549> 289 24<436.266 505.513> 325 25<161.003 229.1> 621 24<147.377 216.599>
VStem: 38 64<408.045 571.079> 269 66<399.6 570.458> 326 64<76.045 237.871> 557 66<66.3943 238.458>
LayerCount: 2
Fore
SplineSet
184 621 m 0xfd
 125 621 102 555 102 496 c 0
 102 427 144 350 194 350 c 0
 252 350 269 418 269 476 c 0
 269 543 237 621 184 621 c 0xfd
188 645 m 0
 275 645 335 571 335 484 c 0
 335 404 279 325 188 325 c 0
 105 325 38 396 38 484 c 0
 38 573 99 645 188 645 c 0
473 289 m 0
 414 289 390 223 390 164 c 0xfb
 390 95 433 18 483 18 c 0
 541 18 557 86 557 144 c 0
 557 211 526 289 473 289 c 0
477 313 m 0
 564 313 623 239 623 152 c 0
 623 72 568 -7 476 -7 c 0
 393 -7 326 64 326 152 c 0
 326 241 388 313 477 313 c 0
596 624 m 1
 113 0 l 2
 109 -5 92 -12 80 -12 c 0
 66 -12 63 -3 62 -1 c 1
 544 624 l 2
 549 630 558 636 564 636 c 0
 593 636 587 633 596 624 c 1
EndSplineSet
Validated: 1
Substitution2: "'sinf' Scientific Inferiors lookup 5-1" percent.sinf
Substitution2: "'sups' Superscript lookup 6-1" percent.ssup
Substitution2: "'smcp' Lowercase to Small Capitals lookup 2-1" percent.sc
Substitution2: "'subs' Subscript lookup 1-1" percent.subs
Substitution2: "'ordn' Ordinals lookup 0-1" percent.ordn
EndChar

StartChar: ampersand
Encoding: 38 38 6
Width: 677
Flags: W
HStem: -3 43<196.243 339.066 511.5 604.13> 289 23<460.686 503.887 594.031 655.749> 620 36<259.399 352.509>
VStem: 50 86<94.0843 236.46> 158 73<445.099 592.5> 382 68<465.283 594.712>
LayerCount: 2
Fore
SplineSet
403 95 m 5
 338 161 239 314 239 314 c 5
 185 277 136 244 136 172 c 4
 136 78 205 40 278 40 c 4
 318 40 371 61 403 95 c 5
310 620 m 4
 267 620 231 589 231 543 c 4
 231 494 251 443 283 385 c 5
 345 421 382 453 382 530 c 4
 382 575 355 620 310 620 c 4
305 656 m 4
 393 656 450 616 450 544 c 4
 450 454 377 400 301 353 c 5
 343 282 399 210 449 154 c 5
 486 210 506 261 506 271 c 4
 506 291 467 285 461 289 c 5
 458 295 458 308 462 312 c 5
 541 312 l 6
 576 312 605 315 651 317 c 5
 654 315 656 309 656 304 c 7
 656 297 653 289 650 289 c 4
 633 289 592 279 581 272 c 4
 576 269 538 194 477 123 c 5
 522 76 551 45 575 45 c 4
 596 45 622 78 627 91 c 5
 638 91 650 80 650 73 c 5
 646 64 618 0 541 0 c 4
 482 0 426 72 426 72 c 5
 378 30 310 -3 244 -3 c 4
 127 -3 50 57 50 158 c 4
 50 254 132 307 216 350 c 5
 188 398 158 450 158 519 c 4
 158 595 221 656 305 656 c 4
EndSplineSet
Validated: 1
Substitution2: "'smcp' Lowercase to Small Capitals lookup 2-1" ampersand.sc
EndChar

StartChar: quotesingle
Encoding: 39 39 7
Width: 159
Flags: W
HStem: 473 226<73.0952 101.855>
VStem: 38 78<523.482 685.326>
LayerCount: 2
Fore
SplineSet
90 699 m 0
 102 699 108 696 116 686 c 1
 116 657 108 544 102 492 c 1
 99 486 90 477 82 473 c 1
 79 473 75 475 73 479 c 1
 52 551 38 601 38 629 c 0
 38 657 58 699 90 699 c 0
EndSplineSet
Validated: 1
Substitution2: "'smcp' Lowercase to Small Capitals lookup 2-1" quotesingle.sc
EndChar

StartChar: parenleft
Encoding: 40 40 8
Width: 256
Flags: W
VStem: 35 73<122.806 447.394>
LayerCount: 2
Fore
SplineSet
108 285 m 0
 108 128 160 -47 254 -130 c 1
 255 -130 242 -146 235 -150 c 1
 118 -58 35 91 35 285 c 0
 35 480 118 627 235 719 c 1
 242 715 255 699 254 699 c 1
 160 616 108 443 108 285 c 0
EndSplineSet
Validated: 1
Substitution2: "'sinf' Scientific Inferiors lookup 5-1" parenleft.sinf
Substitution2: "'sups' Superscript lookup 6-1" parenleft.ssup
Substitution2: "'smcp' Lowercase to Small Capitals lookup 2-1" parenleft.sc
Substitution2: "'subs' Subscript lookup 1-1" parenleft.subs
Substitution2: "'ordn' Ordinals lookup 0-1" parenleft.ordn
EndChar

StartChar: parenright
Encoding: 41 41 9
Width: 257
Flags: W
VStem: 149 73<122.806 447.394>
LayerCount: 2
Fore
SplineSet
149 285 m 4
 149 443 97 616 3 699 c 5
 2 699 15 715 22 719 c 5
 139 627 222 480 222 285 c 4
 222 91 139 -58 22 -150 c 5
 15 -146 2 -130 3 -130 c 5
 97 -47 149 128 149 285 c 4
EndSplineSet
Validated: 1
Substitution2: "'sinf' Scientific Inferiors lookup 5-1" parenright.sinf
Substitution2: "'sups' Superscript lookup 6-1" parenright.ssup
Substitution2: "'smcp' Lowercase to Small Capitals lookup 2-1" parenright.sc
Substitution2: "'subs' Subscript lookup 1-1" parenright.subs
Substitution2: "'ordn' Ordinals lookup 0-1" parenright.ordn
EndChar

StartChar: asterisk
Encoding: 42 42 10
Width: 443
Flags: W
HStem: 390 61<311.125 394.976> 434 65<39.5068 149.988>
VStem: 131 57<572.979 660.875> 210 25<420.999 450.228>
LayerCount: 2
Fore
SplineSet
303 613 m 4x70
 320 632 344 640 359 625 c 4
 375 609 372 586 353 569 c 4
 318 537 284 532 256 505 c 5
 256 505 250 496 251 491 c 4
 252 486 256 483 261 481 c 4
 296 465 324 471 368 451 c 4
 391 441 406 421 397 402 c 4
 387 382 364 378 342 390 c 4xb0
 300 413 285 444 251 462 c 5
 251 462 242 467 237 465 c 4
 231 462 232 457 231 452 c 4
 227 414 240 389 235 341 c 4
 232 316 218 296 197 299 c 4
 175 302 164 322 169 347 c 4
 178 394 203 419 210 457 c 5
 210 457 211 466 207 470 c 4
 204 474 199 474 194 473 c 4
 157 465 137 444 89 434 c 4
 65 429 40 436 37 457 c 4
 33 479 50 496 75 499 c 4
 123 505 152 489 191 494 c 5
 191 494 200 497 202 502 c 4
 204 507 203 511 200 516 c 4
 181 549 155 562 131 604 c 4
 119 626 119 650 137 660 c 4
 157 670 177 660 188 637 c 4
 208 593 202 560 219 525 c 5
 219 525 224 515 229 514 c 4
 234 513 238 516 242 520 c 4
 268 548 271 577 303 613 c 4x70
EndSplineSet
Validated: 33
Substitution2: "'smcp' Lowercase to Small Capitals lookup 2-1" asterisk.sc
EndChar

StartChar: plus
Encoding: 43 43 11
Width: 541
Flags: W
HStem: 218 56<40.0959 243 299 500.904>
VStem: 243 56<11.3652 218 274 476.904>
LayerCount: 2
Fore
SplineSet
38 218 m 1
 38 218 32 218 32 228 c 0
 32 232 33 245 40 269 c 0
 42 275 47 274 47 274 c 9
 243 274 l 25
 243 470 l 1
 243 470 242 475 248 477 c 0
 272 484 285 485 289 485 c 0
 299 485 299 479 299 479 c 1
 299 274 l 25
 503 274 l 17
 507 274 511 276 511 269 c 0
 511 260 507 246 501 224 c 0
 499 218 494 218 494 218 c 0
 419 218 375 218 299 218 c 25
 299 23 l 17
 299 23 299 13 254 7 c 0
 251 7 250 6 248 6 c 0
 241 6 243 10 243 14 c 2
 243 218 l 25
 38 218 l 1
EndSplineSet
Validated: 1
Substitution2: "'sinf' Scientific Inferiors lookup 5-1" plus.sinf
Substitution2: "'sups' Superscript lookup 6-1" plus.ssup
Substitution2: "'smcp' Lowercase to Small Capitals lookup 2-1" plus.sc
Substitution2: "'subs' Subscript lookup 1-1" plus.subs
Substitution2: "'ordn' Ordinals lookup 0-1" plus.ordn
EndChar

StartChar: comma
Encoding: 44 44 12
Width: 195
Flags: W
HStem: -139 262
VStem: 77 70<-26.8236 65>
LayerCount: 2
Fore
SplineSet
103 123 m 0
 111 123 122 120 129 116 c 1
 136 104 147 84 147 46 c 0
 147 -11 80 -111 29 -139 c 1
 22 -139 14 -124 14 -118 c 1
 34 -103 77 -71 77 -7 c 0
 77 26 44 35 44 74 c 0
 44 95 67 123 103 123 c 0
EndSplineSet
Validated: 1
Substitution2: "'smcp' Lowercase to Small Capitals lookup 2-1" comma.sc
Substitution2: "'c2sc' Capitals to Small Capitals in Latin lookup 0 subtable" comma.sc
Substitution2: "'sinf' Scientific Inferiors lookup 5-1" comma.sinf
Substitution2: "'sups' Superscript lookup 6-1" comma.ssup
Substitution2: "'subs' Subscript lookup 1-1" comma.subs
Substitution2: "'ordn' Ordinals lookup 0-1" comma.ordn
EndChar

StartChar: hyphen
Encoding: 45 45 13
Width: 375
Flags: W
HStem: 210 63<80.002 314.131>
VStem: 58 261
LayerCount: 2
Fore
SplineSet
71 261 m 5
 71 261 279 272 312 273 c 4
 316 273 319 272 319 264 c 4
 319 247 314 227 306 210 c 5
 259 207 156 203 65 199 c 4
 60 199 58 201 58 210 c 4
 58 229 64 246 71 261 c 5
EndSplineSet
Validated: 1
Substitution2: "'sinf' Scientific Inferiors lookup 5-1" hyphen.sinf
Substitution2: "'sups' Superscript lookup 6-1" hyphen.ssup
Substitution2: "'smcp' Lowercase to Small Capitals lookup 2-1" hyphen.sc
Substitution2: "'subs' Subscript lookup 1-1" hyphen.subs
Substitution2: "'ordn' Ordinals lookup 0-1" hyphen.ordn
EndChar

StartChar: slash
Encoding: 47 47 14
Width: 412
Flags: W
LayerCount: 2
Fore
SplineSet
383 755 m 1
 87 -12 l 2
 85 -19 71 -35 48 -35 c 0
 33 -35 30 -28 30 -28 c 1
 326 739 l 1
 333 754 332 761 362 761 c 0
 376 761 379 757 383 755 c 1
EndSplineSet
Validated: 1
Substitution2: "'frac' Diagonal Fractions lookup 10 subtable" fraction
Substitution2: "'sinf' Scientific Inferiors lookup 5-1" slash.sinf
Substitution2: "'sups' Superscript lookup 6-1" slash.ssup
Substitution2: "'smcp' Lowercase to Small Capitals lookup 2-1" slash.sc
Substitution2: "'subs' Subscript lookup 1-1" slash.subs
Substitution2: "'ordn' Ordinals lookup 0-1" slash.ordn
EndChar

StartChar: zero
Encoding: 48 48 15
Width: 543
Flags: W
HStem: -3 37<222.809 317.186> 604 37<227.815 321.765>
VStem: 54 88<173.11 465.617> 402 88<171.948 470.875>
LayerCount: 2
Fore
SplineSet
142 320 m 0
 142 163 193 34 267 34 c 0
 356 34 402 168 402 325 c 0
 402 482 351 604 277 604 c 0
 193 604 142 477 142 320 c 0
54 319 m 0
 54 493 134 641 272 641 c 0
 412 641 490 493 490 319 c 0
 490 145 410 -3 272 -3 c 0
 136 -3 54 145 54 319 c 0
EndSplineSet
Validated: 1
Substitution2: "'pnum' Proportional Numbers lookup 12-1" zero.prop
Substitution2: "'zero' Slashed Zero lookup 11-1" slashedzero
Substitution2: "'sinf' Scientific Inferiors lookup 5-1" zero.sinf
Substitution2: "'sups' Superscript lookup 6-1" zero.ssup
Substitution2: "'onum' Oldstyle Figures lookup 3-1" zero.onum
Substitution2: "'smcp' Lowercase to Small Capitals lookup 2-1" zero.sc
Substitution2: "'subs' Subscript lookup 1-1" zero.subs
Substitution2: "'ordn' Ordinals lookup 0-1" zero.ordn
EndChar

StartChar: one
Encoding: 49 49 16
Width: 318
Flags: W
HStem: -3 29<58.4037 124.283 215.717 281.596> 622 20G<204.5 211>
VStem: 131 79<32.7426 557.993>
LayerCount: 2
Fore
SplineSet
131 116 m 2
 131 520 l 2
 131 549 124 558 110 558 c 0
 95 558 56 544 40 538 c 1
 35 542 30 548 30 555 c 0
 30 557 29 560 32 561 c 0
 114 598 203 642 206 642 c 2
 208 642 l 2
 214 642 217 631 218 626 c 1
 218 626 210 590 210 529 c 2
 210 116 l 2
 210 86 210 58 215 42 c 0
 218 31 267 26 279 26 c 1
 283 21 284 2 279 -3 c 1
 238 -1 207 2 168 2 c 0
 129 2 102 -1 61 -3 c 1
 56 2 57 21 61 26 c 1
 73 26 122 31 125 42 c 0
 130 58 131 86 131 116 c 2
EndSplineSet
Validated: 1
Substitution2: "'pnum' Proportional Numbers lookup 12-1" one.prop
Substitution2: "'sinf' Scientific Inferiors lookup 5-1" one.sinf
Substitution2: "'sups' Superscript lookup 6-1" one.ssup
Substitution2: "'onum' Oldstyle Figures lookup 3-1" one.onum
Substitution2: "'smcp' Lowercase to Small Capitals lookup 2-1" one.sc
Substitution2: "'subs' Subscript lookup 1-1" one.subs
Substitution2: "'ordn' Ordinals lookup 0-1" one.ordn
EndChar

StartChar: two
Encoding: 50 50 17
Width: 475
Flags: W
HStem: 0 73<126 376.605> 577 65<148.85 269.625>
VStem: 45 19<497.173 503.317> 316 85<378.152 530.573>
LayerCount: 2
Fore
SplineSet
441 150 m 5
 421 101 393 18 387 0 c 13
 387 0 47 0 40 0 c 1
 36 2 30 10 30 14 c 1
 114 107 211 221 269 306 c 0
 310 366 316 407 316 456 c 0
 316 525 270 577 206 577 c 0
 126 577 76 511 64 491 c 1
 56 491 45 503 45 507 c 1
 52 532 124 642 229 642 c 0
 325 642 401 560 401 475 c 0
 401 418 379 367 344 324 c 0
 273 237 171 123 126 73 c 13
 325 73 l 6
 365 73 388 98 409 150 c 4
 411 155 415 156 421 156 c 4
 425 156 437 153 441 150 c 5
EndSplineSet
Validated: 1
Substitution2: "'pnum' Proportional Numbers lookup 12-1" two.prop
Substitution2: "'sinf' Scientific Inferiors lookup 5-1" two.sinf
Substitution2: "'sups' Superscript lookup 6-1" two.ssup
Substitution2: "'onum' Oldstyle Figures lookup 3-1" two.onum
Substitution2: "'smcp' Lowercase to Small Capitals lookup 2-1" two.sc
Substitution2: "'subs' Subscript lookup 1-1" two.subs
Substitution2: "'ordn' Ordinals lookup 0-1" two.ordn
EndChar

StartChar: three
Encoding: 51 51 18
Width: 456
Flags: W
HStem: -5 40<136.683 258.616> 318 30<129.3 178.758> 589 53<146.851 254.645>
VStem: 288 75<445.646 556.049> 324 86<125.145 267.945>
LayerCount: 2
Fore
SplineSet
231 642 m 4xf0
 282 642 363 596 363 514 c 4xf0
 363 449 305 400 270 379 c 5
 315 379 410 304 410 218 c 4
 410 81 280 -5 155 -5 c 4
 128 -5 85 2 53 18 c 5
 47 22 34 40 34 56 c 4
 34 85 53 104 75 104 c 4
 103 104 115 76 131 60 c 4
 150 41 178 35 205 35 c 4
 258 35 324 75 324 190 c 4xe8
 324 271 261 331 195 331 c 4
 174 331 147 321 135 318 c 5
 131 323 129 330 129 338 c 4
 129 342 129 345 131 348 c 5
 211 366 288 410 288 496 c 4
 288 549 247 589 190 589 c 4
 127 589 86 530 77 523 c 5
 71 523 65 536 65 545 c 5
 96 591 153 642 231 642 c 4xf0
EndSplineSet
Validated: 1
Substitution2: "'pnum' Proportional Numbers lookup 12-1" three.prop
Substitution2: "'sinf' Scientific Inferiors lookup 5-1" three.sinf
Substitution2: "'sups' Superscript lookup 6-1" three.ssup
Substitution2: "'onum' Oldstyle Figures lookup 3-1" three.onum
Substitution2: "'smcp' Lowercase to Small Capitals lookup 2-1" three.sc
Substitution2: "'subs' Subscript lookup 1-1" three.subs
Substitution2: "'ordn' Ordinals lookup 0-1" three.ordn
EndChar

StartChar: four
Encoding: 52 52 19
Width: 488
Flags: W
HStem: -6 21G<324 355.5> 174 57<76 299 378 449.961> 624 20G<359 368>
VStem: 299 79<-5.44241 174 231 524>
LayerCount: 2
Fore
SplineSet
363 644 m 4
 373 644 378 634 378 626 c 6
 378 231 l 29
 438 231 l 22
 444 231 452 211 452 190 c 4
 452 181 450 177 448 174 c 5
 422 174 378 174 378 174 c 29
 378 -1 l 5
 378 -1 375 -6 336 -6 c 4
 312 -6 299 -5 299 2 c 6
 299 174 l 29
 17 174 l 5
 10 178 8 187 8 193 c 5
 333 619 l 6
 339 627 355 644 363 644 c 4
299 524 m 29
 76 231 l 29
 299 231 l 29
 299 524 l 29
EndSplineSet
Validated: 1
Substitution2: "'pnum' Proportional Numbers lookup 12-1" four.prop
Substitution2: "'sinf' Scientific Inferiors lookup 5-1" four.sinf
Substitution2: "'sups' Superscript lookup 6-1" four.ssup
Substitution2: "'onum' Oldstyle Figures lookup 3-1" four.onum
Substitution2: "'smcp' Lowercase to Small Capitals lookup 2-1" four.sc
Substitution2: "'subs' Subscript lookup 1-1" four.subs
Substitution2: "'ordn' Ordinals lookup 0-1" four.ordn
EndChar

StartChar: five
Encoding: 53 53 20
Width: 450
Flags: W
HStem: -5 40<135.683 257.616> 339 56<115.696 250.065> 556 79<147.062 348.682> 624 20G<277 371>
VStem: 323 86<126.942 266.661>
LayerCount: 2
Fore
SplineSet
220 395 m 0xe8
 327 395 409 303 409 218 c 0
 409 81 279 -5 154 -5 c 0
 127 -5 84 2 52 18 c 1
 46 22 33 40 33 56 c 0
 33 85 52 104 74 104 c 0
 102 104 114 76 130 60 c 0
 149 41 177 35 204 35 c 0
 257 35 323 74 323 190 c 0
 323 252 278 339 162 339 c 3
 141 339 94 332 78 324 c 1
 74 324 71 331 71 338 c 1
 93 450 118 574 129 635 c 1
 200 635 277 635 277 635 c 2xe8
 318 635 368 644 368 644 c 17xd8
 374 640 380 638 380 633 c 0
 380 627 368 583 350 562 c 1
 322 559 287 556 235 556 c 2
 235 556 164 556 151 556 c 1
 139 496 127 432 115 376 c 1
 143 387 193 395 220 395 c 0xe8
EndSplineSet
Validated: 1
Substitution2: "'pnum' Proportional Numbers lookup 12-1" five.prop
Substitution2: "'sinf' Scientific Inferiors lookup 5-1" five.sinf
Substitution2: "'sups' Superscript lookup 6-1" five.ssup
Substitution2: "'onum' Oldstyle Figures lookup 3-1" five.onum
Substitution2: "'smcp' Lowercase to Small Capitals lookup 2-1" five.sc
Substitution2: "'subs' Subscript lookup 1-1" five.subs
Substitution2: "'ordn' Ordinals lookup 0-1" five.ordn
EndChar

StartChar: six
Encoding: 54 54 21
Width: 490
Flags: W
HStem: -6 33<205.175 299.859> 346 49<181.015 306.157> 618 29<384.23 418.518>
VStem: 47 86<119.341 313.338> 361 85<110.219 284.317>
LayerCount: 2
Fore
SplineSet
138 306 m 5
 135 285 133 262 133 238 c 4
 133 148 172 27 252 27 c 4
 315 27 361 94 361 184 c 4
 361 269 325 346 235 346 c 4
 206 346 171 342 138 306 c 5
263 395 m 4
 403 395 446 275 446 203 c 4
 446 91 357 -6 243 -6 c 4
 122 -6 47 112 47 220 c 4
 47 322 80 416 143 485 c 4
 214 563 327 625 411 647 c 5
 420 647 423 624 423 618 c 5
 339 591 191 527 146 350 c 5
 181 379 229 395 263 395 c 4
EndSplineSet
Validated: 1
Substitution2: "'pnum' Proportional Numbers lookup 12-1" six.prop
Substitution2: "'sinf' Scientific Inferiors lookup 5-1" six.sinf
Substitution2: "'sups' Superscript lookup 6-1" six.ssup
Substitution2: "'onum' Oldstyle Figures lookup 3-1" six.onum
Substitution2: "'smcp' Lowercase to Small Capitals lookup 2-1" six.sc
Substitution2: "'subs' Subscript lookup 1-1" six.subs
Substitution2: "'ordn' Ordinals lookup 0-1" six.ordn
EndChar

StartChar: seven
Encoding: 55 55 22
Width: 445
Flags: W
HStem: -5 21G<132.5 142.5> 560 73<78.1464 380>
LayerCount: 2
Fore
SplineSet
369 633 m 2
 395 633 430 636 436 636 c 0
 442 636 443 632 443 627 c 0
 443 614 427 588 414 560 c 2
 151 -2 l 1
 149 -4 145 -5 140 -5 c 0
 125 -5 96 4 96 13 c 1
 199 169 380 560 380 560 c 9
 126 560 l 2
 86 560 70 536 55 483 c 0
 54 478 49 477 43 477 c 0
 39 477 27 480 23 483 c 1
 40 537 57 601 64 633 c 9
 369 633 l 2
EndSplineSet
Validated: 1
Substitution2: "'pnum' Proportional Numbers lookup 12-1" seven.prop
Substitution2: "'sinf' Scientific Inferiors lookup 5-1" seven.sinf
Substitution2: "'sups' Superscript lookup 6-1" seven.ssup
Substitution2: "'onum' Oldstyle Figures lookup 3-1" seven.onum
Substitution2: "'smcp' Lowercase to Small Capitals lookup 2-1" seven.sc
Substitution2: "'subs' Subscript lookup 1-1" seven.subs
Substitution2: "'ordn' Ordinals lookup 0-1" seven.ordn
EndChar

StartChar: eight
Encoding: 56 56 23
Width: 494
Flags: W
HStem: -9 36<189.472 307.325> 608 35<199.682 294.828>
VStem: 57 79<77.0132 225.193> 85 74<430.437 556.213> 343 72<424.076 561.8> 353 81<86.3009 203.234>
LayerCount: 2
Fore
SplineSet
245 27 m 4xe4
 311 27 353 70 353 138 c 4
 353 221 239 287 225 295 c 4
 223 296 222 297 219 297 c 4
 218 297 216 297 215 296 c 4
 160 261 136 221 136 157 c 4
 136 75 192 27 245 27 c 4xe4
245 608 m 4
 197 608 159 558 159 498 c 4
 159 421 225 386 263 364 c 4
 265 363 267 362 269 362 c 4
 271 362 272 362 275 364 c 4
 316 391 343 431 343 486 c 4xd8
 343 544 305 608 245 608 c 4
251 643 m 4
 340 643 415 589 415 496 c 4xd8
 415 418 349 373 303 344 c 5
 299 343 300 340 303 338 c 4
 363 304 434 239 434 167 c 4
 434 67 343 -9 243 -9 c 4
 133 -9 57 57 57 154 c 4xe4
 57 242 148 293 187 318 c 4
 190 320 189 323 187 324 c 4
 145 349 85 406 85 480 c 4
 85 565 163 643 251 643 c 4
EndSplineSet
Validated: 1
Substitution2: "'pnum' Proportional Numbers lookup 12-1" eight.prop
Substitution2: "'sinf' Scientific Inferiors lookup 5-1" eight.sinf
Substitution2: "'sups' Superscript lookup 6-1" eight.ssup
Substitution2: "'onum' Oldstyle Figures lookup 3-1" eight.onum
Substitution2: "'smcp' Lowercase to Small Capitals lookup 2-1" eight.sc
Substitution2: "'subs' Subscript lookup 1-1" eight.subs
Substitution2: "'ordn' Ordinals lookup 0-1" eight.ordn
EndChar

StartChar: nine
Encoding: 57 57 24
Width: 489
Flags: W
HStem: -6 29<69.4823 103.77> 246 49<181.843 306.985> 614 33<188.141 282.825>
VStem: 42 85<356.683 530.781> 355 86<327.662 521.659>
LayerCount: 2
Fore
SplineSet
350 335 m 1
 353 356 355 379 355 403 c 0
 355 493 316 614 236 614 c 0
 173 614 127 547 127 457 c 0
 127 372 163 295 253 295 c 0
 282 295 317 299 350 335 c 1
225 246 m 0
 85 246 42 366 42 438 c 0
 42 550 131 647 245 647 c 0
 366 647 441 529 441 421 c 0
 441 319 408 225 345 156 c 0
 274 78 161 16 77 -6 c 1
 68 -6 65 17 65 23 c 1
 149 50 297 114 342 291 c 1
 307 262 259 246 225 246 c 0
EndSplineSet
Validated: 1
Substitution2: "'pnum' Proportional Numbers lookup 12-1" nine.prop
Substitution2: "'sinf' Scientific Inferiors lookup 5-1" nine.sinf
Substitution2: "'sups' Superscript lookup 6-1" nine.ssup
Substitution2: "'onum' Oldstyle Figures lookup 3-1" nine.onum
Substitution2: "'smcp' Lowercase to Small Capitals lookup 2-1" nine.sc
Substitution2: "'subs' Subscript lookup 1-1" nine.subs
Substitution2: "'ordn' Ordinals lookup 0-1" nine.ordn
EndChar

StartChar: colon
Encoding: 58 58 25
Width: 224
Flags: W
HStem: -11 110<69.2305 155.537> 321 110<69.2305 155.537>
VStem: 57 110<1.23046 87.5371 333.23 419.537>
LayerCount: 2
Fore
SplineSet
57 45 m 4
 57 75 83 99 113 99 c 4
 143 99 167 75 167 45 c 4
 167 15 143 -11 113 -11 c 4
 83 -11 57 15 57 45 c 4
57 377 m 4
 57 407 83 431 113 431 c 4
 143 431 167 407 167 377 c 4
 167 347 143 321 113 321 c 4
 83 321 57 347 57 377 c 4
EndSplineSet
Validated: 1
Substitution2: "'sinf' Scientific Inferiors lookup 5-1" colon.sinf
Substitution2: "'sups' Superscript lookup 6-1" colon.ssup
Substitution2: "'smcp' Lowercase to Small Capitals lookup 2-1" colon.sc
Substitution2: "'subs' Subscript lookup 1-1" colon.subs
Substitution2: "'ordn' Ordinals lookup 0-1" colon.ordn
EndChar

StartChar: semicolon
Encoding: 59 59 26
Width: 227
Flags: W
HStem: 321 110<70.2305 156.537>
VStem: 65 103<25.9041 111.105 332.398 420.324> 98 70<-26.8236 65>
LayerCount: 2
Fore
SplineSet
58 377 m 4xc0
 58 407 84 431 114 431 c 4
 144 431 168 407 168 377 c 4
 168 347 144 321 114 321 c 4
 84 321 58 347 58 377 c 4xc0
124 123 m 4
 132 123 143 120 150 116 c 5
 157 104 168 84 168 46 c 4xc0
 168 -11 101 -111 50 -139 c 5
 43 -139 35 -124 35 -118 c 5
 55 -103 98 -71 98 -7 c 4xa0
 98 26 65 35 65 74 c 4
 65 95 88 123 124 123 c 4
EndSplineSet
Validated: 1
Substitution2: "'sinf' Scientific Inferiors lookup 5-1" semicolon.sinf
Substitution2: "'sups' Superscript lookup 6-1" semicolon.ssup
Substitution2: "'smcp' Lowercase to Small Capitals lookup 2-1" semicolon.sc
Substitution2: "'subs' Subscript lookup 1-1" semicolon.subs
Substitution2: "'ordn' Ordinals lookup 0-1" semicolon.ordn
EndChar

StartChar: less
Encoding: 60 60 27
Width: 493
Flags: W
HStem: 410 20G<422.5 424.5>
LayerCount: 2
Fore
SplineSet
445 35 m 0
 445 28 435 -15 429 -15 c 0
 428 -15 426 -14 424 -13 c 2
 49 177 l 2
 34 185 31 200 31 217 c 0
 31 228 39 236 49 241 c 2
 418 428 l 2
 420 429 422 430 423 430 c 0
 426 430 433 420 440 383 c 0
 441 377 437 374 437 374 c 1
 111 209 l 1
 442 41 l 1
 442 41 445 40 445 35 c 0
EndSplineSet
Validated: 1
Substitution2: "'sinf' Scientific Inferiors lookup 5-1" less.sinf
Substitution2: "'sups' Superscript lookup 6-1" less.ssup
Substitution2: "'smcp' Lowercase to Small Capitals lookup 2-1" less.sc
Substitution2: "'subs' Subscript lookup 1-1" less.subs
Substitution2: "'ordn' Ordinals lookup 0-1" less.ordn
EndChar

StartChar: equal
Encoding: 61 61 28
Width: 601
Flags: W
HStem: 117 56<76.0959 529.32> 259 56<70.9907 529.32>
LayerCount: 2
Fore
SplineSet
535 168 m 4
 535 159 531 145 525 123 c 4
 523 117 519 117 519 117 c 5
 74 117 l 5
 74 117 67 117 67 127 c 4
 67 131 69 144 76 168 c 4
 78 174 83 173 83 173 c 5
 527 173 l 6
 531 173 535 175 535 168 c 4
67 269 m 5
 67 269 72 315 82 315 c 6
 531 315 l 6
 533 315 535 314 535 310 c 4
 535 301 531 287 525 265 c 4
 523 259 519 259 519 259 c 5
 74 259 l 5
 74 259 67 259 67 269 c 5
EndSplineSet
Validated: 1
Substitution2: "'sinf' Scientific Inferiors lookup 5-1" equal.sinf
Substitution2: "'sups' Superscript lookup 6-1" equal.ssup
Substitution2: "'smcp' Lowercase to Small Capitals lookup 2-1" equal.sc
Substitution2: "'subs' Subscript lookup 1-1" equal.subs
Substitution2: "'ordn' Ordinals lookup 0-1" equal.ordn
EndChar

StartChar: greater
Encoding: 62 62 29
Width: 493
Flags: W
HStem: 410 20G<68 70.5>
LayerCount: 2
Fore
SplineSet
54 382 m 0
 54 400 66 430 70 430 c 0
 71 430 73 429 75 428 c 2
 445 241 l 2
 455 236 462 228 462 217 c 0
 462 200 460 185 445 177 c 2
 70 -13 l 2
 68 -14 66 -15 65 -15 c 0
 59 -15 48 27 48 35 c 0
 48 39 51 41 51 41 c 1
 382 209 l 1
 57 374 l 1
 57 374 54 375 54 382 c 0
EndSplineSet
Validated: 1
Substitution2: "'sinf' Scientific Inferiors lookup 5-1" greater.sinf
Substitution2: "'sups' Superscript lookup 6-1" greater.ssup
Substitution2: "'smcp' Lowercase to Small Capitals lookup 2-1" greater.sc
Substitution2: "'subs' Subscript lookup 1-1" greater.subs
Substitution2: "'ordn' Ordinals lookup 0-1" greater.ordn
EndChar

StartChar: question
Encoding: 63 63 30
Width: 354
Flags: W
HStem: -11 110<75.2305 161.537> 548 94<64.7663 183.549> 569 73<83.3395 192.566>
VStem: 63 110<1.23046 87.5371> 96 29<159.288 241.239> 260 50<432.623 535.531>
LayerCount: 2
Fore
SplineSet
63 45 m 4x94
 63 75 89 99 119 99 c 4
 149 99 173 75 173 45 c 4
 173 15 149 -11 119 -11 c 4
 89 -11 63 15 63 45 c 4x94
96 170 m 5xcc
 91 191 88 234 88 261 c 4
 88 335 136 361 173 385 c 4
 222 416 260 439 260 487 c 4
 260 539 224 569 186 569 c 4xb4
 133 569 126 548 100 548 c 4
 86 548 56 565 56 598 c 4
 56 613 60 628 65 635 c 5
 75 640 92 642 113 642 c 4
 179 642 310 574 310 457 c 4
 310 389 284 347 209 304 c 4
 182 288 137 253 131 242 c 4
 122 226 125 195 125 172 c 5
 121 164 118 160 109 159 c 5
 104 161 99 164 96 170 c 5xcc
EndSplineSet
Validated: 33
Substitution2: "'sinf' Scientific Inferiors lookup 5-1" question.sinf
Substitution2: "'sups' Superscript lookup 6-1" question.ssup
Substitution2: "'smcp' Lowercase to Small Capitals lookup 2-1" question.sc
Substitution2: "'subs' Subscript lookup 1-1" question.subs
Substitution2: "'ordn' Ordinals lookup 0-1" question.ordn
EndChar

StartChar: at
Encoding: 64 64 31
Width: 747
Flags: W
HStem: -124 18<260.319 284.566> -7 43<493.48 582.769> -5 58<282.059 340.022> 389 46<389.034 496.5> 538 40<313.127 517.377>
VStem: 48 40<62.2822 287.163> 193 74<65.092 232.038> 422 66<41.9004 125> 671 40<157.015 377.609>
LayerCount: 2
Fore
SplineSet
417 578 m 0xdf80
 613 578 711 426 711 270 c 0
 711 117 622 -7 505 -7 c 0xdf80
 456 -7 422 18 422 79 c 0
 422 91 426 117 429 125 c 1
 410 88 346 -5 288 -5 c 3xbf80
 226 -5 193 60 193 130 c 3
 193 276 342 435 479 435 c 0
 514 435 533 429 552 422 c 9
 491 106 l 2
 490 102 488 86 488 81 c 0
 488 49 509 36 536 36 c 0
 599 36 671 142 671 267 c 0
 671 402 591 538 417 538 c 0
 213 538 88 344 88 170 c 0
 88 53 149 -36 221 -78 c 0
 257 -99 277 -103 296 -106 c 1
 296 -114 272 -124 260 -124 c 0
 248 -124 234 -123 221 -118 c 0
 129 -84 48 29 48 170 c 0
 48 366 185 578 417 578 c 0xdf80
437 389 m 3
 360 389 267 266 267 151 c 0
 267 89 283 53 318 53 c 3xbf80
 368 53 439 178 458 274 c 2
 478 376 l 17
 469 386 450 389 437 389 c 3
EndSplineSet
Validated: 1
Substitution2: "'smcp' Lowercase to Small Capitals lookup 2-1" at.sc
EndChar

StartChar: A
Encoding: 65 65 32
Width: 620
Flags: W
HStem: -3 29<-13.6875 27.5765 128.307 189.196 399.775 458.559 579.161 628.562> 252 42<201 376.999> 643 20G<318.5 324.5>
LayerCount: 2
Fore
SplineSet
628 -3 m 1
 588 -1 562 2 518 2 c 0
 472 2 448 -1 402 -3 c 1
 397 2 398 21 403 26 c 1
 415 26 450 31 459 39 c 0
 462 42 463 47 463 53 c 0
 463 83 397 247 397 247 c 1
 397 247 394 251 391 251 c 0
 365 253 315 252 290 252 c 0
 249 252 230 252 185 249 c 0
 183 249 180 246 180 246 c 1
 180 246 150 173 134 125 c 16
 122 90 120 67 120 54 c 0
 120 30 179 26 187 26 c 1
 190 23 191 3 189 -3 c 1
 149 -1 136 2 92 2 c 0
 46 2 34 -1 -12 -3 c 1
 -15 0 -15 19 -12 26 c 1
 0 26 35 32 45 45 c 0
 65 71 78 103 92 139 c 2
 92 139 224 478 285 634 c 0
 291 650 314 663 323 663 c 0
 326 663 326 661 329 660 c 1
 329 660 549 80 558 60 c 0
 568 36 618 26 626 26 c 1
 631 19 629 0 628 -3 c 1
203 296 m 0
 229 295 266 294 289 294 c 0
 320 294 343 295 374 297 c 0
 376 297 377 302 377 302 c 1
 291 535 l 1
 201 300 l 1
 201 300 201 296 203 296 c 0
EndSplineSet
Validated: 545
Substitution2: "'sinf' Scientific Inferiors lookup 5-1" A.sinf
Substitution2: "'sups' Superscript lookup 6-1" A.ssup
Substitution2: "'subs' Subscript lookup 1-1" A.subs
Substitution2: "'ordn' Ordinals lookup 0-1" A.ordn
EndChar

StartChar: B
Encoding: 66 66 33
Width: 595
Flags: W
HStem: -3 35<43.2859 114.827 214.712 382.627> 334 38<205 364.582> 624 35<210.209 343.159> 633 29<41.4037 112.252>
VStem: 118 87<50.3571 334 372 613.422> 414 91<437.712 566.413> 452 99<116.781 263.949>
LayerCount: 2
Fore
SplineSet
304 659 m 0xea
 395 659 505 624 505 510 c 0xec
 505 433 439 383 404 370 c 0
 402 369 401 367 404 365 c 1
 453 363 551 298 551 199 c 0
 551 142 516 79 472 47 c 0
 421 10 351 -2 274 -3 c 0
 241 -3 83 -3 44 -3 c 1
 39 2 40 21 44 26 c 1
 56 26 110 31 113 42 c 0
 118 58 118 86 118 116 c 2
 118 543 l 2
 118 573 118 601 113 617 c 0
 110 628 56 633 44 633 c 1
 40 638 39 657 44 662 c 1xda
 85 660 123 657 162 657 c 0
 201 657 245 659 304 659 c 0xea
205 372 m 1
 306 372 l 2
 378 372 414 430 414 487 c 0
 414 576 353 624 260 624 c 4
 248 624 214 623 210 614 c 4
 205 602 205 569 205 539 c 6
 205 372 l 1
205 334 m 1
 205 118 l 2
 205 104 207 57 214 50 c 0
 229 34 256 32 293 32 c 0
 368 32 452 54 452 176 c 0xca
 452 251 420 334 266 334 c 2
 205 334 l 1
EndSplineSet
Validated: 1
Substitution2: "'sinf' Scientific Inferiors lookup 5-1" B.sinf
Substitution2: "'sups' Superscript lookup 6-1" B.ssup
Substitution2: "'subs' Subscript lookup 1-1" B.subs
Substitution2: "'ordn' Ordinals lookup 0-1" B.ordn
EndChar

StartChar: C
Encoding: 67 67 34
Width: 671
Flags: W
HStem: -6 37<310.323 495.664> 630 37<306.034 490.783>
VStem: 47 99<212.865 446.975> 599 32<141.953 185.708>
LayerCount: 2
Fore
SplineSet
385 667 m 4
 451 667 523 662 597 646 c 5
 597 646 620 508 620 498 c 5
 620 488 609 483 599 483 c 4
 593 483 588 485 586 488 c 5
 580 519 557 630 390 630 c 4
 242 630 146 483 146 343 c 4
 146 187 232 31 406 31 c 4
 551 31 587 134 599 191 c 5
 613 191 631 183 631 183 c 5
 631 163 610 51 596 39 c 5
 541 8 473 -6 381 -6 c 4
 183 -6 47 145 47 322 c 4
 47 509 188 667 385 667 c 4
EndSplineSet
Validated: 1
Substitution2: "'sinf' Scientific Inferiors lookup 5-1" C.sinf
Substitution2: "'sups' Superscript lookup 6-1" C.ssup
Substitution2: "'subs' Subscript lookup 1-1" C.subs
Substitution2: "'ordn' Ordinals lookup 0-1" C.ordn
EndChar

StartChar: D
Encoding: 68 68 35
Width: 705
Flags: W
HStem: -3 35<43.2859 114.827 212.396 390.605> 624 34<209.532 375.678> 633 29<41.4037 112.252>
VStem: 118 88<46.3146 620.395> 559 99<197.68 448.61>
LayerCount: 2
Fore
SplineSet
206 539 m 2xd8
 206 118 l 0
 206 104 207 52 212 46 c 0
 220 35 257 32 294 32 c 0
 436 32 559 118 559 313 c 0
 559 539 424 624 280 624 c 0
 268 624 214 623 211 613 c 0
 206 597 206 568 206 539 c 2xd8
307 658 m 0
 526 658 658 519 658 334 c 0
 658 164 576 -3 294 -3 c 0
 250 -3 83 -3 44 -3 c 1
 39 2 40 21 44 26 c 1
 56 26 110 31 113 42 c 0
 118 58 118 86 118 116 c 2
 118 543 l 2
 118 573 118 601 113 617 c 0
 110 628 56 633 44 633 c 1
 40 638 39 657 44 662 c 1xb8
 85 660 123 657 162 657 c 0
 201 657 263 658 307 658 c 0
EndSplineSet
Validated: 1
Substitution2: "'sinf' Scientific Inferiors lookup 5-1" D.sinf
Substitution2: "'sups' Superscript lookup 6-1" D.ssup
Substitution2: "'subs' Subscript lookup 1-1" D.subs
Substitution2: "'ordn' Ordinals lookup 0-1" D.ordn
EndChar

StartChar: E
Encoding: 69 69 36
Width: 583
Flags: W
HStem: -3 29<41.4037 112.252> 0 37<211.612 444.475> 312 37<205 382.451> 408 20G<422.5 429.5> 621 36<208.35 436.453> 633 29<41.5487 112.252>
VStem: 118 87<47.2663 310.528 349.429 616.995> 411 32<230.002 289.298 372.014 427.976> 481 32<523.07 569.412>
LayerCount: 2
Fore
SplineSet
162 657 m 0x3b80
 256 657 375 664 484 664 c 1
 491 614 504 573 513 528 c 1
 510 525 502 523 495 523 c 0
 488 523 482 525 481 530 c 0
 459 610 418 621 365 621 c 2
 279 621 l 0
 267 621 213 620 210 610 c 0
 205 594 205 566 205 539 c 2
 205 355 l 2
 205 350 226 349 248 349 c 2
 301 349 l 2
 397 349 394 355 411 421 c 0
 412 426 419 428 426 428 c 0
 433 428 440 426 443 423 c 1
 443 234 l 1
 441 232 434 230 427 230 c 0
 420 230 413 233 411 238 c 0
 396 295 392 298 383 304 c 0
 372 311 315 312 277 312 c 0
 249 312 205 312 205 303 c 2
 205 116 l 2
 205 101 205 52 211 47 c 0
 224 37 240 37 282 37 c 2
 330 37 l 2
 377 37 428 44 456 61 c 0
 488 80 503 119 519 162 c 0
 520 166 526 168 533 168 c 0
 543 168 555 165 558 162 c 1
 539 108 511 40 504 -4 c 1
 395 -4 296 0 163 0 c 0x7b80
 116 0 83 -3 44 -3 c 1
 39 2 40 21 44 26 c 1
 56 26 110 31 113 42 c 0
 118 58 118 86 118 116 c 2
 118 543 l 2
 118 573 118 601 113 617 c 0
 110 628 56 633 44 633 c 1
 40 638 39 657 44 662 c 1xb780
 85 660 123 657 162 657 c 0x3b80
EndSplineSet
Validated: 1
Substitution2: "'sinf' Scientific Inferiors lookup 5-1" E.sinf
Substitution2: "'sups' Superscript lookup 6-1" E.ssup
Substitution2: "'subs' Subscript lookup 1-1" E.subs
Substitution2: "'ordn' Ordinals lookup 0-1" E.ordn
EndChar

StartChar: F
Encoding: 70 70 37
Width: 530
Flags: W
HStem: -3 29<41.4037 112.252 210.812 291.596> 312 37<205 382.451> 408 20G<422.5 429.5> 621 36<208.35 436.453> 633 29<41.5487 112.252>
VStem: 118 87<33.4148 310.528 349.429 616.995> 411 32<230.002 289.298 372.014 427.976> 481 32<523.07 569.412>
LayerCount: 2
Fore
SplineSet
162 657 m 0xf7
 256 657 375 664 484 664 c 1
 491 614 504 573 513 528 c 1
 510 525 502 523 495 523 c 0
 488 523 482 525 481 530 c 0
 459 610 418 621 365 621 c 2
 279 621 l 0xf7
 267 621 213 620 210 610 c 0
 205 594 205 566 205 539 c 2
 205 355 l 2
 205 350 226 349 248 349 c 2
 301 349 l 2
 397 349 394 355 411 421 c 0
 412 426 419 428 426 428 c 0
 433 428 440 426 443 423 c 1
 443 234 l 1
 441 232 434 230 427 230 c 0
 420 230 413 233 411 238 c 0
 396 295 392 298 383 304 c 0
 372 311 315 312 277 312 c 0
 249 312 205 312 205 303 c 2
 205 116 l 2
 205 86 205 58 210 42 c 0
 213 31 277 26 289 26 c 1
 293 21 294 2 289 -3 c 1
 248 -1 201 2 162 2 c 0
 115 2 83 -3 44 -3 c 1
 39 2 40 21 44 26 c 1
 56 26 110 31 113 42 c 0
 118 58 118 86 118 116 c 2
 118 543 l 2
 118 573 118 601 113 617 c 0
 110 628 56 633 44 633 c 1
 40 638 39 657 44 662 c 1xef
 85 660 123 657 162 657 c 0xf7
EndSplineSet
Validated: 1
Substitution2: "'sinf' Scientific Inferiors lookup 5-1" F.sinf
Substitution2: "'sups' Superscript lookup 6-1" F.ssup
Substitution2: "'subs' Subscript lookup 1-1" F.subs
Substitution2: "'ordn' Ordinals lookup 0-1" F.ordn
EndChar

StartChar: G
Encoding: 71 71 38
Width: 717
Flags: W
HStem: -6 37<310.129 504.174> 265 29<452.404 528.22 625.723 692.596> 630 37<306.034 490.783>
VStem: 47 99<212.865 446.975> 534 86<64.4681 257.925> 586 34<483.297 537.608>
LayerCount: 2
Fore
SplineSet
534 175 m 2xf8
 534 205 534 233 529 249 c 0
 526 260 467 265 455 265 c 1
 451 270 450 289 455 294 c 1
 496 292 539 289 578 289 c 0
 617 289 649 292 690 294 c 1
 695 289 694 270 690 265 c 1
 678 265 628 260 625 249 c 0
 620 233 620 205 620 175 c 2
 620 175 620 114 620 104 c 0xf8
 620 83 630 74 630 64 c 0
 630 58 627 55 610 46 c 0
 567 23 513 -6 381 -6 c 0
 183 -6 47 145 47 322 c 0
 47 509 188 667 385 667 c 0
 451 667 523 662 597 646 c 1
 597 646 620 508 620 498 c 1
 620 488 609 483 599 483 c 0
 593 483 588 485 586 488 c 1xf4
 580 519 557 630 390 630 c 0
 242 630 146 483 146 343 c 0
 146 187 231 31 406 31 c 0
 458 31 497 44 527 59 c 0
 533 62 534 67 534 74 c 0
 534 101 534 175 534 175 c 2xf8
EndSplineSet
Validated: 1
Substitution2: "'sinf' Scientific Inferiors lookup 5-1" G.sinf
Substitution2: "'sups' Superscript lookup 6-1" G.ssup
Substitution2: "'subs' Subscript lookup 1-1" G.subs
Substitution2: "'ordn' Ordinals lookup 0-1" G.ordn
EndChar

StartChar: H
Encoding: 72 72 39
Width: 722
Flags: W
HStem: -3 32<41.5037 112.999 210.001 281.496 442.504 513.999 611.001 682.496> 325 34<206.196 519> 630 32<41.5037 112.999 210.001 281.496 442.504 513.999 611.001 682.496>
VStem: 118 87<35.7426 318.953 362.001 623.257> 519 87<35.7426 320.999 362.001 623.257>
LayerCount: 2
Fore
SplineSet
162 657 m 0
 201 657 238 660 279 662 c 1
 284 657 283 635 279 630 c 1
 267 630 213 625 210 614 c 0
 205 598 205 570 205 540 c 2
 205 365 l 1
 205 363 207 362 207 362 c 1
 256 361 308 359 364 359 c 0
 411 359 472 361 517 362 c 1
 517 362 519 364 519 366 c 0
 519 434 519 540 519 540 c 2
 519 570 519 598 514 614 c 0
 511 625 457 630 445 630 c 1
 441 635 440 657 445 662 c 1
 486 660 524 657 563 657 c 0
 602 657 639 660 680 662 c 1
 685 657 684 635 680 630 c 1
 668 630 614 625 611 614 c 0
 606 598 606 570 606 540 c 2
 606 119 l 2
 606 89 606 61 611 45 c 0
 614 34 668 29 680 29 c 1
 684 24 685 2 680 -3 c 1
 639 -1 602 2 563 2 c 0
 524 2 486 -1 445 -3 c 1
 440 2 441 24 445 29 c 1
 457 29 511 34 514 45 c 0
 519 61 519 89 519 119 c 2
 519 317 l 1
 519 319 517 321 517 321 c 1
 470 322 415 325 364 325 c 0
 225 325 210 321 206 319 c 1
 205 318 205 317 205 317 c 1
 205 119 l 2
 205 89 205 61 210 45 c 0
 213 34 267 29 279 29 c 1
 283 24 284 2 279 -3 c 1
 238 -1 201 2 162 2 c 0
 123 2 85 -1 44 -3 c 1
 39 2 40 24 44 29 c 1
 56 29 110 34 113 45 c 0
 118 61 118 89 118 119 c 2
 118 540 l 2
 118 570 118 598 113 614 c 0
 110 625 56 630 44 630 c 1
 40 635 39 657 44 662 c 1
 85 660 123 657 162 657 c 0
EndSplineSet
Validated: 513
Substitution2: "'sinf' Scientific Inferiors lookup 5-1" H.sinf
Substitution2: "'sups' Superscript lookup 6-1" H.ssup
Substitution2: "'subs' Subscript lookup 1-1" H.subs
Substitution2: "'ordn' Ordinals lookup 0-1" H.ordn
EndChar

StartChar: I
Encoding: 73 73 40
Width: 321
Flags: W
HStem: -3 29<41.4037 112.252 210.748 281.596> 633 29<41.4037 112.252 210.748 281.596>
VStem: 118 87<32.7426 626.257>
LayerCount: 2
Fore
SplineSet
162 657 m 0
 201 657 238 660 279 662 c 1
 284 657 283 638 279 633 c 1
 267 633 213 628 210 617 c 0
 205 601 205 573 205 543 c 2
 205 116 l 6
 205 86 205 58 210 42 c 4
 213 31 267 26 279 26 c 5
 283 21 284 2 279 -3 c 1
 238 -1 201 2 162 2 c 0
 123 2 85 -1 44 -3 c 1
 39 2 40 21 44 26 c 5
 56 26 110 31 113 42 c 4
 118 58 118 86 118 116 c 6
 118 543 l 2
 118 573 118 601 113 617 c 0
 110 628 56 633 44 633 c 1
 40 638 39 657 44 662 c 1
 85 660 123 657 162 657 c 0
EndSplineSet
Validated: 513
Substitution2: "'sinf' Scientific Inferiors lookup 5-1" I.sinf
Substitution2: "'sups' Superscript lookup 6-1" I.ssup
Substitution2: "'subs' Subscript lookup 1-1" I.subs
Substitution2: "'ordn' Ordinals lookup 0-1" I.ordn
EndChar

StartChar: J
Encoding: 74 74 41
Width: 304
Flags: W
HStem: -227 48<-50 54.0717> 633 29<31.4037 102.252 200.748 271.596>
VStem: 108 87<-40.7974 626.257>
LayerCount: 2
Fore
SplineSet
152 657 m 0
 191 657 228 660 269 662 c 1
 274 657 273 638 269 633 c 5
 257 633 203 628 200 617 c 4
 195 601 195 573 195 543 c 6
 195 116 l 2
 195 -92 106 -227 -39 -227 c 0
 -61 -227 -90 -217 -102 -209 c 1
 -107 -204 -110 -193 -110 -186 c 0
 -110 -155 -91 -131 -59 -131 c 0
 -41 -131 -26 -145 -12 -158 c 0
 0 -169 16 -179 29 -179 c 0
 61 -179 108 -126 108 116 c 2
 108 543 l 6
 108 573 108 601 103 617 c 4
 100 628 46 633 34 633 c 5
 30 638 29 657 34 662 c 1
 75 660 113 657 152 657 c 0
EndSplineSet
Validated: 513
Substitution2: "'sinf' Scientific Inferiors lookup 5-1" J.sinf
Substitution2: "'sups' Superscript lookup 6-1" J.ssup
Substitution2: "'subs' Subscript lookup 1-1" J.subs
Substitution2: "'ordn' Ordinals lookup 0-1" J.ordn
EndChar

StartChar: K
Encoding: 75 75 42
Width: 651
Flags: W
HStem: -3 32<41.5037 112.999 210.001 281.496 588.9 659.782> 630 32<41.5037 112.999 210.001 281.496 401.462 458.18 551.643 627.082>
VStem: 118 87<35.7426 306.999 343 623.257>
LayerCount: 2
Fore
SplineSet
550 72 m 0
 575 49 604 30 659 26 c 1
 664 21 659 -1 658 -3 c 1
 591 -3 536 1 516 8 c 0
 502 13 476 23 448 51 c 0
 427 72 336 175 223 304 c 0
 221 307 218 307 214 307 c 0
 211 307 207 306 205 305 c 1
 205 119 l 2
 205 89 205 61 210 45 c 0
 213 34 267 29 279 29 c 1
 283 24 284 2 279 -3 c 1
 238 -1 201 2 162 2 c 0
 123 2 85 -1 44 -3 c 1
 39 2 40 24 44 29 c 1
 56 29 110 34 113 45 c 0
 118 61 118 89 118 119 c 2
 118 540 l 2
 118 570 118 598 113 614 c 0
 110 625 56 630 44 630 c 1
 40 635 39 657 44 662 c 1
 85 660 123 657 162 657 c 0
 201 657 238 660 279 662 c 1
 284 657 283 635 279 630 c 1
 267 630 213 625 210 614 c 0
 205 598 205 570 205 540 c 2
 205 343 l 1
 226 356 277 402 318 442 c 0
 396 519 398 517 445 578 c 4
 451 586 459 599 459 609 c 4
 459 634 412 631 403 631 c 5
 400 637 400 653 403 662 c 1
 440 660 481 656 518 656 c 0
 562 656 586 660 626 662 c 1
 628 656 629 631 624 631 c 4
 615 630 559 631 525 594 c 4
 439 500 383 450 296 366 c 0
 290 360 294 355 298 350 c 0
 394 238 473 145 550 72 c 0
EndSplineSet
Validated: 545
Substitution2: "'sinf' Scientific Inferiors lookup 5-1" K.sinf
Substitution2: "'sups' Superscript lookup 6-1" K.ssup
Substitution2: "'subs' Subscript lookup 1-1" K.subs
Substitution2: "'ordn' Ordinals lookup 0-1" K.ordn
EndChar

StartChar: L
Encoding: 76 76 43
Width: 559
Flags: W
HStem: -3 29<41.4037 112.252> 0 37<211.612 446.034> 633 29<41.4037 112.252 210.748 281.596>
VStem: 118 87<47.2685 626.257>
LayerCount: 2
Fore
SplineSet
205 119 m 2xb0
 205 104 205 52 211 47 c 0
 224 37 240 37 282 37 c 2
 339 37 l 2
 377 37 428 42 456 61 c 0
 481 78 503 109 519 162 c 0
 520 166 526 168 533 168 c 0
 543 168 555 165 558 162 c 1
 539 108 511 40 504 -4 c 1
 395 -4 296 0 163 0 c 0x70
 116 0 83 -3 44 -3 c 1
 39 2 40 21 44 26 c 1
 56 26 110 31 113 42 c 0
 118 58 118 86 118 116 c 2
 118 543 l 2
 118 573 118 601 113 617 c 0
 110 628 56 633 44 633 c 1
 40 638 39 657 44 662 c 1
 85 660 123 657 162 657 c 0
 201 657 238 660 279 662 c 1
 284 657 283 638 279 633 c 1
 267 633 213 628 210 617 c 0
 205 601 205 573 205 543 c 2
 205 119 l 2xb0
EndSplineSet
Validated: 1
Substitution2: "'sinf' Scientific Inferiors lookup 5-1" L.sinf
Substitution2: "'sups' Superscript lookup 6-1" L.ssup
Substitution2: "'subs' Subscript lookup 1-1" L.subs
Substitution2: "'ordn' Ordinals lookup 0-1" L.ordn
EndChar

StartChar: M
Encoding: 77 77 44
Width: 902
Flags: W
HStem: -3 29<22.1812 100.346 169.148 247.653 630.181 696.417 801.076 871.36> 633 29<55.7476 119.145 785.912 851.014>
VStem: 117 45<37.5115 289.668> 131 44<371.361 583.939> 691 86<325.272 584.822> 706 81<37.202 383.21>
LayerCount: 2
Fore
SplineSet
850 662 m 5xd0
 851 659 853 633 853 633 c 21
 839 633 787 625 782 615 c 4
 778 606 777 589 777 577 c 4xd8
 779 508 784 270 787 140 c 4
 788 101 790 67 799 43 c 4
 804 29 861 26 869 26 c 5
 874 17 872 0 871 -3 c 5
 831 -1 796 2 752 2 c 4
 706 2 678 -1 632 -3 c 5
 630 -1 628 18 632 26 c 5
 644 26 685 30 697 37 c 4
 704 41 706 65 706 79 c 4xc4
 706 93 704 122 704 137 c 4
 700 281 697 403 691 565 c 4
 691 569 689 585 682 585 c 4
 680 585 679 583 677 578 c 12
 595 372 543 242 466 49 c 4
 462 40 439 0 428 -2 c 4
 425 -3 422 -1 419 0 c 5
 175 584 l 5xd8
 171 366 162 85 162 75 c 4
 162 66 163 52 166 44 c 4
 172 29 237 26 245 26 c 5
 250 20 248 0 247 -3 c 5
 207 -1 185 2 141 2 c 4
 95 2 70 -1 24 -3 c 5
 22 -1 20 18 24 26 c 5
 36 26 96 31 105 44 c 4
 114 57 116 73 117 94 c 4xe0
 126 334 131 554 131 572 c 4
 131 586 131 601 127 612 c 4
 123 624 69 633 57 633 c 5
 55 633 55 660 57 662 c 5
 103 660 114 657 160 657 c 4
 194 657 219 660 241 662 c 5
 261 599 382 324 453 146 c 4
 454 144 456 144 457 144 c 4
 458 144 461 145 462 148 c 4
 521 300 557 394 615 542 c 4
 633 588 659 662 659 662 c 5
 691 660 719 658 738 658 c 4
 773 658 825 660 850 662 c 5xd0
EndSplineSet
Validated: 1
Substitution2: "'sinf' Scientific Inferiors lookup 5-1" M.sinf
Substitution2: "'sups' Superscript lookup 6-1" M.ssup
Substitution2: "'subs' Subscript lookup 1-1" M.subs
Substitution2: "'ordn' Ordinals lookup 0-1" M.ordn
EndChar

StartChar: N
Encoding: 78 78 45
Width: 771
Flags: W
HStem: -3 29<35.0312 107.285 190.871 261.808> 634 29<35.2892 110.966 520.192 591.129 674.715 746.969>
VStem: 125 48<46.7508 568.502> 609 48<166 613.249>
LayerCount: 2
Back
SplineSet
704 650 m 1x78
 704 622 l 1
 648 619 624 606 620 563 c 1
 616 532 614 487 614 394 c 2
 614 -9 l 1
 583 -9 l 1xb8
 157 515 l 1
 155 515 l 1
 155 264 l 2
 155 172 158 124 161 95 c 0
 166 44 189 32 257 28 c 1
 257 0 l 1
 20 0 l 1
 20 28 l 1
 77 31 103 44 108 93 c 0
 111 124 114 173 114 264 c 2
 114 484 l 2
 114 557 112 562 94 585 c 1
 73 610 52 618 5 622 c 1
 5 650 l 1
 152 650 l 1
 570 148 l 1
 573 148 l 1
 573 394 l 2
 573 487 570 532 566 560 c 0
 561 606 538 619 468 622 c 1
 468 650 l 1
 704 650 l 1x78
EndSplineSet
Fore
SplineSet
141 660 m 0
 171 660 203 661 217 662 c 1
 268 582 498 321 609 166 c 1
 609 545 l 2
 609 581 609 598 599 614 c 0
 593 624 539 634 523 634 c 1
 518 641 519 657 521 663 c 1
 561 661 592 658 636 658 c 0
 682 658 699 661 745 663 c 1
 748 658 750 645 745 634 c 1
 733 634 674 626 667 614 c 0
 658 599 657 584 657 546 c 2
 657 139 l 2
 657 81 658 51 660 -1 c 1
 657 -4 645 -5 642 -5 c 0
 633 -5 619 4 609 18 c 2
 173 569 l 1
 173 115 l 2
 173 79 173 62 183 46 c 0
 189 36 243 26 259 26 c 1
 264 19 263 3 261 -3 c 1
 221 -1 190 2 146 2 c 0
 100 2 83 -1 37 -3 c 1
 34 2 32 15 37 26 c 1
 49 26 108 34 115 46 c 0
 124 61 125 76 125 114 c 2
 125 548 l 2
 125 586 124 601 115 616 c 0
 108 628 49 636 37 636 c 1
 32 647 34 660 37 665 c 1
 83 663 108 660 141 660 c 0
EndSplineSet
Validated: 1
Substitution2: "'sinf' Scientific Inferiors lookup 5-1" N.sinf
Substitution2: "'sups' Superscript lookup 6-1" N.ssup
Substitution2: "'subs' Subscript lookup 1-1" N.subs
Substitution2: "'ordn' Ordinals lookup 0-1" N.ordn
EndChar

StartChar: O
Encoding: 79 79 46
Width: 744
Flags: W
HStem: -10 37<306.874 467.033> 630 37<275.613 435.715>
VStem: 47 99<214.231 447.375> 598 99<209.819 443.304>
LayerCount: 2
Fore
SplineSet
356 630 m 0
 206 630 146 484 146 350 c 0
 146 195 232 27 387 27 c 0
 537 27 598 174 598 309 c 0
 598 464 511 630 356 630 c 0
47 328 m 0
 47 515 195 667 371 667 c 0
 547 667 697 527 697 328 c 0
 697 141 547 -10 371 -10 c 0
 195 -10 47 130 47 328 c 0
EndSplineSet
Validated: 1
Substitution2: "'sinf' Scientific Inferiors lookup 5-1" O.sinf
Substitution2: "'sups' Superscript lookup 6-1" O.ssup
Substitution2: "'subs' Subscript lookup 1-1" O.subs
Substitution2: "'ordn' Ordinals lookup 0-1" O.ordn
EndChar

StartChar: P
Encoding: 80 80 47
Width: 543
Flags: W
HStem: -3 29<41.4037 112.252 210.748 281.596> 273 36<251.256 352.31> 624 35<210.209 343.867> 633 29<41.4037 112.252>
VStem: 118 87<32.7426 613.422> 425 92<382.235 553.204>
LayerCount: 2
Fore
SplineSet
517 486 m 0xec
 517 353 431 273 300 273 c 0
 277 273 263 278 255 283 c 0
 252 285 238 300 238 305 c 0
 238 309 241 312 243 313 c 1
 254 310 265 309 280 309 c 0
 360 309 425 362 425 462 c 0
 425 561 371 624 260 624 c 0xec
 248 624 214 623 210 614 c 0
 205 602 205 569 205 539 c 2
 205 116 l 2
 205 86 205 58 210 42 c 0
 213 31 267 26 279 26 c 1
 283 21 284 2 279 -3 c 1
 238 -1 201 2 162 2 c 0
 123 2 85 -1 44 -3 c 1
 39 2 40 21 44 26 c 1
 56 26 110 31 113 42 c 0
 118 58 118 86 118 116 c 2
 118 543 l 2
 118 573 118 601 113 617 c 0
 110 628 56 633 44 633 c 1
 40 638 39 657 44 662 c 1xdc
 85 660 126 657 165 657 c 0
 204 657 248 659 307 659 c 0
 398 659 517 600 517 486 c 0xec
EndSplineSet
Validated: 1
Substitution2: "'sinf' Scientific Inferiors lookup 5-1" P.sinf
Substitution2: "'sups' Superscript lookup 6-1" P.ssup
Substitution2: "'subs' Subscript lookup 1-1" P.subs
Substitution2: "'ordn' Ordinals lookup 0-1" P.ordn
EndChar

StartChar: Q
Encoding: 81 81 48
Width: 742
Flags: W
HStem: -136 55<577.579 712.391> 630 37<275.613 435.715>
VStem: 47 99<215.615 447.375> 598 99<206.994 443.304>
LayerCount: 2
Back
SplineSet
353 630 m 4
 203 630 143 484 143 350 c 4
 143 195 229 27 384 27 c 4
 534 27 595 174 595 309 c 4
 595 464 508 630 353 630 c 4
44 328 m 4
 44 515 192 667 368 667 c 4
 544 667 694 527 694 328 c 4
 694 141 544 -10 368 -10 c 4
 192 -10 44 130 44 328 c 4
EndSplineSet
Fore
SplineSet
773 -85 m 1
 718 -114 668 -136 607 -136 c 0
 500 -136 421 -33 291 0 c 0
 152 35 47 161 47 328 c 0
 47 515 195 667 371 667 c 0
 547 667 697 527 697 328 c 0
 697 175 597 46 464 4 c 1
 560 -42 580 -81 683 -81 c 0
 723 -81 747 -77 754 -75 c 1
 762 -75 773 -79 773 -85 c 1
356 630 m 0
 206 630 146 484 146 350 c 0
 146 195 232 27 387 27 c 0
 537 27 598 174 598 309 c 0
 598 464 511 630 356 630 c 0
EndSplineSet
Validated: 1
Substitution2: "'sinf' Scientific Inferiors lookup 5-1" Q.sinf
Substitution2: "'sups' Superscript lookup 6-1" Q.ssup
Substitution2: "'subs' Subscript lookup 1-1" Q.subs
Substitution2: "'ordn' Ordinals lookup 0-1" Q.ordn
EndChar

StartChar: R
Encoding: 82 82 49
Width: 616
Flags: W
HStem: -3 29<41.4037 112.252 210.748 281.596 585.565 645.782> 302 31<205 287.998> 624 35<210.209 337.339> 633 29<41.4037 112.252>
VStem: 118 87<32.7426 302 333 613.422> 415 92<415.593 556.308>
LayerCount: 2
Fore
SplineSet
165 657 m 0xdc
 204 657 248 659 307 659 c 0xec
 398 659 507 600 507 486 c 0
 507 414 438 350 369 325 c 1
 422 237 466 173 532 86 c 0
 561 48 590 30 645 26 c 1
 650 21 645 -1 644 -3 c 1
 577 -3 532 2 512 9 c 0
 498 14 471 22 447 53 c 0
 432 73 351 192 288 290 c 0
 282 299 272 302 258 302 c 0
 258 302 214 302 205 302 c 1
 205 229 205 116 205 116 c 1
 205 86 205 58 210 42 c 0
 213 31 267 26 279 26 c 1
 283 21 284 2 279 -3 c 1
 238 -1 201 2 162 2 c 0
 123 2 85 -1 44 -3 c 1
 39 2 40 21 44 26 c 1
 56 26 110 31 113 42 c 0
 118 58 118 86 118 116 c 2
 118 543 l 2
 118 573 118 601 113 617 c 0
 110 628 56 633 44 633 c 1
 40 638 39 657 44 662 c 1
 85 660 126 657 165 657 c 0xdc
205 333 m 1
 205 333 238 333 259 333 c 16
 344 333 415 385 415 462 c 0
 415 551 371 624 260 624 c 0
 248 624 214 623 210 614 c 0
 205 602 205 569 205 539 c 2
 205 333 l 1
EndSplineSet
Validated: 1
Substitution2: "'sinf' Scientific Inferiors lookup 5-1" R.sinf
Substitution2: "'sups' Superscript lookup 6-1" R.ssup
Substitution2: "'subs' Subscript lookup 1-1" R.subs
Substitution2: "'ordn' Ordinals lookup 0-1" R.ordn
EndChar

StartChar: S
Encoding: 83 83 50
Width: 501
Flags: W
HStem: -10 37<174.267 317.85> 629 37<186.66 315.265>
VStem: 45 41<118.122 183.72> 65 80<454.853 570.984> 372 87<89.4127 213.651>
LayerCount: 2
Fore
SplineSet
261 666 m 0xd8
 323 666 346 653 412 638 c 1
 424 585 424 522 424 495 c 0
 424 488 417 488 414 488 c 0
 410 488 390 488 388 498 c 0
 382 548 333 629 254 629 c 0
 166 629 145 569 145 521 c 0xd8
 145 441 219 408 285 366 c 0
 351 324 459 272 459 173 c 0
 459 63 357 -10 250 -10 c 0
 182 -10 119 9 70 19 c 1
 58 78 45 166 45 178 c 0
 45 183 54 184 61 184 c 0
 72 184 83 179 86 175 c 1xe8
 93 145 120 27 252 27 c 0
 314 27 372 68 372 146 c 0
 372 229 308 250 239 290 c 0
 162 335 65 389 65 490 c 0
 65 596 161 666 261 666 c 0xd8
EndSplineSet
Validated: 1
Substitution2: "'sinf' Scientific Inferiors lookup 5-1" S.sinf
Substitution2: "'sups' Superscript lookup 6-1" S.ssup
Substitution2: "'subs' Subscript lookup 1-1" S.subs
Substitution2: "'ordn' Ordinals lookup 0-1" S.ordn
EndChar

StartChar: T
Encoding: 84 84 51
Width: 621
Flags: W
HStem: -3 29<191.404 262.252 360.748 431.596> 624 37<92.4258 268 355 528.638>
VStem: 10 34<499.671 557.649> 268 87<32.7426 624> 577 34<499.671 557.649>
LayerCount: 2
Fore
SplineSet
506 661 m 0
 522 661 554 670 566 676 c 0
 576 681 579 681 585 678 c 1
 592 617 600 559 611 506 c 1
 608 503 600 498 591 499 c 0
 586 499 579 501 577 504 c 1
 563 574 532 624 482 624 c 2
 355 624 l 1
 355 116 l 2
 355 86 355 58 360 42 c 0
 363 31 417 26 429 26 c 1
 433 21 434 2 429 -3 c 1
 388 -1 351 2 312 2 c 0
 273 2 235 -1 194 -3 c 1
 189 2 190 21 194 26 c 1
 206 26 260 31 263 42 c 0
 268 58 268 86 268 116 c 2
 268 624 l 1
 139 624 l 2
 89 624 58 574 44 504 c 1
 42 501 35 499 30 499 c 0
 21 498 13 503 10 506 c 1
 21 559 29 617 36 678 c 1
 42 681 53 678 59 675 c 0
 71 669 99 661 115 661 c 0
 202 661 413 661 506 661 c 0
EndSplineSet
Validated: 1
Substitution2: "'sinf' Scientific Inferiors lookup 5-1" T.sinf
Substitution2: "'sups' Superscript lookup 6-1" T.ssup
Substitution2: "'subs' Subscript lookup 1-1" T.subs
Substitution2: "'ordn' Ordinals lookup 0-1" T.ordn
EndChar

StartChar: U
Encoding: 85 85 52
Width: 718
Flags: W
HStem: -4 58<281.481 473.846> 633 29<24.4037 95.2515 193.748 264.596 483.409 552.262 631.763 705.988>
VStem: 101 87<162.958 626.257> 568 48<156.61 613.249>
LayerCount: 2
Fore
SplineSet
616 276 m 2
 616 76 509 -4 353 -4 c 0
 206 -4 101 94 101 251 c 2
 101 543 l 2
 101 573 101 601 96 617 c 0
 93 628 39 633 27 633 c 1
 23 638 22 657 27 662 c 1
 68 660 106 657 145 657 c 0
 184 657 221 660 262 662 c 1
 267 657 266 638 262 633 c 1
 250 633 196 628 193 617 c 0
 188 601 188 573 188 543 c 2
 188 296 l 2
 188 131 254 54 374 54 c 0
 477 54 565 102 568 274 c 2
 568 545 l 2
 568 581 568 598 558 614 c 0
 552 624 502 634 486 634 c 1
 481 641 482 657 484 663 c 1
 524 661 551 658 595 658 c 0
 641 658 658 661 704 663 c 1
 707 658 709 645 704 634 c 1
 692 634 633 626 626 614 c 0
 617 599 616 584 616 546 c 2
 616 276 l 2
EndSplineSet
Validated: 1
Substitution2: "'sinf' Scientific Inferiors lookup 5-1" U.sinf
Substitution2: "'sups' Superscript lookup 6-1" U.ssup
Substitution2: "'subs' Subscript lookup 1-1" U.subs
Substitution2: "'ordn' Ordinals lookup 0-1" U.ordn
EndChar

StartChar: V
Encoding: 86 86 53
Width: 635
Flags: W
HStem: -2 21G<300 308.5> 633 29<-9.25244 46.078 180.204 232.788 443.074 496.757 598.896 650.577>
LayerCount: 2
Fore
SplineSet
108 657 m 0
 152 657 192 660 232 662 c 1
 234 656 234 634 230 633 c 1
 222 633 170 628 170 600 c 0
 170 566 253 348 328 139 c 0
 331 131 336 136 338 141 c 0
 400 292 435 374 494 524 c 16
 503 547 512 576 512 594 c 0
 512 626 458 633 446 633 c 1
 441 635 441 657 446 662 c 1
 483 660 515 657 552 657 c 0
 598 657 610 660 650 662 c 1
 653 657 651 633 648 633 c 1
 640 633 601 627 584 607 c 0
 572 593 549 544 534 506 c 0
 461 322 418 218 340 32 c 0
 329 5 315 -2 302 -2 c 0
 298 -2 294 10 292 14 c 0
 224 192 177 322 102 514 c 0
 87 553 73 584 56 610 c 0
 45 626 4 633 -8 633 c 1
 -10 633 -10 660 -8 662 c 1
 38 660 62 657 108 657 c 0
EndSplineSet
Validated: 1
Substitution2: "'sinf' Scientific Inferiors lookup 5-1" V.sinf
Substitution2: "'sups' Superscript lookup 6-1" V.ssup
Substitution2: "'subs' Subscript lookup 1-1" V.subs
Substitution2: "'ordn' Ordinals lookup 0-1" V.ordn
EndChar

StartChar: W
Encoding: 87 87 54
Width: 895
Flags: W
HStem: -2 21G<255 263.5 617 625.5> 633 29<-8.25244 43.2641 171.204 223.788 696.074 751.21 857.5 905.577>
LayerCount: 2
Fore
SplineSet
115 657 m 0
 159 657 183 660 223 662 c 1
 225 656 225 634 221 633 c 1
 213 633 161 628 161 600 c 1
 161 578 226 362 285 161 c 1
 287 153 293 158 295 163 c 0
 342 318 383 454 435 629 c 0
 441 648 460 662 471 662 c 0
 475 662 478 657 483 646 c 1
 490 624 578 360 645 161 c 1
 647 153 654 158 655 163 c 0
 698 316 718 383 755 524 c 0
 761 548 767 576 767 594 c 0
 767 626 711 633 699 633 c 1
 694 635 694 657 699 662 c 1
 736 660 770 657 807 657 c 0
 853 657 865 660 905 662 c 1
 908 657 906 633 903 633 c 1
 895 633 859 624 839 607 c 0
 825 595 815 572 803 531 c 0
 748 342 710 211 657 32 c 0
 652 14 632 -2 619 -2 c 0
 615 -2 610 10 609 14 c 0
 546 202 510 303 443 498 c 1
 442 501 440 502 437 499 c 1
 381 315 348 209 295 32 c 0
 290 14 270 -2 257 -2 c 0
 253 -2 248 10 247 14 c 0
 189 199 148 335 87 532 c 0
 75 572 70 595 51 613 c 0
 37 626 5 633 -7 633 c 1
 -9 633 -9 660 -7 662 c 1
 39 660 69 657 115 657 c 0
EndSplineSet
Validated: 1
Substitution2: "'sinf' Scientific Inferiors lookup 5-1" W.sinf
Substitution2: "'sups' Superscript lookup 6-1" W.ssup
Substitution2: "'subs' Subscript lookup 1-1" W.subs
Substitution2: "'ordn' Ordinals lookup 0-1" W.ordn
EndChar

StartChar: X
Encoding: 88 88 55
Width: 661
Flags: W
HStem: -3 29<-10.9543 55.8074 156.197 225.378 413.188 464.693 598.241 666.049> 633 29<28.1875 83.7014 231.181 285.161 425.979 490.261 588.621 645.393>
LayerCount: 2
Fore
SplineSet
156 657 m 0
 205 657 244 660 284 662 c 1
 286 656 287 633 282 633 c 0
 268 633 222 627 222 601 c 0
 222 593 226 583 234 571 c 2
 351 392 l 1
 411 472 478 564 493 592 c 0
 494 595 498 602 498 608 c 0
 498 614 485 632 429 632 c 1
 425 633 424 654 427 661 c 1
 467 658 497 656 534 656 c 0
 586 656 620 659 644 661 c 1
 647 656 648 638 642 632 c 1
 634 632 582 628 554 592 c 0
 478 495 444 457 372 361 c 1
 566 66 l 2
 585 37 631 26 664 26 c 1
 668 21 666 -1 665 -3 c 1
 625 -1 603 2 562 2 c 0
 506 2 472 -1 416 -3 c 1
 411 2 411 26 416 26 c 0
 427 26 474 35 474 54 c 0
 474 57 471 63 469 66 c 2
 317 300 l 1
 257 220 168 94 153 66 c 0
 152 63 148 56 148 50 c 0
 148 44 167 26 223 26 c 1
 227 20 227 0 225 -3 c 1
 188 -1 149 2 112 2 c 0
 60 2 29 -1 -11 -3 c 1
 -14 3 -11 23 -9 26 c 1
 -1 26 64 30 92 66 c 0
 168 163 222 236 294 332 c 1
 255 392 153 548 153 548 c 2
 130 584 115 601 87 617 c 0
 70 627 43 633 31 633 c 0
 26 633 26 657 31 662 c 1
 80 660 107 657 156 657 c 0
EndSplineSet
Validated: 1
Substitution2: "'sinf' Scientific Inferiors lookup 5-1" X.sinf
Substitution2: "'sups' Superscript lookup 6-1" X.ssup
Substitution2: "'subs' Subscript lookup 1-1" X.subs
Substitution2: "'ordn' Ordinals lookup 0-1" X.ordn
EndChar

StartChar: Y
Encoding: 89 89 56
Width: 591
Flags: W
HStem: -3 29<180.404 251.252 349.748 420.596> 633 29<-16.8125 38.7014 186.181 240.161 384.003 451.108 537.99 600.997>
VStem: 257 87<32.7426 318.719>
LayerCount: 2
Fore
SplineSet
111 657 m 0
 160 657 199 660 239 662 c 1
 241 656 242 633 237 633 c 0
 223 633 177 627 177 601 c 0
 177 593 182 584 189 571 c 2
 320 338 l 1
 323 334 328 337 330 342 c 1
 379 430 446 561 458 592 c 0
 459 595 461 601 461 607 c 0
 461 613 444 632 388 632 c 0
 385 632 384 642 384 648 c 0
 384 652 384 658 386 661 c 1
 423 659 452 656 489 656 c 0
 541 656 559 659 599 661 c 1
 600 658 601 653 601 648 c 0
 601 642 600 632 597 632 c 0
 589 632 532 632 509 592 c 0
 471 525 393 381 350 301 c 8
 344 290 345 279 345 270 c 0
 345 210 344 116 344 116 c 2
 344 86 344 58 349 42 c 0
 352 31 406 26 418 26 c 1
 422 21 423 2 418 -3 c 1
 377 -1 340 2 301 2 c 0
 262 2 224 -1 183 -3 c 1
 178 2 179 21 183 26 c 1
 195 26 249 31 252 42 c 0
 257 58 257 86 257 116 c 2
 257 267 l 0
 257 274 255 285 250 295 c 16
 192 400 167 442 108 548 c 0
 87 585 70 601 42 617 c 0
 25 627 -2 633 -14 633 c 0
 -19 633 -19 657 -14 662 c 1
 35 660 62 657 111 657 c 0
EndSplineSet
Validated: 1
Substitution2: "'sinf' Scientific Inferiors lookup 5-1" Y.sinf
Substitution2: "'sups' Superscript lookup 6-1" Y.ssup
Substitution2: "'subs' Subscript lookup 1-1" Y.subs
Substitution2: "'ordn' Ordinals lookup 0-1" Y.ordn
EndChar

StartChar: Z
Encoding: 90 90 57
Width: 628
Flags: W
HStem: 0 37<164.003 484.934> 624 37<151.755 457.953> 649 20G<71 84.5 518 562>
VStem: 41 37<488.927 540.301>
LayerCount: 2
Fore
SplineSet
51 0 m 0xb0
 40 0 29 8 33 14 c 2
 460 625 l 1
 214 624 l 2xd0
 146 624 100 574 78 492 c 1
 76 489 72 488 67 488 c 0
 58 488 44 493 41 496 c 1
 58 542 68 601 74 669 c 1xb0
 95 666 129 661 156 661 c 0
 245 661 350 661 350 661 c 2xd0
 434 661 476 665 560 671 c 1
 564 670 578 657 578 649 c 1
 576 641 168 51 168 51 c 2
 166 48 164 44 164 42 c 0
 164 39 168 37 173 37 c 2
 416 37 l 2
 517 37 543 122 562 172 c 0
 563 174 571 175 576 175 c 0
 586 175 596 170 600 166 c 1
 576 87 566 50 556 0 c 1
 556 0 244 0 51 0 c 0xb0
EndSplineSet
Validated: 1
Substitution2: "'sinf' Scientific Inferiors lookup 5-1" Z.sinf
Substitution2: "'sups' Superscript lookup 6-1" Z.ssup
Substitution2: "'subs' Subscript lookup 1-1" Z.subs
Substitution2: "'ordn' Ordinals lookup 0-1" Z.ordn
EndChar

StartChar: bracketleft
Encoding: 91 91 58
Width: 255
Flags: W
HStem: -144 25<194.153 252.583> 699 25<194.153 252.583>
VStem: 78 48<-98.9827 678.983>
LayerCount: 2
Fore
SplineSet
97 718 m 0
 179 718 250 724 250 724 c 1
 250 724 253 721 253 715 c 0
 253 709 249 701 243 699 c 0
 205 686 126 676 126 676 c 1
 126 -96 l 1
 126 -96 205 -106 243 -119 c 0
 249 -121 253 -129 253 -135 c 0
 253 -141 250 -144 250 -144 c 1
 250 -144 179 -138 97 -138 c 0
 79 -138 78 -116 78 -115 c 2
 78 695 l 2
 78 696 79 718 97 718 c 0
EndSplineSet
Validated: 1
Substitution2: "'sinf' Scientific Inferiors lookup 5-1" bracketleft.sinf
Substitution2: "'sups' Superscript lookup 6-1" bracketleft.ssup
Substitution2: "'smcp' Lowercase to Small Capitals lookup 2-1" bracketleft.sc
Substitution2: "'subs' Subscript lookup 1-1" bracketleft.subs
Substitution2: "'ordn' Ordinals lookup 0-1" bracketleft.ordn
EndChar

StartChar: backslash
Encoding: 92 92 59
Width: 406
Flags: W
LayerCount: 2
Fore
SplineSet
30 755 m 1
 34 757 37 761 51 761 c 0
 81 761 80 754 87 739 c 1
 372 0 l 1
 372 0 366 -38 348 -38 c 0
 338 -38 334 -35 332 -28 c 2
 30 755 l 1
EndSplineSet
Validated: 1
Substitution2: "'sinf' Scientific Inferiors lookup 5-1" backslash.sinf
Substitution2: "'sups' Superscript lookup 6-1" backslash.ssup
Substitution2: "'smcp' Lowercase to Small Capitals lookup 2-1" backslash.sc
Substitution2: "'subs' Subscript lookup 1-1" backslash.subs
Substitution2: "'ordn' Ordinals lookup 0-1" backslash.ordn
EndChar

StartChar: bracketright
Encoding: 93 93 60
Width: 256
Flags: W
HStem: -144 25<3.41714 61.8474> 699 25<3.41714 61.8474>
VStem: 130 48<-98.9827 678.983>
LayerCount: 2
Fore
SplineSet
159 718 m 0
 177 718 178 696 178 695 c 2
 178 -115 l 2
 178 -116 177 -138 159 -138 c 0
 77 -138 6 -144 6 -144 c 1
 6 -144 3 -141 3 -135 c 0
 3 -129 7 -121 13 -119 c 0
 51 -106 130 -96 130 -96 c 1
 130 676 l 1
 130 676 51 686 13 699 c 0
 7 701 3 709 3 715 c 0
 3 721 6 724 6 724 c 1
 6 724 77 718 159 718 c 0
EndSplineSet
Validated: 1
Substitution2: "'sinf' Scientific Inferiors lookup 5-1" bracketright.sinf
Substitution2: "'sups' Superscript lookup 6-1" bracketright.ssup
Substitution2: "'smcp' Lowercase to Small Capitals lookup 2-1" bracketright.sc
Substitution2: "'subs' Subscript lookup 1-1" bracketright.subs
Substitution2: "'ordn' Ordinals lookup 0-1" bracketright.ordn
EndChar

StartChar: asciicircum
Encoding: 94 94 61
Width: 381
Flags: W
HStem: 423 222
VStem: 61 250
LayerCount: 2
Fore
SplineSet
186 645 m 0
 191 645 198 640 202 632 c 0
 242 553 268 514 311 439 c 1
 311 429 302 423 296 423 c 1
 250 471 186 552 186 552 c 25
 186 552 123 471 77 423 c 1
 71 423 61 429 61 439 c 1
 104 514 131 553 171 632 c 0
 175 640 181 645 186 645 c 0
EndSplineSet
Validated: 1
Substitution2: "'smcp' Lowercase to Small Capitals lookup 2-1" asciicircum.sc
EndChar

StartChar: underscore
Encoding: 95 95 62
Width: 504
Flags: W
HStem: -43 56<16.9907 475.32>
LayerCount: 2
Fore
SplineSet
13 -33 m 1
 13 -33 18 13 28 13 c 2
 477 13 l 2
 479 13 481 12 481 8 c 0
 481 -1 477 -15 471 -37 c 0
 469 -43 465 -43 465 -43 c 1
 20 -43 l 1
 20 -43 13 -43 13 -33 c 1
EndSplineSet
Validated: 1
EndChar

StartChar: grave
Encoding: 96 96 63
Width: 331
Flags: W
HStem: 527 160
VStem: 107 168
LayerCount: 2
Fore
SplineSet
107 663 m 0
 107 668 113 687 148 687 c 0
 162 687 177 683 182 678 c 0
 219 635 275 545 275 540 c 0
 275 534 270 527 263 527 c 0
 253 527 107 624 107 663 c 0
EndSplineSet
Validated: 1
EndChar

StartChar: a
Encoding: 97 97 64
Width: 425
Flags: W
HStem: -8 54<136.481 209.996 321.5 386.237> 398 38<156.777 267.5>
VStem: 35 83<64.4927 166.568> 50 81<294.824 353.758> 272 76<67.9015 223 245.918 361.958>
LayerCount: 2
Fore
SplineSet
185 46 m 4xe8
 220 46 272 77 272 87 c 6
 272 223 l 17
 245 215 197 201 179 194 c 4
 143 180 118 154 118 116 c 4
 118 79 147 46 185 46 c 4xe8
239 436 m 4
 296 436 348 376 348 299 c 6
 348 93 l 2
 348 66 356 46 379 46 c 0
 397 46 409 57 412 59 c 1
 415 59 416 54 416 51 c 0
 416 45 414 37 411 32 c 1
 399 21 357 -6 336 -6 c 0
 307 -6 281 28 275 59 c 5
 263 47 187 -8 152 -8 c 4
 86 -8 35 42 35 107 c 4xe8
 35 148 63 179 85 187 c 4
 141 207 231 237 260 250 c 0
 270 254 272 257 272 275 c 2
 272 302 l 2
 272 347 235 398 186 398 c 4
 151 398 138 375 131 336 c 4
 125 302 109 288 84 288 c 4
 63 288 50 310 50 330 c 4xd8
 50 334 53 349 57 354 c 5
 88 383 166 436 239 436 c 4
EndSplineSet
Validated: 1
Substitution2: "'sinf' Scientific Inferiors lookup 5-1" a.sinf
Substitution2: "'sups' Superscript lookup 6-1" a.ssup
Substitution2: "'smcp' Lowercase to Small Capitals lookup 2-1" a.sc
Substitution2: "'subs' Subscript lookup 1-1" a.subs
Substitution2: "'ordn' Ordinals lookup 0-1" a.ordn
EndChar

StartChar: b
Encoding: 98 98 65
Width: 493
Flags: W
HStem: -7 34<179.935 290.746> 379 5<151 224> 628 26<0.89859 58.8281> 674 20G<124 147.5>
VStem: 68 77<53.1875 351.859 383.777 621.593> 371 84<134.316 299.421>
LayerCount: 2
Fore
SplineSet
208 -7 m 0
 193 -7 155 2 134 8 c 0
 112 14 92 22 69 14 c 1
 64 14 56 31 56 36 c 1
 65 56 68 90 68 110 c 2
 68 558 l 2
 68 571 68 598 63 610 c 0
 57 624 30 628 2 628 c 1
 1 628 -1 653 3 654 c 1
 53 659 103 675 145 694 c 1
 150 694 156 685 156 678 c 1
 156 678 145 646 145 591 c 2
 145 394 l 2
 145 389 145 379 151 384 c 0
 166 395 234 438 272 438 c 0
 392 438 455 324 455 233 c 0
 455 102 350 -7 208 -7 c 0
224 379 m 0
 198 379 159 361 150 352 c 0
 147 349 145 346 145 341 c 2
 145 98 l 2
 145 55 194 27 238 27 c 0
 310 27 371 113 371 194 c 0
 371 310 313 379 224 379 c 0
EndSplineSet
Validated: 33
Substitution2: "'sinf' Scientific Inferiors lookup 5-1" b.sinf
Substitution2: "'sups' Superscript lookup 6-1" b.ssup
Substitution2: "'smcp' Lowercase to Small Capitals lookup 2-1" b.sc
Substitution2: "'subs' Subscript lookup 1-1" b.subs
Substitution2: "'ordn' Ordinals lookup 0-1" b.ordn
EndChar

StartChar: c
Encoding: 99 99 66
Width: 418
Flags: W
HStem: -8 66<189.945 319.563> 394 44<191.28 288.075>
VStem: 37 78<132.251 288.818>
LayerCount: 2
Fore
SplineSet
380 386 m 4
 380 350 359 338 342 338 c 5
 320 338 301 364 284 375 c 4
 263 389 253 394 227 394 c 4
 174 394 115 332 115 227 c 0
 115 110 187 58 277 58 c 0
 332 58 370 94 383 109 c 1
 384 109 391 103 391 95 c 0
 391 90 388 82 385 77 c 0
 367 48 317 -8 239 -8 c 0
 118 -8 37 90 37 194 c 0
 37 340 176 438 280 438 c 4
 315 438 346 430 370 414 c 5
 374 410 380 396 380 386 c 4
EndSplineSet
Validated: 1
Substitution2: "'sinf' Scientific Inferiors lookup 5-1" c.sinf
Substitution2: "'sups' Superscript lookup 6-1" c.ssup
Substitution2: "'smcp' Lowercase to Small Capitals lookup 2-1" c.sc
Substitution2: "'subs' Subscript lookup 1-1" c.subs
Substitution2: "'ordn' Ordinals lookup 0-1" c.ordn
EndChar

StartChar: d
Encoding: 100 100 67
Width: 510
Flags: W
HStem: -8 62<190.397 287.897> 20 27<436.72 494.784> 396 42<194.789 325.598> 628 26<281.899 339.828> 674 20G<405 428.5>
VStem: 37 84<130.201 291.813> 349 77<70.6579 374.572 428.007 621.593>
LayerCount: 2
Fore
SplineSet
349 558 m 2xbe
 349 572 349 598 344 610 c 0
 338 624 311 628 283 628 c 1
 282 628 280 653 284 654 c 1
 334 659 384 675 426 694 c 1
 431 694 437 685 437 678 c 1
 437 678 426 646 426 591 c 2
 426 163 l 2
 426 124 427 79 433 65 c 0
 441 47 489 48 492 47 c 0
 494 46 495 38 495 35 c 0
 495 33 492 20 487 20 c 0x7e
 435 17 358 -8 357 -8 c 0
 351 -8 349 4 349 11 c 2
 349 46 l 2
 349 51 348 54 346 52 c 0
 331 36 261 -8 213 -8 c 0
 122 -8 37 84 37 206 c 0
 37 337 185 438 275 438 c 0
 296 438 334 432 344 428 c 1
 348 428 349 437 349 449 c 2
 349 558 l 2xbe
243 396 m 0
 167 396 121 314 121 230 c 0
 121 136 171 54 262 54 c 0xbe
 307 54 349 78 349 94 c 2
 349 347 l 2
 349 370 299 396 243 396 c 0
EndSplineSet
Validated: 1
Substitution2: "'sinf' Scientific Inferiors lookup 5-1" d.sinf
Substitution2: "'sups' Superscript lookup 6-1" d.ssup
Substitution2: "'smcp' Lowercase to Small Capitals lookup 2-1" d.sc
Substitution2: "'subs' Subscript lookup 1-1" d.subs
Substitution2: "'ordn' Ordinals lookup 0-1" d.ordn
EndChar

StartChar: e
Encoding: 101 101 68
Width: 426
Flags: W
HStem: -8 64<190.798 319.098> 248 37<114 299.487> 402 36<170.002 262.878>
VStem: 38 71<142.672 248> 300 85<285.847 368.285>
LayerCount: 2
Fore
SplineSet
109 248 m 1
 106 120 184 56 272 56 c 0
 327 56 369 94 382 109 c 1
 383 109 390 103 390 95 c 0
 390 90 387 82 384 77 c 0
 366 48 316 -8 238 -8 c 0
 120 -8 38 82 38 200 c 0
 38 334 147 438 235 438 c 0
 355 438 385 342 385 302 c 0
 385 273 380 256 361 255 c 0
 330 253 121 248 109 248 c 1
218 402 m 0
 134 402 112 285 114 285 c 1
 123 285 267 285 277 285 c 0
 289 285 299 290 300 308 c 0
 301 332 279 402 218 402 c 0
EndSplineSet
Validated: 33
Substitution2: "'sinf' Scientific Inferiors lookup 5-1" e.sinf
Substitution2: "'sups' Superscript lookup 6-1" e.ssup
Substitution2: "'smcp' Lowercase to Small Capitals lookup 2-1" e.sc
Substitution2: "'subs' Subscript lookup 1-1" e.subs
Substitution2: "'ordn' Ordinals lookup 0-1" e.ordn
EndChar

StartChar: f
Encoding: 102 102 69
Width: 300
Flags: W
HStem: -3 29<23.4037 88.2898 176.736 245.596> 391 41<38.9629 94 171 292.375> 637 60<213.109 298.419>
VStem: 94 77<32.7426 391 432 545.43>
LayerCount: 2
Fore
SplineSet
267 697 m 4
 297 697 299 695 314 685 c 5
 318 681 324 667 324 657 c 4
 324 621 297 617 284 617 c 4
 274 617 266 622 255 628 c 4
 244 634 239 637 226 637 c 4
 195 637 170 605 171 543 c 6
 171 432 l 5
 289 432 l 6
 294 432 294 427 294 421 c 4
 294 412 289 400 280 391 c 5
 171 391 l 5
 171 116 l 6
 171 86 171 58 176 42 c 4
 179 31 231 26 243 26 c 5
 247 21 248 2 243 -3 c 5
 202 -1 171 2 132 2 c 4
 93 2 67 -1 26 -3 c 5
 21 2 22 21 26 26 c 5
 38 26 86 31 89 42 c 4
 94 58 94 86 94 116 c 6
 94 391 l 5
 36 391 l 6
 33 391 31 397 31 400 c 4
 31 404 56 431 57 432 c 5
 73 432 83 432 94 432 c 5
 94 443 94 438 94 438 c 6
 94 583 206 697 267 697 c 4
EndSplineSet
Validated: 37
Substitution2: "'sinf' Scientific Inferiors lookup 5-1" f.sinf
Substitution2: "'sups' Superscript lookup 6-1" f.ssup
Substitution2: "'smcp' Lowercase to Small Capitals lookup 2-1" f.sc
Substitution2: "'subs' Subscript lookup 1-1" f.subs
Substitution2: "'ordn' Ordinals lookup 0-1" f.ordn
EndChar

StartChar: g
Encoding: 103 103 70
Width: 460
Flags: W
HStem: -227 39<156.618 294.19> -4 71<161.372 347.141> 137 30<176.303 263.226> 374 51<387.868 442.481> 409 30<170.516 259.162>
VStem: 22 79<-141.317 -60.5231> 49 77<74.2375 115.659 218.047 361.11> 307 77<216.006 366.022> 386 69<-102.937 -10>
LayerCount: 2
Fore
SplineSet
214 409 m 27xeb80
 157 409 126 349 126 292 c 27
 126 231 161 167 222 167 c 27
 277 167 307 226 307 281 c 27
 307 343 276 409 214 409 c 27xeb80
132 160 m 1
 83 187 49 239 49 288 c 0
 49 367 122 439 218 439 c 0xeb80
 261 439 291 424 309 417 c 0
 328 410 323 412 332 410 c 1
 439 425 l 1
 446 423 449 419 449 415 c 0
 449 407 436 380 426 374 c 1
 401 375 360 378 360 378 c 2
 357 378 356 377 356 375 c 1
 361 370 384 330 384 284 c 0
 384 214 311 137 215 137 c 0
 198 137 169 142 159 146 c 1
 141 136 122 118 122 102 c 0
 122 92 142 67 182 67 c 0
 248 67 256 67 300 67 c 0
 379 67 455 18 455 -38 c 0
 455 -120 334 -226 195 -227 c 0
 114 -228 22 -187 22 -105 c 0xf580
 22 -61 94 -18 128 -1 c 1
 93 10 46 42 46 92 c 1
 63 112 114 149 132 160 c 1
254 -4 m 0
 236 -4 168 -5 161 -9 c 0
 138 -22 101 -50 101 -76 c 0xe580
 101 -141 150 -188 235 -188 c 0
 304 -188 386 -136 386 -81 c 0
 386 -52 349 -4 254 -4 c 0
EndSplineSet
Validated: 33
Substitution2: "'sinf' Scientific Inferiors lookup 5-1" g.sinf
Substitution2: "'sups' Superscript lookup 6-1" g.ssup
Substitution2: "'smcp' Lowercase to Small Capitals lookup 2-1" g.sc
Substitution2: "'subs' Subscript lookup 1-1" g.subs
Substitution2: "'ordn' Ordinals lookup 0-1" g.ordn
EndChar

StartChar: h
Encoding: 104 104 71
Width: 512
Flags: W
HStem: -3 29<16.4037 81.2898 169.71 234.596 286.404 351.29 439.71 504.596> 380 58<238.761 325.184> 628 26<19.8986 77.8281> 674 20G<143 166.5>
VStem: 87 77<32.4189 347.537 363.001 621.593> 357 77<32.4189 346.845>
LayerCount: 2
Fore
SplineSet
87 558 m 6
 87 571 87 598 82 610 c 0
 76 624 49 628 21 628 c 1
 20 628 18 653 22 654 c 1
 72 659 122 675 164 694 c 1
 169 694 175 685 175 678 c 1
 175 678 164 646 164 591 c 2
 164 591 164 373 164 365 c 0
 164 364 165 363 167 363 c 0
 168 363 169 364 170 365 c 0
 190 387 257 438 305 438 c 0
 413 438 434 371 434 226 c 2
 434 116 l 2
 434 86 434 58 439 42 c 0
 442 31 490 26 502 26 c 1
 506 21 507 2 502 -3 c 1
 461 -1 434 2 395 2 c 0
 356 2 330 -1 289 -3 c 1
 284 2 285 21 289 26 c 1
 301 26 349 31 352 42 c 0
 357 58 357 86 357 116 c 2
 357 216 l 2
 357 340 337 380 259 380 c 0
 222 380 164 334 164 325 c 2
 164 116 l 2
 164 86 164 58 169 42 c 0
 172 31 220 26 232 26 c 1
 236 21 237 2 232 -3 c 1
 191 -1 164 2 125 2 c 0
 86 2 60 -1 19 -3 c 1
 14 2 15 21 19 26 c 1
 31 26 79 31 82 42 c 0
 87 58 87 86 87 116 c 2
 87 558 l 6
EndSplineSet
Validated: 1
Substitution2: "'sinf' Scientific Inferiors lookup 5-1" h.sinf
Substitution2: "'sups' Superscript lookup 6-1" h.ssup
Substitution2: "'smcp' Lowercase to Small Capitals lookup 2-1" h.sc
Substitution2: "'subs' Subscript lookup 1-1" h.subs
Substitution2: "'ordn' Ordinals lookup 0-1" h.ordn
EndChar

StartChar: i
Encoding: 105 105 72
Width: 264
Flags: W
HStem: -3 29<30.4037 95.2898 183.71 248.596> 368 26<29.1812 90.4485> 416 20G<154 176.5> 543 100<90.4375 173.562>
VStem: 82 100<551.438 634.562> 101 77<32.4189 361.708>
LayerCount: 2
Fore
SplineSet
178 358 m 2xf4
 178 116 l 2
 178 86 178 58 183 42 c 0
 186 31 234 26 246 26 c 1
 250 21 251 2 246 -3 c 1
 205 -1 178 2 139 2 c 0
 100 2 74 -1 33 -3 c 1
 28 2 29 21 33 26 c 1
 45 26 93 31 96 42 c 0
 101 58 101 86 101 116 c 2
 101 298 l 2
 101 311 101 338 96 350 c 0
 89 367 38 368 31 368 c 1
 29 370 27 389 31 394 c 1
 82 401 134 415 174 436 c 1
 179 436 185 425 185 420 c 1
 184 413 178 368 178 358 c 2xf4
82 593 m 0xf8
 82 621 104 643 132 643 c 0
 160 643 182 621 182 593 c 0
 182 565 160 543 132 543 c 0
 104 543 82 565 82 593 c 0xf8
EndSplineSet
Validated: 1
Substitution2: "'sinf' Scientific Inferiors lookup 5-1" i.sinf
Substitution2: "'sups' Superscript lookup 6-1" i.ssup
Substitution2: "'smcp' Lowercase to Small Capitals lookup 2-1" i.sc
Substitution2: "'subs' Subscript lookup 1-1" i.subs
Substitution2: "'ordn' Ordinals lookup 0-1" i.ordn
EndChar

StartChar: j
Encoding: 106 106 73
Width: 235
Flags: W
HStem: 368 26<16.1812 77.4485> 416 20G<141 163.5> 543 100<70.4375 153.562>
VStem: 62 100<551.438 634.562> 88 77<-68.5639 361.547>
LayerCount: 2
Fore
SplineSet
165 358 m 6xe8
 165 68 l 1
 165 -124 60 -203 -8 -231 c 1
 -13 -228 -19 -221 -21 -216 c 0
 -22 -214 -22 -210 -21 -209 c 1
 36 -168 88 -121 88 45 c 2
 88 298 l 2
 88 311 88 338 83 350 c 0
 76 367 25 368 18 368 c 1
 16 370 14 389 18 394 c 1
 69 401 121 415 161 436 c 1
 166 436 172 425 172 420 c 1
 171 413 165 371 165 358 c 6xe8
62 593 m 0xf0
 62 621 84 643 112 643 c 0
 140 643 162 621 162 593 c 0
 162 565 140 543 112 543 c 0
 84 543 62 565 62 593 c 0xf0
EndSplineSet
Validated: 1
Substitution2: "'sinf' Scientific Inferiors lookup 5-1" j.sinf
Substitution2: "'sups' Superscript lookup 6-1" j.ssup
Substitution2: "'smcp' Lowercase to Small Capitals lookup 2-1" j.sc
Substitution2: "'subs' Subscript lookup 1-1" j.subs
Substitution2: "'ordn' Ordinals lookup 0-1" j.ordn
EndChar

StartChar: k
Encoding: 107 107 74
Width: 512
Flags: W
HStem: -3 29<16.4037 81.2898 169.71 234.596 439.499 510.505> 396 29<288.188 337.56 415.283 478.065> 628 26<19.8986 77.8281> 674 20G<143 166.5>
VStem: 87 77<32.4189 204 235 621.593>
LayerCount: 2
Fore
SplineSet
509 26 m 5
 511 23 513 7 510 2 c 5
 503 -1 472 -4 445 -4 c 4
 386 -4 337 24 322 40 c 6
 322 40 236 133 179 195 c 4
 175 200 164 204 164 204 c 5
 164 116 l 6
 164 86 164 58 169 42 c 4
 172 31 220 26 232 26 c 5
 236 21 237 2 232 -3 c 5
 191 -1 164 2 125 2 c 4
 86 2 60 -1 19 -3 c 5
 14 2 15 21 19 26 c 5
 31 26 79 31 82 42 c 4
 87 58 87 86 87 116 c 6
 87 558 l 6
 87 572 87 598 82 610 c 4
 76 624 49 628 21 628 c 5
 20 628 18 653 22 654 c 5
 72 659 122 675 164 694 c 5
 169 694 175 685 175 678 c 5
 175 678 164 646 164 591 c 6
 164 235 l 5
 181 241 212 267 246 296 c 4
 298 340 338 369 338 379 c 4
 338 394 299 395 290 396 c 5
 285 403 287 423 292 425 c 5
 321 422 356 420 388 420 c 4
 422 420 454 422 476 425 c 5
 480 419 479 400 476 396 c 5
 462 396 420 388 399 373 c 4
 388 365 296 299 237 249 c 5
 312 168 393 73 417 53 c 4
 443 32 483 25 509 26 c 5
EndSplineSet
Validated: 33
Substitution2: "'sinf' Scientific Inferiors lookup 5-1" k.sinf
Substitution2: "'sups' Superscript lookup 6-1" k.ssup
Substitution2: "'smcp' Lowercase to Small Capitals lookup 2-1" k.sc
Substitution2: "'subs' Subscript lookup 1-1" k.subs
Substitution2: "'ordn' Ordinals lookup 0-1" k.ordn
EndChar

StartChar: l
Encoding: 108 108 75
Width: 249
Flags: W
HStem: -3 29<16.4037 81.2898 169.71 234.596> 628 26<19.8986 77.8281> 674 20G<143 166.5>
VStem: 87 77<32.4189 621.593>
LayerCount: 2
Fore
SplineSet
22 654 m 1
 72 659 122 675 164 694 c 1
 169 694 175 685 175 678 c 1
 175 678 164 646 164 591 c 2
 164 116 l 2
 164 86 164 58 169 42 c 0
 172 31 220 26 232 26 c 1
 236 21 237 2 232 -3 c 1
 191 -1 164 2 125 2 c 0
 86 2 60 -1 19 -3 c 1
 14 2 15 21 19 26 c 1
 31 26 79 31 82 42 c 0
 87 58 87 86 87 116 c 2
 87 558 l 2
 87 572 87 598 82 610 c 0
 76 624 49 628 21 628 c 1
 20 628 18 653 22 654 c 1
EndSplineSet
Validated: 1
Substitution2: "'sinf' Scientific Inferiors lookup 5-1" l.sinf
Substitution2: "'sups' Superscript lookup 6-1" l.ssup
Substitution2: "'smcp' Lowercase to Small Capitals lookup 2-1" l.sc
Substitution2: "'subs' Subscript lookup 1-1" l.subs
Substitution2: "'ordn' Ordinals lookup 0-1" l.ordn
EndChar

StartChar: m
Encoding: 109 109 76
Width: 784
Flags: W
HStem: -3 29<30.4037 95.2898 183.71 248.596 294.404 359.29 447.71 512.596 558.404 623.29 711.71 776.596> 368 26<29.1812 90.4485> 380 58<245.714 334.397 509.548 597.39>
VStem: 101 77<32.4189 351.547> 365 77<32.4189 347.073> 629 77<32.4189 348.119>
CounterMasks: 1 1c
LayerCount: 2
Fore
SplineSet
179 372 m 0xdc
 179 371 179 368 181 368 c 0xdc
 182 368 183 369 184 370 c 0
 209 391 262 438 316 438 c 0
 375 438 414 415 430 355 c 1
 474 395 529 438 577 438 c 0
 685 438 706 371 706 226 c 2
 706 116 l 2
 706 86 706 58 711 42 c 0
 714 31 762 26 774 26 c 1
 778 21 779 2 774 -3 c 1
 733 -1 706 2 667 2 c 0
 628 2 602 -1 561 -3 c 1
 556 2 557 21 561 26 c 1
 573 26 621 31 624 42 c 0
 629 58 629 86 629 116 c 2
 629 223 l 2
 629 322 616 380 535 380 c 0
 486 380 437 330 437 323 c 0
 437 322 438 312 438 310 c 0
 441 291 442 257 442 239 c 2
 442 116 l 2
 442 86 442 58 447 42 c 0
 450 31 498 26 510 26 c 1
 514 21 515 2 510 -3 c 1
 469 -1 442 2 403 2 c 0
 364 2 338 -1 297 -3 c 1
 292 2 293 21 297 26 c 1
 309 26 357 31 360 42 c 0
 365 58 365 86 365 116 c 2
 365 218 l 2
 365 340 343 380 271 380 c 0xbc
 226 380 178 338 178 325 c 2
 178 116 l 2
 178 86 178 58 183 42 c 0
 186 31 234 26 246 26 c 1
 250 21 251 2 246 -3 c 1
 205 -1 178 2 139 2 c 0
 100 2 74 -1 33 -3 c 1
 28 2 29 21 33 26 c 1
 45 26 93 31 96 42 c 0
 101 58 101 86 101 116 c 2
 101 298 l 2
 101 311 101 338 96 350 c 0
 89 367 38 368 31 368 c 1
 29 370 27 389 31 394 c 1
 82 401 134 415 174 436 c 1
 179 436 185 425 185 420 c 1
 184 413 179 380 179 372 c 0xdc
EndSplineSet
Validated: 1
Substitution2: "'sinf' Scientific Inferiors lookup 5-1" m.sinf
Substitution2: "'sups' Superscript lookup 6-1" m.ssup
Substitution2: "'smcp' Lowercase to Small Capitals lookup 2-1" m.sc
Substitution2: "'subs' Subscript lookup 1-1" m.subs
Substitution2: "'ordn' Ordinals lookup 0-1" m.ordn
EndChar

StartChar: n
Encoding: 110 110 77
Width: 526
Flags: W
HStem: -3 29<30.4037 95.2898 183.71 248.596 300.404 365.29 453.71 518.596> 368 26<29.1812 90.4485> 380 58<252.761 339.184>
VStem: 101 77<32.4189 347.537> 371 77<32.4189 346.845>
LayerCount: 2
Fore
SplineSet
319 438 m 0xb8
 427 438 448 371 448 226 c 2
 448 116 l 2
 448 86 448 58 453 42 c 0
 456 31 504 26 516 26 c 1
 520 21 521 2 516 -3 c 1
 475 -1 448 2 409 2 c 0
 370 2 344 -1 303 -3 c 1
 298 2 299 21 303 26 c 1
 315 26 363 31 366 42 c 0
 371 58 371 86 371 116 c 2
 371 216 l 2
 371 340 351 380 273 380 c 0xb8
 236 380 178 334 178 325 c 2
 178 116 l 2
 178 86 178 58 183 42 c 0
 186 31 234 26 246 26 c 1
 250 21 251 2 246 -3 c 1
 205 -1 178 2 139 2 c 0
 100 2 74 -1 33 -3 c 1
 28 2 29 21 33 26 c 1
 45 26 93 31 96 42 c 0
 101 58 101 86 101 116 c 2
 101 298 l 2
 101 311 101 338 96 350 c 0
 89 367 38 368 31 368 c 1
 29 370 27 389 31 394 c 1xd8
 82 401 134 415 174 436 c 1
 179 436 185 425 185 420 c 1
 184 413 179 375 179 367 c 0
 179 366 179 363 181 363 c 0
 182 363 183 364 184 365 c 0
 204 387 271 438 319 438 c 0xb8
EndSplineSet
Validated: 1
Substitution2: "'sinf' Scientific Inferiors lookup 5-1" n.sinf
Substitution2: "'sups' Superscript lookup 6-1" n.ssup
Substitution2: "'smcp' Lowercase to Small Capitals lookup 2-1" n.sc
Substitution2: "'subs' Subscript lookup 1-1" n.subs
Substitution2: "'ordn' Ordinals lookup 0-1" n.ordn
EndChar

StartChar: o
Encoding: 111 111 78
Width: 505
Flags: W
HStem: -7 33<211.699 318.24> 406 33<187.214 293.584>
VStem: 39 86<120.834 313.837> 380 86<116.337 309.213>
LayerCount: 2
Fore
SplineSet
241 406 m 4
 156 406 125 319 125 233 c 4
 125 136 174 26 264 26 c 4
 349 26 380 113 380 198 c 4
 380 295 330 406 241 406 c 4
252 439 m 4
 384 439 466 346 466 221 c 4
 466 92 375 -7 254 -7 c 4
 122 -7 39 88 39 213 c 4
 39 342 131 439 252 439 c 4
EndSplineSet
Validated: 1
Substitution2: "'sinf' Scientific Inferiors lookup 5-1" o.sinf
Substitution2: "'sups' Superscript lookup 6-1" o.ssup
Substitution2: "'smcp' Lowercase to Small Capitals lookup 2-1" o.sc
Substitution2: "'subs' Subscript lookup 1-1" o.subs
Substitution2: "'ordn' Ordinals lookup 0-1" o.ordn
EndChar

StartChar: p
Encoding: 112 112 79
Width: 505
Flags: W
HStem: -226 29<13.4037 78.2898 166.71 231.596> -8 35<194.172 310.721> 368 26<12.1812 73.4485> 379 59<218.78 314.97>
VStem: 84 77<-190.581 2.99634 52.6571 361.677> 385 84<139.167 301.166>
LayerCount: 2
Fore
SplineSet
288 438 m 4xdc
 412 438 469 318 469 232 c 4
 469 103 348 -8 235 -8 c 0
 209 -8 181 -2 165 3 c 1
 165 3 161 -2 161 -10 c 2
 161 -107 l 2
 161 -137 161 -165 166 -181 c 0
 169 -192 217 -197 229 -197 c 1
 233 -202 234 -221 229 -226 c 1
 188 -224 161 -221 122 -221 c 0
 83 -221 57 -224 16 -226 c 1
 11 -221 12 -202 16 -197 c 1
 28 -197 76 -192 79 -181 c 0
 84 -165 84 -137 84 -107 c 2
 84 298 l 2
 84 311 84 338 79 350 c 0
 72 367 21 368 14 368 c 1
 12 370 10 389 14 394 c 1xec
 65 401 117 415 157 436 c 1
 162 436 168 425 168 420 c 1
 167 413 161 391 161 383 c 0
 161 382 161 379 163 379 c 4
 164 379 165 380 166 381 c 4
 191 402 248 438 288 438 c 4xdc
245 379 m 4xdc
 204 379 161 354 161 340 c 6
 161 100 l 2
 161 48 219 27 254 27 c 0
 337 27 385 114 385 195 c 4
 385 314 321 379 245 379 c 4xdc
EndSplineSet
Validated: 1
Substitution2: "'sinf' Scientific Inferiors lookup 5-1" p.sinf
Substitution2: "'sups' Superscript lookup 6-1" p.ssup
Substitution2: "'smcp' Lowercase to Small Capitals lookup 2-1" p.sc
Substitution2: "'subs' Subscript lookup 1-1" p.subs
Substitution2: "'ordn' Ordinals lookup 0-1" p.ordn
EndChar

StartChar: q
Encoding: 113 113 80
Width: 494
Flags: W
HStem: -227 29<276.404 341.29 429.71 494.596> -7 60<192.146 285.669> 402 36<204.474 314.856>
VStem: 37 84<129.217 289.501> 347 77<-191.581 50.178 68.9193 376.812>
LayerCount: 2
Fore
SplineSet
347 332 m 2
 347 375 298 402 254 402 c 0
 160 402 121 296 121 235 c 0
 121 117 184 53 267 53 c 0
 307 53 347 78 347 93 c 2
 347 332 l 2
403 413 m 0
 409 413 417 414 423 416 c 1
 429 416 436 399 436 394 c 1
 427 374 424 340 424 320 c 2
 424 -108 l 2
 424 -138 424 -166 429 -182 c 0
 432 -193 480 -198 492 -198 c 1
 496 -203 497 -222 492 -227 c 1
 451 -225 424 -222 385 -222 c 0
 346 -222 320 -225 279 -227 c 1
 274 -222 275 -203 279 -198 c 1
 291 -198 339 -193 342 -182 c 0
 347 -166 347 -138 347 -108 c 2
 347 40 l 2
 347 45 345 54 340 50 c 0
 325 37 258 -7 215 -7 c 0
 100 -7 37 110 37 199 c 0
 37 336 177 438 284 438 c 0
 314 438 370 413 403 413 c 0
EndSplineSet
Validated: 1
Substitution2: "'sinf' Scientific Inferiors lookup 5-1" q.sinf
Substitution2: "'sups' Superscript lookup 6-1" q.ssup
Substitution2: "'smcp' Lowercase to Small Capitals lookup 2-1" q.sc
Substitution2: "'subs' Subscript lookup 1-1" q.subs
Substitution2: "'ordn' Ordinals lookup 0-1" q.ordn
EndChar

StartChar: r
Encoding: 114 114 81
Width: 378
Flags: W
HStem: -3 29<30.4037 95.2898 183.857 271.596> 360 77<248.368 309.624> 368 26<29.1812 90.4485>
VStem: 101 77<33.7634 321.777 333.004 361.708>
LayerCount: 2
Fore
SplineSet
178 340 m 0xb0
 178 339 178 333 180 333 c 0
 181 333 181 334 182 335 c 0
 204 375 255 437 300 437 c 0
 326 437 352 424 361 408 c 1
 363 402 365 392 365 381 c 0
 365 344 342 329 332 329 c 0
 318 329 306 341 295 348 c 0
 286 354 276 360 258 360 c 0xd0
 215 360 178 293 178 270 c 2
 178 116 l 2
 178 86 178 58 183 42 c 0
 186 31 257 26 269 26 c 1
 273 21 274 2 269 -3 c 1
 228 -1 184 2 145 2 c 0
 106 2 74 -1 33 -3 c 1
 28 2 29 21 33 26 c 1
 45 26 93 31 96 42 c 0
 101 58 101 86 101 116 c 2
 101 298 l 6
 101 311 101 338 96 350 c 4
 89 367 38 368 31 368 c 5
 29 370 27 389 31 394 c 5
 82 401 134 415 174 436 c 5
 179 436 185 425 185 420 c 5
 184 413 178 348 178 340 c 0xb0
EndSplineSet
Validated: 1
Substitution2: "'sinf' Scientific Inferiors lookup 5-1" r.sinf
Substitution2: "'sups' Superscript lookup 6-1" r.ssup
Substitution2: "'smcp' Lowercase to Small Capitals lookup 2-1" r.sc
Substitution2: "'subs' Subscript lookup 1-1" r.subs
Substitution2: "'ordn' Ordinals lookup 0-1" r.ordn
EndChar

StartChar: s
Encoding: 115 115 82
Width: 366
Flags: W
HStem: -11 33<124.836 222.863> 405 32<146.177 235.597>
VStem: 40 27<85.9752 117.421> 49 77<291.129 381.027> 247 81<55.4132 144.678> 281 27<309.164 347.416>
LayerCount: 2
Fore
SplineSet
194 437 m 4xd8
 233 437 252 429 296 424 c 1
 303 393 307 350 308 314 c 0
 308 310 303 309 298 309 c 0
 293 309 286 310 281 314 c 1
 271 351 240 405 197 405 c 0
 149 405 126 379 126 343 c 0xd4
 126 291 168 276 213 249 c 0
 258 222 328 190 328 127 c 0
 328 46 255 -11 174 -11 c 0
 128 -11 101 0 57 8 c 1
 49 29 40 86 40 112 c 1
 44 115 53 118 58 118 c 0
 61 118 64 118 67 116 c 1xe8
 79 74 122 22 175 22 c 0
 216 22 247 47 247 93 c 0
 247 154 183 174 125 208 c 0
 85 231 49 262 49 315 c 0
 49 389 120 437 194 437 c 4xd8
EndSplineSet
Validated: 1
Substitution2: "'sinf' Scientific Inferiors lookup 5-1" s.sinf
Substitution2: "'sups' Superscript lookup 6-1" s.ssup
Substitution2: "'smcp' Lowercase to Small Capitals lookup 2-1" s.sc
Substitution2: "'subs' Subscript lookup 1-1" s.subs
Substitution2: "'ordn' Ordinals lookup 0-1" s.ordn
EndChar

StartChar: t
Encoding: 116 116 83
Width: 306
Flags: W
HStem: -7 54<175.456 251.292> 391 41<26.9629 82 159 291.375>
VStem: 82 77<62.1149 391 432 519.684>
LayerCount: 2
Fore
SplineSet
159 391 m 1
 159 129 l 2
 159 76 181 47 225 47 c 0
 255 47 283 65 290 70 c 1
 292 69 293 66 293 63 c 0
 293 57 290 49 289 48 c 0
 275 32 235 -7 186 -7 c 4
 135 -7 82 15 82 101 c 2
 82 391 l 1
 24 391 l 2
 21 391 19 397 19 400 c 0
 19 404 44 431 45 432 c 1
 61 432 71 432 82 432 c 1
 82 443 82 487 82 495 c 1
 101 517 141 559 143 562 c 1
 148 567 159 567 159 563 c 2
 159 432 l 1
 288 432 l 2
 293 432 293 427 293 421 c 0
 293 412 288 400 279 391 c 1
 159 391 l 1
EndSplineSet
Validated: 1
Substitution2: "'sinf' Scientific Inferiors lookup 5-1" t.sinf
Substitution2: "'sups' Superscript lookup 6-1" t.ssup
Substitution2: "'smcp' Lowercase to Small Capitals lookup 2-1" t.sc
Substitution2: "'subs' Subscript lookup 1-1" t.subs
Substitution2: "'ordn' Ordinals lookup 0-1" t.ordn
EndChar

StartChar: u
Encoding: 117 117 84
Width: 509
Flags: W
HStem: -7 56<192.956 283.265> 20 27<434.72 492.58> 390 26<11.7989 63.4209 280.799 332.421> 416 20G<133 153.5 402 422.5>
VStem: 78 77<92.1211 382.167> 347 77<73.0835 382.167>
LayerCount: 2
Fore
SplineSet
347 316 m 2x9c
 347 329 347 355 339 370 c 0
 329 388 296 390 283 390 c 1
 280 393 279 411 283 416 c 1xac
 334 418 384 425 420 436 c 1
 425 436 431 421 431 416 c 1
 427 408 424 380 424 351 c 2
 424 141 l 2
 424 130 425 93 431 65 c 0
 436 46 487 48 490 47 c 0
 492 46 493 39 493 36 c 0
 493 34 490 20 485 20 c 0x5c
 433 17 356 -8 355 -8 c 0
 350 -8 347 1 347 8 c 2
 347 54 l 2
 347 59 345 59 345 59 c 1
 317 29 254 -7 203 -7 c 0
 97 -7 78 108 78 192 c 2
 78 316 l 2
 78 329 78 355 70 370 c 0
 60 388 27 390 14 390 c 1
 11 393 10 411 14 416 c 1xac
 65 418 115 425 151 436 c 1
 156 436 162 421 162 416 c 1
 158 408 155 380 155 351 c 2
 155 204 l 2
 155 98 185 49 255 49 c 0
 299 49 347 80 347 104 c 2
 347 316 l 2x9c
EndSplineSet
Validated: 1
Substitution2: "'sinf' Scientific Inferiors lookup 5-1" u.sinf
Substitution2: "'sups' Superscript lookup 6-1" u.ssup
Substitution2: "'smcp' Lowercase to Small Capitals lookup 2-1" u.sc
Substitution2: "'subs' Subscript lookup 1-1" u.subs
Substitution2: "'ordn' Ordinals lookup 0-1" u.ordn
EndChar

StartChar: v
Encoding: 118 118 85
Width: 470
Flags: W
HStem: -11 21G<226 231> 401 29<-0.691895 51.9509 148.473 200.887 293.188 346.061 421.157 470.647>
LayerCount: 2
Fore
SplineSet
101 425 m 0
 139 425 161 428 201 430 c 1
 203 424 202 401 197 401 c 1
 190 401 148 399 148 384 c 0
 148 383 148 382 149 380 c 0
 259 110 l 1
 259 110 310 243 348 337 c 0
 353 349 354 362 354 369 c 0
 354 389 330 401 296 401 c 1
 291 401 291 425 296 430 c 1
 327 428 336 425 377 425 c 0
 415 425 430 428 470 430 c 1
 474 424 471 401 467 401 c 1
 459 401 416 395 404 367 c 0
 345 226 312 148 254 6 c 0
 251 -2 234 -11 228 -11 c 0
 224 -11 220 -9 219 -7 c 0
 154 147 111 268 56 381 c 0
 46 402 13 401 1 401 c 1
 -1 406 -3 420 1 430 c 1
 42 428 60 425 101 425 c 0
EndSplineSet
Validated: 33
Substitution2: "'sinf' Scientific Inferiors lookup 5-1" v.sinf
Substitution2: "'sups' Superscript lookup 6-1" v.ssup
Substitution2: "'smcp' Lowercase to Small Capitals lookup 2-1" v.sc
Substitution2: "'subs' Subscript lookup 1-1" v.subs
Substitution2: "'ordn' Ordinals lookup 0-1" v.ordn
EndChar

StartChar: w
Encoding: 119 119 86
Width: 717
Flags: W
HStem: -11 21G<224 231.5 479 485> 401 29<-0.755615 49.9044 150.786 200.716 266.074 309.057 418.353 465.307 537.229 592.354 667.478 719.257>
VStem: 337 76<304.59 379.109>
LayerCount: 2
Fore
SplineSet
100 425 m 0
 138 425 160 428 200 430 c 1
 202 424 202 403 198 401 c 1
 190 401 148 399 148 378 c 0
 148 371 185 284 256 117 c 1
 307 246 337 318 337 327 c 0
 337 334 326 363 313 382 c 0
 302 398 281 401 269 401 c 1
 264 404 264 425 269 430 c 1
 310 428 319 425 360 425 c 0
 398 425 424 428 464 430 c 1
 466 424 467 405 463 401 c 1
 432 401 413 393 413 369 c 1
 413 356 441 290 507 120 c 1
 557 244 600 348 600 368 c 0
 600 397 563 399 540 401 c 1
 536 404 535 425 540 430 c 1
 581 428 586 425 627 425 c 0
 665 425 679 428 719 430 c 1
 720 427 722 406 716 401 c 1
 708 401 660 395 648 365 c 0
 593 226 561 145 503 6 c 0
 500 -2 488 -11 482 -11 c 0
 476 -11 471 -9 470 -7 c 2
 359 282 l 1
 251 8 l 2
 250 5 237 -11 226 -11 c 0
 222 -11 218 -9 217 -7 c 0
 155 148 121 230 55 379 c 0
 46 400 13 401 1 401 c 1
 -2 407 -2 424 1 430 c 1
 42 428 59 425 100 425 c 0
EndSplineSet
Validated: 1
Substitution2: "'sinf' Scientific Inferiors lookup 5-1" w.sinf
Substitution2: "'sups' Superscript lookup 6-1" w.ssup
Substitution2: "'smcp' Lowercase to Small Capitals lookup 2-1" w.sc
Substitution2: "'subs' Subscript lookup 1-1" w.subs
Substitution2: "'ordn' Ordinals lookup 0-1" w.ordn
EndChar

StartChar: x
Encoding: 120 120 87
Width: 472
Flags: W
HStem: -3 29<8.8831 74.2715 146.187 200.125 258.633 302.05 411.024 466.774> 401 29<18.0511 81.0555 180.273 222.953 263.018 320.735 378.02 448.997>
LayerCount: 2
Back
SplineSet
587 380 m 4
 528 239 530 244 493 157 c 28
442 123 m 5
 442 123 493 256 531 350 c 4
 536 362 537 375 537 382 c 4
EndSplineSet
Fore
SplineSet
121 425 m 0
 162 425 181 428 222 430 c 1
 223 426 223 423 223 418 c 0
 223 411 222 401 220 401 c 0
 204 401 180 399 180 384 c 0
 180 381 182 377 185 372 c 2
 251 267 l 1
 278 309 322 362 322 382 c 0
 322 402 271 399 266 401 c 0
 264 402 263 410 263 417 c 0
 263 422 263 426 266 430 c 1
 307 428 326 425 367 425 c 0
 403 425 412 428 447 430 c 1
 448 425 449 422 449 416 c 0
 449 410 448 401 446 401 c 0
 412 397 382 396 369 379 c 0
 333 329 278 251 269 240 c 1
 279 225 389 62 389 62 c 2
 409 33 437 26 466 26 c 1
 468 26 468 1 465 -3 c 1
 428 -1 408 2 371 2 c 0
 328 2 303 -1 260 -3 c 1
 257 4 258 26 261 26 c 1
 275 27 303 32 303 44 c 0
 303 46 302 48 301 50 c 2
 301 50 249 135 222 175 c 1
 203 146 178 111 150 67 c 0
 145 59 144 53 144 48 c 0
 144 29 176 28 199 26 c 1
 201 26 202 2 198 -3 c 1
 159 -1 142 2 103 2 c 0
 65 2 47 -1 9 -3 c 1
 7 5 8 21 11 26 c 1
 43 31 83 34 106 65 c 2
 106 65 199 199 204 206 c 1
 196 218 88 379 88 379 c 2
 74 400 41 401 21 401 c 0
 19 401 18 416 18 416 c 1
 18 416 20 426 22 430 c 1
 61 428 82 425 121 425 c 0
EndSplineSet
Validated: 1
Substitution2: "'sinf' Scientific Inferiors lookup 5-1" x.sinf
Substitution2: "'sups' Superscript lookup 6-1" x.ssup
Substitution2: "'smcp' Lowercase to Small Capitals lookup 2-1" x.sc
Substitution2: "'subs' Subscript lookup 1-1" x.subs
Substitution2: "'ordn' Ordinals lookup 0-1" x.ordn
EndChar

StartChar: y
Encoding: 121 121 88
Width: 467
Flags: W
HStem: -228 72<45.9989 128.364> 401 29<-0.948914 53.9509 150.473 202.887 291.188 344.061 419.157 468.647>
LayerCount: 2
Fore
SplineSet
103 425 m 0
 141 425 163 428 203 430 c 1
 205 424 204 401 199 401 c 0
 192 401 150 399 150 384 c 0
 150 383 150 382 151 380 c 0
 257 110 l 1
 257 110 308 243 346 337 c 0
 351 349 352 362 352 369 c 0
 352 389 328 401 294 401 c 1
 289 401 289 425 294 430 c 1
 325 428 334 425 375 425 c 0
 413 425 428 428 468 430 c 1
 472 424 469 401 465 401 c 1
 457 401 414 395 402 367 c 0
 343 226 310 148 252 6 c 0
 227 -55 201 -120 170 -169 c 0
 154 -194 117 -228 88 -228 c 0
 69 -228 42 -221 42 -185 c 0
 42 -173 49 -162 54 -156 c 1
 101 -156 136 -136 167 -99 c 0
 184 -79 212 -9 215 2 c 1
 159 145 117 253 58 381 c 0
 48 402 15 401 3 401 c 0
 1 401 -1 408 -1 414 c 0
 -1 420 1 428 3 430 c 1
 44 428 62 425 103 425 c 0
EndSplineSet
Validated: 33
Substitution2: "'sinf' Scientific Inferiors lookup 5-1" y.sinf
Substitution2: "'sups' Superscript lookup 6-1" y.ssup
Substitution2: "'smcp' Lowercase to Small Capitals lookup 2-1" y.sc
Substitution2: "'subs' Subscript lookup 1-1" y.subs
Substitution2: "'ordn' Ordinals lookup 0-1" y.ordn
EndChar

StartChar: z
Encoding: 122 122 89
Width: 442
Flags: W
HStem: 0 35<133 331.447> 397 34<103.374 287.509> 419 20G<54.5 145 374.5 397.5>
VStem: 383 33<89.5612 128.954>
LayerCount: 2
Fore
SplineSet
145 431 m 2xd0
 273 431 l 2xd0
 327 431 354 434 395 439 c 1xb0
 400 431 398 420 398 415 c 1
 398 415 133 38 133 35 c 1
 138 35 273 35 273 35 c 2
 334 35 371 82 383 125 c 0
 384 130 386 131 390 131 c 0
 398 131 411 125 416 119 c 1
 416 119 386 46 371 0 c 1
 313 0 177 0 46 0 c 1
 39 2 31 12 31 20 c 0
 31 21 31 26 32 27 c 2
 289 396 l 1
 149 397 l 2xd0
 92 397 81 345 73 327 c 0
 71 323 61 318 51 318 c 0
 45 318 40 319 40 321 c 1
 44 336 53 386 56 439 c 1xb0
 56 439 109 431 145 431 c 2xd0
EndSplineSet
Validated: 1
Substitution2: "'sinf' Scientific Inferiors lookup 5-1" z.sinf
Substitution2: "'sups' Superscript lookup 6-1" z.ssup
Substitution2: "'smcp' Lowercase to Small Capitals lookup 2-1" z.sc
Substitution2: "'subs' Subscript lookup 1-1" z.subs
Substitution2: "'ordn' Ordinals lookup 0-1" z.ordn
EndChar

StartChar: braceleft
Encoding: 123 123 90
Width: 217
Flags: W
VStem: 56 44<-56.6142 70.4159 505.584 632.614> 102 46<119.735 242.755 333.245 456.265>
LayerCount: 2
Fore
SplineSet
26 299 m 5
 65 309 102 330 102 383 c 4
 102 409 90 433 79 458 c 4
 67 484 56 510 56 541 c 4
 56 638 120 703 163 720 c 5
 171 720 179 710 179 701 c 5
 152 688 100 640 100 589 c 4
 100 551 113 526 125 498 c 4
 137 473 148 445 148 405 c 4
 148 340 101 298 75 288 c 5
 101 278 148 236 148 171 c 4
 148 131 137 103 125 78 c 4
 113 50 100 25 100 -13 c 4
 100 -64 152 -112 179 -125 c 5
 179 -134 171 -144 163 -144 c 5
 120 -127 56 -62 56 35 c 4
 56 66 67 92 79 118 c 4
 90 143 102 167 102 193 c 4
 102 246 65 267 26 277 c 5
 23 282 23 294 26 299 c 5
EndSplineSet
Validated: 1
Substitution2: "'sinf' Scientific Inferiors lookup 5-1" braceleft.sinf
Substitution2: "'sups' Superscript lookup 6-1" braceleft.ssup
Substitution2: "'smcp' Lowercase to Small Capitals lookup 2-1" braceleft.sc
Substitution2: "'subs' Subscript lookup 1-1" braceleft.subs
Substitution2: "'ordn' Ordinals lookup 0-1" braceleft.ordn
EndChar

StartChar: bar
Encoding: 124 124 91
Width: 205
Flags: W
VStem: 78 51<-117.404 764.903>
LayerCount: 2
Fore
SplineSet
129 -106 m 2
 129 -114 85 -123 83 -123 c 0
 76 -123 78 -119 78 -115 c 2
 78 757 l 1
 78 757 77 763 83 765 c 0
 100 770 117 772 120 772 c 0
 129 772 128 766 128 766 c 1
 129 -106 l 2
EndSplineSet
Validated: 1
Substitution2: "'sinf' Scientific Inferiors lookup 5-1" bar.sinf
Substitution2: "'sups' Superscript lookup 6-1" bar.ssup
Substitution2: "'smcp' Lowercase to Small Capitals lookup 2-1" bar.sc
Substitution2: "'subs' Subscript lookup 1-1" bar.subs
Substitution2: "'ordn' Ordinals lookup 0-1" bar.ordn
EndChar

StartChar: braceright
Encoding: 125 125 92
Width: 217
Flags: W
VStem: 70 46<119.735 242.755 333.245 456.265> 118 44<-56.6142 70.4159 505.584 632.614>
LayerCount: 2
Fore
SplineSet
55 720 m 5
 98 703 162 638 162 541 c 0
 162 510 151 484 139 458 c 0
 128 433 116 409 116 383 c 0
 116 330 153 309 192 299 c 1
 195 294 195 282 192 277 c 1
 153 267 116 246 116 193 c 0
 116 167 128 143 139 118 c 0
 151 92 162 66 162 35 c 0
 162 -62 98 -127 55 -144 c 1
 47 -144 39 -134 39 -125 c 1
 66 -112 118 -64 118 -13 c 0
 118 25 105 50 93 78 c 0
 81 103 70 131 70 171 c 0
 70 236 117 278 143 288 c 1
 117 298 70 340 70 405 c 0
 70 445 81 473 93 498 c 0
 105 526 118 551 118 589 c 0
 118 640 66 688 39 701 c 1
 39 710 47 720 55 720 c 5
EndSplineSet
Validated: 1
Substitution2: "'sinf' Scientific Inferiors lookup 5-1" braceright.sinf
Substitution2: "'sups' Superscript lookup 6-1" braceright.ssup
Substitution2: "'smcp' Lowercase to Small Capitals lookup 2-1" braceright.sc
Substitution2: "'subs' Subscript lookup 1-1" braceright.subs
Substitution2: "'ordn' Ordinals lookup 0-1" braceright.ordn
EndChar

StartChar: asciitilde
Encoding: 126 126 93
Width: 569
Flags: W
HStem: 250 51<314.795 473.297> 303 51<106.163 260.768>
LayerCount: 2
Fore
SplineSet
186 354 m 0
 233 354 269 340 305 327 c 0
 340 314 375 301 422 301 c 0
 461 301 483 322 512 345 c 1
 518 342 521 336 521 328 c 0
 521 295 455 250 393 250 c 0
 344 250 308 263 271 277 c 0
 236 290 201 303 156 303 c 0
 117 303 89 281 65 259 c 1
 59 262 56 268 56 276 c 0
 56 313 133 354 186 354 c 0
EndSplineSet
Validated: 1
Substitution2: "'sinf' Scientific Inferiors lookup 5-1" asciitilde.sinf
Substitution2: "'sups' Superscript lookup 6-1" asciitilde.ssup
Substitution2: "'smcp' Lowercase to Small Capitals lookup 2-1" asciitilde.sc
Substitution2: "'subs' Subscript lookup 1-1" asciitilde.subs
Substitution2: "'ordn' Ordinals lookup 0-1" asciitilde.ordn
EndChar

StartChar: exclamdown
Encoding: 161 161 95
Width: 211
Flags: W
HStem: 320 110<63.4629 149.77>
VStem: 52 110<331.463 417.77> 58 94<-213.2 91.9102>
LayerCount: 2
Fore
SplineSet
162 374 m 0xc0
 162 344 136 320 106 320 c 0
 76 320 52 344 52 374 c 0
 52 404 76 430 106 430 c 0
 136 430 162 404 162 374 c 0xc0
102 -223 m 0
 71 -223 58 -191 58 -165 c 0
 58 -137 71 -3 92 247 c 1
 96 255 99 259 108 260 c 1
 113 258 119 255 122 249 c 1
 136 88 152 -114 152 -165 c 0xa0
 152 -193 134 -223 102 -223 c 0
EndSplineSet
Validated: 1
Substitution2: "'smcp' Lowercase to Small Capitals lookup 2-1" exclamdown.sc
EndChar

StartChar: cent
Encoding: 162 162 96
Width: 442
Flags: W
HStem: -8 66<229.481 325.563> 394 44<197.28 294.075>
VStem: 43 78<132.251 288.818> 187 28<-43.416 -0.869301> 270 28<427.956 470.975>
LayerCount: 2
Fore
SplineSet
386 388 m 0
 386 348 365 338 348 338 c 1
 326 338 307 364 290 375 c 0
 269 389 259 394 233 394 c 0
 180 394 121 332 121 227 c 0
 121 110 193 58 283 58 c 0
 338 58 376 94 389 109 c 1
 390 109 397 103 397 95 c 0
 397 90 394 82 391 77 c 0
 373 48 323 -8 245 -8 c 0
 123 -8 43 90 43 194 c 0
 43 340 182 438 286 438 c 0
 321 438 352 430 376 414 c 1
 380 410 386 393 386 388 c 0
270 472 m 17
 278 472 298 473 298 466 c 1
 215 -45 l 1
 206 -45 187 -45 187 -38 c 9
 270 472 l 17
EndSplineSet
Validated: 5
Substitution2: "'smcp' Lowercase to Small Capitals lookup 2-1" cent.sc
EndChar

StartChar: sterling
Encoding: 163 163 97
Width: 474
Flags: W
HStem: -8 66<235.736 358.199> 49 56<97.375 176.889> 306 36<65.469 376.738> 590 46<234.671 329.5>
VStem: 123 77<344.61 509.144> 146 75<188.868 347.673> 425 13<127.679 134.817>
LayerCount: 2
Fore
SplineSet
312 636 m 4x7a
 347 636 360 628 384 612 c 5
 388 608 394 594 394 584 c 4
 394 548 373 536 356 536 c 5
 334 536 318 559 303 573 c 4
 288 587 281 590 268 590 c 4
 216 590 200 528 200 459 c 4x7a
 200 385 221 328 221 272 c 4
 221 197 157 120 132 97 c 5
 146 104 156 105 167 105 c 4x76
 222 105 236 58 325 58 c 4
 380 58 416 121 425 139 c 5
 426 139 438 131 438 123 c 4
 438 119 437 114 435 108 c 4
 424 76 367 -8 289 -8 c 4xb6
 204 -8 166 49 114 49 c 4
 83 49 75 10 58 -6 c 5
 50 -6 42 7 42 16 c 4
 42 45 77 79 92 94 c 4
 120 122 146 182 146 231 c 4x76
 146 252 124 367 123 399 c 4
 119 535 218 636 312 636 c 4x7a
76 342 m 5
 92 342 368 342 379 342 c 5
 393 331 376 310 370 306 c 5
 53 306 l 21
 47 312 67 342 76 342 c 5
EndSplineSet
Validated: 37
Substitution2: "'smcp' Lowercase to Small Capitals lookup 2-1" sterling.sc
EndChar

StartChar: currency
Encoding: 164 164 98
Width: 572
Flags: W
HStem: 120 32<244.525 339.572> 463 33<229.384 324.636>
VStem: 101 73<224.803 397.542> 394 72<218.015 391.134>
LayerCount: 2
Fore
SplineSet
293 152 m 0
 354 152 394 219 394 294 c 0
 394 386 339 463 276 463 c 0
 215 463 174 394 174 319 c 0
 174 227 230 152 293 152 c 0
397 455 m 1
 456 510 l 2
 464 518 490 490 497 466 c 1
 437 410 l 1
 455 380 466 344 466 307 c 0
 466 267 454 230 433 199 c 1
 487 141 l 2
 495 133 467 107 443 100 c 1
 391 155 l 1
 361 133 325 120 285 120 c 0
 242 120 202 135 171 160 c 1
 118 110 l 2
 110 102 84 130 77 154 c 1
 131 205 l 1
 112 235 101 270 101 307 c 0
 101 351 115 391 139 423 c 1
 87 479 l 2
 79 487 107 513 131 520 c 1
 183 465 l 1
 212 485 247 496 285 496 c 0
 328 496 366 481 397 455 c 1
EndSplineSet
Validated: 33
EndChar

StartChar: yen
Encoding: 165 165 99
Width: 673
Flags: W
HStem: -3 29<225.404 296.252 394.748 465.596> 139 38<208.183 485.843> 217 38<208.183 485.843> 611 29<28.1875 83.7014 231.181 285.161 429.003 496.108 582.99 645.997>
VStem: 302 87<32.7426 296.719>
LayerCount: 2
Fore
SplineSet
156 635 m 0
 205 635 244 638 284 640 c 1
 286 634 287 611 282 611 c 0
 268 611 222 605 222 579 c 0
 222 571 227 562 234 549 c 2
 365 316 l 1
 368 312 373 315 375 320 c 1
 424 408 491 539 503 570 c 0
 504 573 506 579 506 585 c 0
 506 591 489 610 433 610 c 0
 430 610 429 620 429 626 c 0
 429 630 429 636 431 639 c 1
 468 637 497 634 534 634 c 0
 586 634 604 637 644 639 c 1
 645 636 646 631 646 626 c 0
 646 620 645 610 642 610 c 0
 634 610 577 610 554 570 c 0
 516 503 438 359 395 279 c 8
 389 268 390 257 390 248 c 0
 390 188 389 116 389 116 c 2
 389 86 389 58 394 42 c 0
 397 31 451 26 463 26 c 1
 467 21 468 2 463 -3 c 1
 422 -1 385 2 346 2 c 0
 307 2 269 -1 228 -3 c 1
 223 2 224 21 228 26 c 1
 240 26 294 31 297 42 c 0
 302 58 302 86 302 116 c 2
 302 245 l 0
 302 252 300 263 295 273 c 16
 237 378 212 420 153 526 c 0
 132 563 115 579 87 595 c 0
 70 605 43 611 31 611 c 0
 26 611 26 635 31 640 c 1
 80 638 107 635 156 635 c 0
480 217 m 1
 480 217 227 217 213 217 c 0
 209 217 208 225 208 230 c 3
 208 236 208 246 215 255 c 1
 215 255 467 255 481 255 c 0
 485 255 486 247 486 242 c 3
 486 236 486 226 480 217 c 1
480 139 m 1
 480 139 227 139 213 139 c 0
 209 139 208 147 208 152 c 3
 208 158 208 168 215 177 c 1
 215 177 467 177 481 177 c 0
 485 177 486 169 486 164 c 3
 486 158 486 148 480 139 c 1
EndSplineSet
Validated: 5
Substitution2: "'smcp' Lowercase to Small Capitals lookup 2-1" yen.sc
EndChar

StartChar: brokenbar
Encoding: 166 166 100
Width: 223
Flags: W
VStem: 81 63<-116.969 256.903 386.964 760.903>
LayerCount: 2
Fore
SplineSet
81 389 m 2
 81 753 l 1
 81 753 80 759 86 761 c 0
 103 766 132 768 135 768 c 0
 144 768 143 762 143 762 c 1
 144 397 l 1
 140 394 145 389 92 382 c 0
 78 380 81 384 81 389 c 2
81 -115 m 2
 81 249 l 1
 81 249 80 255 86 257 c 0
 103 262 132 264 135 264 c 0
 144 264 143 258 143 258 c 1
 144 -106 l 1
 140 -109 145 -115 92 -122 c 0
 89 -122 88 -123 86 -123 c 0
 79 -123 81 -119 81 -115 c 2
EndSplineSet
Validated: 1
Substitution2: "'sinf' Scientific Inferiors lookup 5-1" brokenbar.sinf
Substitution2: "'sups' Superscript lookup 6-1" brokenbar.ssup
Substitution2: "'smcp' Lowercase to Small Capitals lookup 2-1" brokenbar.sc
Substitution2: "'subs' Subscript lookup 1-1" brokenbar.subs
Substitution2: "'ordn' Ordinals lookup 0-1" brokenbar.ordn
EndChar

StartChar: section
Encoding: 167 167 101
Width: 438
Flags: W
HStem: -78 50<110.723 236.609> 603 50<201.391 327.277>
VStem: 36 54<353.266 469.951> 118 46<493.45 550.473> 274 46<24.5271 81.55> 348 54<105.049 221.734>
LayerCount: 2
Fore
SplineSet
302 653 m 0
 316 653 329 651 343 645 c 1
 348 635 349 625 349 619 c 0
 349 605 329 583 313 583 c 0
 296 583 287 590 277 595 c 0
 269 599 260 603 245 603 c 0
 214 603 164 587 164 549 c 0
 164 503 239 426 286 383 c 0
 338 335 402 265 402 179 c 0
 402 105 306 -9 268 -35 c 9
 270 -23 268 -14 274 -3 c 24
 284 14 308 33 308 33 c 0
 330 71 348 91 348 135 c 0
 348 218 290 285 236 335 c 0
 188 379 118 435 118 507 c 0
 118 587 190 653 302 653 c 0
130 542 m 0
 108 504 90 484 90 440 c 0
 90 357 148 290 202 240 c 0
 250 196 320 140 320 68 c 0
 320 -12 248 -78 136 -78 c 0
 122 -78 109 -76 95 -70 c 1
 90 -60 89 -50 89 -44 c 0
 89 -30 109 -8 125 -8 c 0
 142 -8 151 -15 161 -20 c 0
 169 -24 178 -28 193 -28 c 0
 224 -28 274 -12 274 26 c 0
 274 72 199 149 152 192 c 0
 100 240 36 310 36 396 c 0
 36 470 132 584 170 610 c 9
 168 598 170 589 164 578 c 24
 154 561 130 542 130 542 c 0
EndSplineSet
Validated: 5
Substitution2: "'sinf' Scientific Inferiors lookup 5-1" section.sinf
Substitution2: "'sups' Superscript lookup 6-1" section.ssup
Substitution2: "'smcp' Lowercase to Small Capitals lookup 2-1" section.sc
Substitution2: "'subs' Subscript lookup 1-1" section.subs
Substitution2: "'ordn' Ordinals lookup 0-1" section.ordn
EndChar

StartChar: dieresis
Encoding: 168 168 102
Width: 334
Flags: W
HStem: 468 98<37.0176 119.299 220.018 302.299>
VStem: 28 100<476.719 556.943> 211 100<476.719 556.943>
LayerCount: 2
Fore
SplineSet
262 566 m 27
 289 566 311 543 311 516 c 27
 311 489 288 468 261 468 c 27
 234 468 211 490 211 517 c 27
 211 544 235 566 262 566 c 27
79 566 m 27
 106 566 128 543 128 516 c 27
 128 489 105 468 78 468 c 27
 51 468 28 490 28 517 c 27
 28 544 52 566 79 566 c 27
EndSplineSet
Validated: 1
EndChar

StartChar: copyright
Encoding: 169 169 103
Width: 656
Flags: W
HStem: 69 31<246.455 410.652> 195 32<295.319 415.675> 449 34<288.437 403.899> 584 31<246.455 410.652>
VStem: 55 33<256.704 427.296> 186 57<271.691 409.392> 571 31<259.894 424.106>
LayerCount: 2
Fore
SplineSet
455 276 m 1
 455 273 442 217 435 214 c 0
 403 201 371 195 329 195 c 0
 248 195 186 257 186 336 c 0
 186 416 244 483 327 483 c 0
 357 483 405 477 439 464 c 1
 439 464 455 407 455 403 c 0
 455 398 446 394 439 394 c 0
 436 394 434 395 432 396 c 1
 429 409 410 449 339 449 c 0
 285 449 243 400 243 345 c 0
 243 264 302 227 348 227 c 0
 378 227 407 234 420 246 c 0
 432 257 433 279 435 279 c 0
 438 279 454 278 455 276 c 1
55 342 m 0
 55 493 177 615 328 615 c 0
 479 615 602 493 602 342 c 0
 602 191 479 69 328 69 c 0
 177 69 55 191 55 342 c 0
88 342 m 0
 88 209 196 100 329 100 c 0
 462 100 571 209 571 342 c 0
 571 475 462 584 329 584 c 0
 196 584 88 475 88 342 c 0
EndSplineSet
Validated: 1
Substitution2: "'smcp' Lowercase to Small Capitals lookup 2-1" copyright.sc
EndChar

StartChar: ordfeminine
Encoding: 170 170 104
Width: 341
Flags: W
HStem: 249 37<113.046 171.137 243 292.603> 526 30<124.074 188.272>
VStem: 45 57<293.972 374.217> 55 56<455.248 499.854> 209 53<299.663 405 422.392 513.145>
LayerCount: 2
Fore
SplineSet
149 286 m 0xe8
 173 286 209 313 209 320 c 2
 209 405 l 17
 190 399 157 390 145 385 c 0
 120 375 102 361 102 335 c 0
 102 309 123 286 149 286 c 0xe8
186 556 m 0
 225 556 262 515 262 462 c 2
 262 319 l 2
 262 300 267 286 283 286 c 0
 295 286 304 294 306 295 c 1
 308 295 309 292 309 290 c 0
 309 286 307 280 305 277 c 1
 297 269 268 250 253 250 c 0
 233 250 215 274 211 295 c 1
 203 287 150 249 126 249 c 0
 80 249 45 284 45 329 c 0xe8
 45 357 65 378 80 384 c 0
 119 398 181 419 201 428 c 0
 208 431 209 433 209 445 c 2
 209 464 l 2
 209 495 188 526 150 526 c 0
 126 526 116 514 111 487 c 0
 107 463 96 454 79 454 c 0
 64 454 55 469 55 483 c 0xd8
 55 486 57 497 60 500 c 1
 81 520 135 556 186 556 c 0
EndSplineSet
Validated: 1
Substitution2: "'smcp' Lowercase to Small Capitals lookup 2-1" ordfeminine.sc
EndChar

StartChar: guillemotleft
Encoding: 171 171 105
Width: 488
Flags: W
LayerCount: 2
Fore
SplineSet
295 247 m 1
 382 157 l 1
 435 104 443 102 443 91 c 0
 443 79 426 76 420 73 c 1
 419 75 361 132 214 227 c 1
 209 229 207 235 207 241 c 0
 207 251 208 260 215 268 c 1
 346 347 420 422 421 423 c 1
 444 417 444 408 444 404 c 0
 444 396 440 392 383 338 c 0
 360 316 314 266 295 247 c 1
116 247 m 1
 203 157 l 1
 256 104 264 102 264 91 c 0
 264 79 247 76 241 73 c 1
 240 75 182 132 35 227 c 1
 30 229 28 235 28 241 c 0
 28 251 29 260 36 268 c 1
 167 347 241 422 242 423 c 1
 265 417 265 408 265 404 c 0
 265 396 261 392 204 338 c 0
 181 316 135 266 116 247 c 1
EndSplineSet
Validated: 1
Substitution2: "'smcp' Lowercase to Small Capitals lookup 2-1" guillemotleft.sc
EndChar

StartChar: logicalnot
Encoding: 172 172 106
Width: 585
Flags: W
HStem: 364 56<46.988 454>
VStem: 454 60<158.845 363.996>
LayerCount: 2
Fore
SplineSet
43 374 m 1
 43 374 48 420 58 420 c 2
 502 420 l 2
 508 420 514 419 514 409 c 2
 514 169 l 1
 513 168 516 161 465 154 c 1
 461 154 l 2
 451 154 454 161 454 161 c 1
 454 354 l 2
 454 358 450 364 443 364 c 2
 49 364 l 1
 49 364 43 364 43 374 c 1
EndSplineSet
Validated: 1
EndChar

StartChar: registered
Encoding: 174 174 107
Width: 657
Flags: W
HStem: 133 32<247.455 411.652> 273 12<202.069 228.326 293.922 317.655 462.311 482.963> 406 22<286.308 319.999> 529 25<287.001 356.317> 541 12<204.002 226.775> 648 32<247.455 411.652>
VStem: 56 33<321.65 492.235> 235 51<294.529 405.692 428.775 528.531> 371 50<432.984 522.352> 572 31<324.848 489.045>
LayerCount: 2
Fore
SplineSet
56 407 m 0xe7c0
 56 558 178 680 329 680 c 0
 480 680 603 558 603 407 c 0
 603 256 480 133 329 133 c 0
 178 133 56 256 56 407 c 0xe7c0
89 407 m 0
 89 274 197 165 330 165 c 0
 463 165 572 274 572 407 c 0
 572 540 463 648 330 648 c 0
 197 648 89 540 89 407 c 0
483 280 m 0
 483 273 480 272 468 272 c 0
 406 272 387 286 320 398 c 0
 316 404 309 406 306 406 c 0
 291 408 299 407 288 406 c 0
 287 406 286 403 286 399 c 2
 286 335 l 1
 286 335 287 305 290 294 c 0
 291 290 312 285 316 285 c 0
 318 285 318 276 317 273 c 1
 300 274 273 274 254 274 c 0
 234 274 224 274 204 273 c 1
 203 274 202 278 202 280 c 0
 202 282 203 285 204 285 c 0
 209 285 230 289 232 294 c 0
 234 300 235 311 235 319 c 0
 235 327 234 335 234 335 c 1
 234 490 l 1
 234 490 235 498 235 506 c 0
 235 514 234 525 232 531 c 0
 230 536 210 541 205 541 c 0
 204 541 204 543 204 546 c 0
 204 549 204 552 205 553 c 1xefc0
 205 553 224 550 253 550 c 0
 279 550 301 554 327 554 c 0xf7c0
 362 554 421 535 421 477 c 0
 421 454 405 428 373 414 c 0
 372 414 372 413 372 412 c 0
 372 398 424 331 442 307 c 0
 455 290 469 286 482 286 c 1
 483 284 483 282 483 280 c 0
333 428 m 0
 350 428 371 448 371 474 c 0
 371 508 355 529 321 529 c 0xf7c0
 311 529 296 528 290 526 c 0
 288 526 287 525 287 523 c 0
 286 512 286 486 286 486 c 1
 286 441 l 2
 286 428 313 428 333 428 c 0
EndSplineSet
Validated: 1
Substitution2: "'smcp' Lowercase to Small Capitals lookup 2-1" registered.sc
EndChar

StartChar: macron
Encoding: 175 175 108
Width: 467
Flags: W
HStem: 550 46<557.21 774.904>
VStem: 556 225<550.013 596>
LayerCount: 2
Fore
SplineSet
556 559 m 0
 556 561 557 596 568 596 c 2
 776 596 l 2
 778 596 781 595 781 589 c 0
 781 584 780 575 775 557 c 0
 773 551 768 550 768 550 c 1
 562 550 l 1
 562 550 556 549 556 559 c 0
EndSplineSet
Validated: 1
EndChar

StartChar: degree
Encoding: 176 176 109
Width: 269
Flags: W
HStem: 437 37<91.8121 177.842> 597 37<91.8121 177.842>
VStem: 36 37<492.812 578.842> 196 37<492.812 578.842>
LayerCount: 2
Fore
SplineSet
36 536 m 0
 36 590 81 634 135 634 c 0
 189 634 233 590 233 536 c 0
 233 482 189 437 135 437 c 0
 81 437 36 482 36 536 c 0
73 536 m 0
 73 502 101 474 135 474 c 0
 169 474 196 502 196 536 c 0
 196 570 169 597 135 597 c 0
 101 597 73 570 73 536 c 0
EndSplineSet
Validated: 1
Substitution2: "'smcp' Lowercase to Small Capitals lookup 2-1" degree.sc
EndChar

StartChar: plusminus
Encoding: 177 177 110
Width: 577
Flags: W
HStem: 6 56<59.0959 516.875> 304 56<58.0959 261 317.001 518.904>
VStem: 261 56<97.3652 303.998 360 562.904>
LayerCount: 2
Fore
SplineSet
513 62 m 1
 513 62 523 63 521 51 c 0
 514 3 508 9 505 6 c 1
 57 6 l 1
 57 6 49 5 51 19 c 0
 53 33 53 37 59 57 c 0
 61 63 66 62 66 62 c 1
 513 62 l 1
317 301 m 2
 317 109 l 1
 317 109 317 99 272 93 c 0
 269 93 268 92 266 92 c 0
 259 92 261 96 261 100 c 2
 261 299 l 2
 261 301 260 304 255 304 c 2
 56 304 l 1
 56 304 50 304 50 314 c 0
 50 318 51 331 58 355 c 0
 60 361 65 360 65 360 c 1
 256 360 l 2
 259 360 261 364 261 366 c 2
 261 556 l 1
 261 556 260 561 266 563 c 0
 290 570 303 571 307 571 c 0
 317 571 317 565 317 565 c 1
 317 365 l 2
 317 362 318 360 321 360 c 2
 521 360 l 2
 525 360 529 362 529 355 c 0
 529 346 525 332 519 310 c 0
 517 304 512 304 512 304 c 1
 321 304 l 2
 318 304 317 303 317 301 c 2
EndSplineSet
Validated: 1
EndChar

StartChar: uni00B2
Encoding: 178 178 111
Width: 355
Flags: W
HStem: 254 55<120 282> 602 45<107.49 209.382>
VStem: 226 65<472.975 585.997>
LayerCount: 2
Fore
SplineSet
50 254 m 1
 44 254 36 262 38 266 c 1
 106 340 226 440 226 530 c 0
 226 572 202 602 160 602 c 0
 115 602 91 575 73 553 c 1
 69 549 55 565 56 570 c 1
 79 610 126 647 172 647 c 0
 242 647 291 603 291 540 c 0
 291 507 275 475 245 439 c 0
 218 407 168 358 120 309 c 1
 128 309 240 309 240 309 c 2
 281 309 294 353 300 363 c 0
 301 365 302 365 305 366 c 0
 308 366 316 364 319 360 c 1
 308 331 296 287 282 254 c 1
 50 254 l 1
EndSplineSet
Validated: 1
EndChar

StartChar: uni00B3
Encoding: 179 179 112
Width: 314
Flags: W
HStem: 249 28<105.743 185.501> 607 39<100.602 178.209>
VStem: 191 56<513.694 596.981> 215 64<312.363 429.422>
LayerCount: 2
Fore
SplineSet
103 446 m 1xd0
 99 450 96 462 98 467 c 1
 147 477 191 507 191 556 c 0
 191 582 166 607 140 607 c 0
 103 607 76 576 70 570 c 1
 65 572 60 585 61 586 c 1
 75 607 107 646 160 646 c 0
 202 646 247 620 247 569 c 0xe0
 247 525 211 496 189 486 c 1
 215 486 279 452 279 386 c 0
 279 298 203 249 116 249 c 0
 94 249 59 255 49 264 c 1
 49 264 37 275 37 288 c 0
 37 308 52 321 68 321 c 0
 85 321 92 304 104 292 c 0
 114 282 128 277 143 277 c 0
 185 277 215 307 215 368 c 0
 215 417 180 454 143 454 c 0
 125 454 108 447 103 446 c 1xd0
EndSplineSet
Validated: 1
EndChar

StartChar: acute
Encoding: 180 180 113
Width: 468
Flags: W
HStem: 527 160
VStem: 521 168
LayerCount: 2
Fore
SplineSet
648 687 m 0
 683 687 689 668 689 663 c 0
 689 624 543 527 533 527 c 0
 526 527 521 534 521 540 c 0
 521 546 578 637 614 678 c 0
 619 683 634 687 648 687 c 0
EndSplineSet
Validated: 1
EndChar

StartChar: paragraph
Encoding: 182 182 115
Width: 482
Flags: W
HStem: -4 27<156.918 214.942 372.084 432.289> 2 34<268.061 318.941> 288 40<265 320.335> 611 37<265.286 321.805> 624 29<370.14 425.455>
VStem: 34 231<391.968 555.804> 226 39<42.7588 287> 322 40<42.7588 292 339 610.302>
LayerCount: 2
Fore
SplineSet
361 299 m 1x2d
 361 228 361 187 361 116 c 16
 361 86 361 58 366 42 c 0
 369 31 419 23 431 23 c 1
 433 23 433 -2 431 -4 c 1xad
 368 -2 360 2 297 2 c 0x65
 251 2 198 -2 158 -4 c 1
 156 2 155 19 160 23 c 1
 168 23 218 31 221 42 c 0
 226 58 226 86 226 116 c 2
 226 287 l 17xa3
 98 287 34 399 34 469 c 0
 34 578 123 652 205 652 c 0
 264 652 243 648 302 648 c 0xb5
 369 648 423 653 423 653 c 1
 428 648 427 627 422 624 c 1
 407 624 370 616 365 604 c 0
 363 597 362 591 362 540 c 0
 362 479 362 358 362 339 c 1
 367 338 411 352 411 352 c 1
 416 352 421 350 421 346 c 0
 420 336 399 312 392 309 c 0
 381 304 369 300 361 299 c 1x2d
321 292 m 17
 307 291 281 289 265 288 c 9
 265 221 265 183 265 116 c 16
 265 86 265 58 268 42 c 0
 269 35 289 36 293 36 c 0x63
 300 36 318 36 319 42 c 0
 322 58 322 86 322 116 c 2
 321 292 l 17
322 333 m 1
 322 369 322 593 322 606 c 1
 318 610 303 611 293 611 c 0x33
 283 611 271 611 265 605 c 9
 265 605 265 430 265 328 c 1
 271 328 318 330 322 333 c 1
EndSplineSet
Validated: 33
Substitution2: "'sinf' Scientific Inferiors lookup 5-1" paragraph.sinf
Substitution2: "'sups' Superscript lookup 6-1" paragraph.ssup
Substitution2: "'smcp' Lowercase to Small Capitals lookup 2-1" paragraph.sc
Substitution2: "'subs' Subscript lookup 1-1" paragraph.subs
Substitution2: "'ordn' Ordinals lookup 0-1" paragraph.ordn
EndChar

StartChar: periodcentered
Encoding: 183 183 116
Width: 221
Flags: W
HStem: 205 117<66.2549 155.745>
VStem: 53 116<217.764 309.619>
LayerCount: 2
Fore
SplineSet
53 264 m 0
 53 296 79 322 111 322 c 0
 143 322 169 296 169 264 c 0
 169 232 143 205 111 205 c 0
 79 205 53 232 53 264 c 0
EndSplineSet
Validated: 1
EndChar

StartChar: cedilla
Encoding: 184 184 117
Width: 469
Flags: W
HStem: -152 24<657.049 721.387> -61 34<699 726.414>
VStem: 731 37<-122.34 -64.0801>
LayerCount: 2
Fore
SplineSet
699 -27 m 1
 724 -27 l 2
 750 -27 768 -50 768 -76 c 0
 768 -123 726 -152 674 -152 c 0
 662 -152 646 -147 640 -143 c 1
 639 -138 637 -135 637 -129 c 0
 637 -122 645 -115 651 -115 c 0
 663 -115 672 -128 688 -128 c 0
 716 -128 731 -112 731 -95 c 0
 731 -71 713 -61 700 -61 c 0
 689 -61 684 -64 674 -68 c 0
 672 -68 662 -59 664 -55 c 0
 673 -40 688 -18 696 -4 c 1
 717 -4 l 1
 699 -27 l 1
EndSplineSet
Validated: 1
EndChar

StartChar: uni00B9
Encoding: 185 185 118
Width: 290
Flags: W
HStem: 253 25<55.7773 113.633 205.725 257.951>
VStem: 121 74<293.746 568.147>
LayerCount: 2
Fore
SplineSet
51 554 m 1
 45 557 37 558 37 570 c 0
 37 573 38 577 40 578 c 0
 146 622 187 652 190 652 c 2
 192 652 l 2
 198 652 203 632 204 629 c 1
 204 629 195 587 195 548 c 2
 195 340 l 2
 195 320 196 309 203 293 c 0
 206 286 246 279 254 279 c 0
 257 279 258 270 258 263 c 0
 258 259 258 255 257 253 c 1
 218 254 198 256 159 256 c 0
 120 256 98 254 59 253 c 1
 54 256 54 278 59 278 c 0
 71 278 112 285 115 292 c 0
 120 305 121 313 121 323 c 2
 121 518 l 2
 121 564 113 569 102 569 c 0
 90 569 71 561 51 554 c 1
EndSplineSet
Validated: 1
EndChar

StartChar: ordmasculine
Encoding: 186 186 119
Width: 384
Flags: W
HStem: 247 24<161.771 237.041> 530 24<147.201 225.228>
VStem: 36 69<322.561 478.564> 279 69<323.778 480.457>
LayerCount: 2
Fore
SplineSet
185 530 m 0
 127 530 105 467 105 411 c 0
 105 345 136 271 202 271 c 0
 257 271 279 336 279 391 c 0
 279 456 250 530 185 530 c 0
194 554 m 0
 281 554 348 486 348 403 c 0
 348 320 281 247 194 247 c 0
 107 247 36 316 36 399 c 0
 36 484 105 554 194 554 c 0
EndSplineSet
Validated: 1
Substitution2: "'smcp' Lowercase to Small Capitals lookup 2-1" ordmasculine.sc
EndChar

StartChar: guillemotright
Encoding: 187 187 120
Width: 488
Flags: W
LayerCount: 2
Fore
SplineSet
68 73 m 1
 45 79 45 87 45 91 c 0
 45 102 55 107 105 157 c 1
 192 247 l 1
 173 266 127 316 104 338 c 0
 45 395 44 396 44 404 c 0
 44 416 61 420 67 423 c 1
 69 421 142 347 272 268 c 1
 279 260 281 251 281 241 c 0
 281 235 278 229 273 227 c 1
 146 145 80 86 68 73 c 1
247 73 m 1
 224 79 224 87 224 91 c 0
 224 102 235 107 285 157 c 1
 372 247 l 1
 353 266 307 316 284 338 c 0
 225 395 223 396 223 404 c 0
 223 416 240 420 246 423 c 1
 248 421 322 347 452 268 c 1
 459 260 460 251 460 241 c 0
 460 235 458 229 453 227 c 1
 326 145 259 86 247 73 c 1
EndSplineSet
Validated: 1
Substitution2: "'smcp' Lowercase to Small Capitals lookup 2-1" guillemotright.sc
EndChar

StartChar: onequarter
Encoding: 188 188 121
Width: 699
Flags: W
HStem: 106 45<444 558 620 654.032> 251 22<53.0603 100.672 186.454 235.491>
VStem: 114 62<288.617 554.988> 558 59<-0.753006 106 151 305>
LayerCount: 2
Fore
SplineSet
212 -14 m 5
 200 -14 181 -3 181 7 c 5
 529 639 l 5
 537 643 557 629 560 617 c 5
 212 -14 l 5
608 407 m 0
 614 407 617 400 617 395 c 8
 617 298 617 238 617 146 c 1
 624 146 642 146 652 146 c 1
 661 138 666 120 658 106 c 1
 644 106 626 106 620 106 c 9
 620 0 l 1
 617 -3 568 -6 558 2 c 9
 558 106 l 1
 554 106 393 106 393 106 c 1
 388 107 384 111 383 122 c 1
 588 395 l 2
 592 400 600 407 608 407 c 0
444 151 m 1
 451 151 550 151 558 151 c 9
 558 151 558 296 558 305 c 1
 517 253 489 209 444 151 c 1
184 622 m 5
 184 622 176 573 176 534 c 6
 176 336 l 6
 176 316 178 302 183 287 c 4
 185 280 225 273 233 273 c 5
 238 268 235 253 234 251 c 5
 195 252 187 254 148 254 c 4
 109 254 95 252 56 251 c 5
 51 254 52 269 56 273 c 5
 68 273 103 281 106 288 c 4
 111 301 114 324 114 334 c 6
 114 520 l 6
 114 539 107 555 97 555 c 4
 86 555 69 547 49 540 c 5
 43 543 38 552 36 558 c 5
 55 570 86 588 171 638 c 5
 178 636 184 629 184 622 c 5
EndSplineSet
Validated: 33
EndChar

StartChar: onehalf
Encoding: 189 189 122
Width: 751
Flags: W
HStem: -1 55<518 680> 251 22<55.0603 102.672 188.454 237.491> 347 45<505.49 607.382>
VStem: 116 62<288.617 554.988> 624 65<217.975 330.997>
LayerCount: 2
Fore
SplineSet
214 -14 m 1
 202 -14 183 -3 183 7 c 1
 531 639 l 1
 539 643 559 629 562 617 c 1
 214 -14 l 1
186 622 m 1
 186 622 178 573 178 534 c 2
 178 336 l 2
 178 316 180 302 185 287 c 0
 187 280 227 273 235 273 c 1
 240 268 237 253 236 251 c 1
 197 252 189 254 150 254 c 0
 111 254 97 252 58 251 c 1
 53 254 54 269 58 273 c 1
 70 273 105 281 108 288 c 0
 113 301 116 324 116 334 c 2
 116 520 l 2
 116 539 109 555 99 555 c 0
 88 555 71 547 51 540 c 1
 45 543 40 552 38 558 c 1
 57 570 88 588 173 638 c 1
 180 636 186 629 186 622 c 1
448 -1 m 1
 442 -1 434 7 436 11 c 1
 504 85 624 185 624 275 c 0
 624 317 600 347 558 347 c 0
 513 347 489 320 471 298 c 1
 467 294 453 310 454 315 c 1
 477 355 524 392 570 392 c 0
 640 392 689 348 689 285 c 0
 689 252 673 220 643 184 c 0
 616 152 566 103 518 54 c 1
 526 54 638 54 638 54 c 2
 679 54 692 98 698 108 c 0
 699 110 700 110 703 111 c 0
 706 111 714 109 717 105 c 1
 706 76 694 32 680 -1 c 1
 448 -1 l 1
EndSplineSet
Validated: 33
EndChar

StartChar: threequarters
Encoding: 190 190 123
Width: 727
Flags: W
HStem: 106 45<471 585 647 681.032> 249 28<103.743 183.501> 607 39<98.6021 176.209>
VStem: 189 56<513.694 596.981> 213 64<312.363 429.422> 585 59<-0.753006 106 151 305>
LayerCount: 2
Fore
SplineSet
239 -14 m 1xe4
 227 -14 208 -3 208 7 c 1
 556 639 l 1
 564 643 584 629 587 617 c 1
 239 -14 l 1xe4
635 407 m 0
 641 407 644 400 644 395 c 8
 644 298 644 238 644 146 c 1
 651 146 669 146 679 146 c 1
 688 138 693 120 685 106 c 1
 671 106 653 106 647 106 c 9
 647 0 l 1
 644 -3 595 -6 585 2 c 9
 585 106 l 1
 581 106 420 106 420 106 c 1
 415 107 411 111 410 122 c 1
 615 395 l 2
 619 400 627 407 635 407 c 0
471 151 m 1
 478 151 577 151 585 151 c 9
 585 151 585 296 585 305 c 1
 544 253 516 209 471 151 c 1
101 446 m 1
 97 450 94 462 96 467 c 1
 145 477 189 507 189 556 c 0
 189 582 164 607 138 607 c 0
 101 607 74 576 68 570 c 1
 63 572 58 585 59 586 c 1
 73 607 105 646 158 646 c 0
 200 646 245 620 245 569 c 0xf4
 245 525 209 496 187 486 c 1
 213 486 277 452 277 386 c 0
 277 298 201 249 114 249 c 0
 92 249 57 255 47 264 c 1
 47 264 35 275 35 288 c 0
 35 308 50 321 66 321 c 0
 83 321 90 304 102 292 c 0
 112 282 126 277 141 277 c 0
 183 277 213 307 213 368 c 0xec
 213 417 178 454 141 454 c 0
 123 454 106 447 101 446 c 1
EndSplineSet
Validated: 33
EndChar

StartChar: questiondown
Encoding: 191 191 124
Width: 345
Flags: W
HStem: -223 94<167.451 286.234> -223 73<158.434 267.661> 320 110<189.463 275.77>
VStem: 41 50<-116.531 -13.6233> 178 110<331.463 417.77> 226 29<177.761 259.712>
LayerCount: 2
Fore
SplineSet
288 374 m 0x38
 288 344 262 320 232 320 c 0
 202 320 178 344 178 374 c 0
 178 404 202 430 232 430 c 0
 262 430 288 404 288 374 c 0x38
255 249 m 1xb4
 260 228 263 185 263 158 c 0
 263 84 215 58 178 34 c 0
 129 3 91 -20 91 -68 c 0
 91 -120 127 -150 165 -150 c 0x78
 218 -150 225 -129 251 -129 c 0
 265 -129 295 -146 295 -179 c 0
 295 -194 291 -209 286 -216 c 1
 276 -221 259 -223 238 -223 c 0
 172 -223 41 -155 41 -38 c 0
 41 30 67 72 142 115 c 0
 169 131 214 166 220 177 c 0
 229 193 226 224 226 247 c 1
 230 255 233 259 242 260 c 1
 247 258 252 255 255 249 c 1xb4
EndSplineSet
Validated: 33
Substitution2: "'smcp' Lowercase to Small Capitals lookup 2-1" questiondown.sc
EndChar

StartChar: AE
Encoding: 198 198 131
Width: 892
Flags: W
HStem: -3 29<-18.6875 31.4574 124.06 184.196 350.006 409.266> 2 35<519.612 748.404> 256 39<265.691 427> 312 37<513 690.451> 408 20G<730.5 737.5> 621 43<578.963 749.801> 621 35<516.532 671.986> 629 29<350.006 394.257>
VStem: 427 86<47.2663 253.943 297.004 310.528 349.429 544.071> 719 32<230.002 289.298 372.014 427.976> 789 32<523.07 569.412>
LayerCount: 2
Fore
SplineSet
470 656 m 4x3ae0
 563 656 683 664 792 664 c 1
 799 614 812 573 821 528 c 1
 818 525 810 523 803 523 c 0
 796 523 790 525 789 530 c 0
 767 610 726 621 673 621 c 2
 587 621 l 0
 575 621 521 620 518 610 c 0
 513 594 513 566 513 539 c 2
 513 355 l 2
 513 350 534 349 556 349 c 2
 609 349 l 2
 705 349 702 355 719 421 c 0
 720 426 727 428 734 428 c 0
 741 428 748 426 751 423 c 1
 751 234 l 1
 749 232 742 230 735 230 c 0
 728 230 721 233 719 238 c 0
 704 295 700 298 691 304 c 0
 680 311 623 312 585 312 c 0
 557 312 513 312 513 303 c 2
 513 116 l 2
 513 101 513 52 519 47 c 0
 532 37 548 37 590 37 c 2
 638 37 l 2
 676 37 735 46 764 61 c 0
 783 71 811 109 827 162 c 0
 828 166 834 168 841 168 c 0
 851 168 863 165 866 162 c 1
 847 108 819 40 812 -4 c 1
 703 -4 563 2 472 2 c 0x7ce0
 405 2 354 -3 354 -3 c 1
 352 -1 350 4 350 12 c 0
 350 20 352 26 354 26 c 0
 366 26 415 37 420 49 c 1
 426 72 427 118 427 135 c 10
 427 242 l 26
 427 249 419 252 414 253 c 0
 400 255 363 256 338 256 c 0
 297 256 284 254 238 251 c 0
 236 251 233 248 233 248 c 1
 233 248 189 178 158 129 c 0
 138 98 118 65 118 52 c 0
 118 28 174 26 182 26 c 1
 185 23 186 3 184 -3 c 1xb8e0
 144 -1 131 2 87 2 c 0x78e0
 41 2 29 -1 -17 -3 c 1
 -20 0 -20 19 -17 26 c 1
 -5 26 26 36 40 45 c 0
 65 61 95 104 115 137 c 2
 392 584 l 2
 395 589 399 597 399 604 c 0
 399 622 366 629 354 629 c 0
 352 629 350 636 350 643 c 0
 350 650 352 656 354 658 c 1xb9e0
 354 658 403 656 470 656 c 4x3ae0
415 297 m 0
 424 297 427 302 427 308 c 26
 427 537 l 18
 427 543 423 545 418 545 c 0
 414 545 411 541 409 538 c 0
 388 505 265 300 265 300 c 1
 265 300 264 296 266 296 c 0
 292 295 320 295 343 295 c 0
 374 295 389 296 415 297 c 0
EndSplineSet
Validated: 1
EndChar

StartChar: Eth
Encoding: 208 208 141
Width: 705
Flags: W
HStem: -3 35<44.2859 115.827 213.396 391.605> 311 37<48.3369 367.828> 624 34<210.532 376.678> 633 29<42.4037 113.252>
VStem: 119 88<46.3146 620.395> 560 99<197.68 448.61>
LayerCount: 2
Fore
SplineSet
366 311 m 5xcc
 337 311 64 311 50 311 c 5
 46 311 45 339 51 348 c 5
 80 348 352 348 366 348 c 5
 370 348 370 320 366 311 c 5xcc
EndSplineSet
Refer: 35 68 N 1 0 0 1 1 0 2
Validated: 37
EndChar

StartChar: multiply
Encoding: 215 215 148
Width: 469
Flags: W
HStem: 415 20G<83 87 384 388.5>
LayerCount: 2
Fore
SplineSet
84 60 m 4
 77 60 55 98 55 108 c 5
 193 243 l 6
 194 244 194 245 194 246 c 4
 194 248 193 250 192 251 c 6
 55 388 l 5
 55 402 80 435 86 435 c 4
 88 435 89 433 91 431 c 6
 233 290 l 6
 234 289 236 288 237 288 c 4
 239 289 l 5
 380 430 l 6
 382 432 383 433 385 433 c 4
 392 433 414 394 414 384 c 5
 279 249 l 6
 278 248 278 247 278 246 c 4
 278 245 278 244 278 244 c 6
 414 108 l 5
 414 93 396 60 388 60 c 4
 384 60 382 61 380 63 c 6
 240 203 l 6
 239 204 237 205 236 205 c 4
 234 205 233 204 232 203 c 6
 89 63 l 6
 87 61 86 60 84 60 c 4
EndSplineSet
Validated: 1
Substitution2: "'smcp' Lowercase to Small Capitals lookup 2-1" multiply.sc
EndChar

StartChar: Oslash
Encoding: 216 216 149
Width: 744
Flags: W
HStem: -10 37<306.874 467.033> 630 37<275.613 435.715>
VStem: 47 99<214.231 447.375> 598 99<209.819 443.304>
LayerCount: 2
Fore
SplineSet
356 630 m 0
 206 630 146 484 146 350 c 0
 146 195 232 27 387 27 c 0
 537 27 598 174 598 309 c 0
 598 464 511 630 356 630 c 0
47 328 m 0
 47 515 195 667 371 667 c 0
 547 667 697 527 697 328 c 0
 697 141 547 -10 371 -10 c 0
 195 -10 47 130 47 328 c 0
566 667 m 21
 575 665 599 651 595 645 c 13
 177 -13 l 21
 168 -10 144 4 148 10 c 13
 566 667 l 21
EndSplineSet
Validated: 37
EndChar

StartChar: Thorn
Encoding: 222 222 155
Width: 525
Flags: W
HStem: -3 29<41.4037 112.252 210.748 281.596> 124 36<240.256 340.392> 475 35<210.128 329.947> 633 29<41.4037 112.252 210.748 281.596>
VStem: 118 87<32.7426 459.422 501 626.257> 408 92<236.389 400.698>
LayerCount: 2
Fore
SplineSet
283 510 m 0
 395 510 500 430 500 328 c 0
 500 223 420 124 289 124 c 0
 266 124 252 129 244 134 c 0
 241 136 227 151 227 156 c 0
 227 160 230 163 232 164 c 1
 243 161 254 160 269 160 c 0
 349 160 408 215 408 304 c 0
 408 396 361 475 254 475 c 0
 242 475 214 469 210 460 c 0
 205 448 205 415 205 385 c 0
 205 116 l 2
 205 86 205 58 210 42 c 0
 213 31 267 26 279 26 c 1
 283 21 284 2 279 -3 c 1
 238 -1 201 2 162 2 c 0
 123 2 85 -1 44 -3 c 1
 39 2 40 21 44 26 c 1
 56 26 110 31 113 42 c 0
 118 58 118 86 118 116 c 2
 118 543 l 2
 118 573 118 601 113 617 c 0
 110 628 56 633 44 633 c 1
 40 638 39 657 44 662 c 1
 85 660 123 657 162 657 c 0
 201 657 238 660 279 662 c 1
 284 657 283 638 279 633 c 1
 267 633 213 628 210 617 c 0
 205 601 205 573 205 543 c 2
 205 501 l 17
 225 510 266 510 283 510 c 0
EndSplineSet
Validated: 1
EndChar

StartChar: germandbls
Encoding: 223 223 156
Width: 532
Flags: W
HStem: -10 31<26 82.8417 183.424 243 344.378 417.127> 391 41<38.9629 94> 660 33<218.671 323.717>
VStem: 94 77<32.7426 391 432 545.797> 245 58<316.788 375.904> 366 75<490.333 624.745> 441 68<55.8919 151.894>
LayerCount: 2
Fore
SplineSet
265 693 m 0xfc
 359 693 441 655 441 561 c 0xfc
 441 449 303 413 303 359 c 0
 303 318 354 290 401 265 c 0
 448 240 509 206 509 137 c 0
 509 58 453 -10 377 -10 c 0
 316 -10 269 16 259 33 c 1
 259 66 266 91 293 91 c 0
 326 91 328 21 379 21 c 0
 415 21 441 52 441 102 c 0xfa
 441 202 245 190 245 325 c 0
 245 399 366 419 366 549 c 0
 366 614 332 660 268 660 c 0
 179 660 171 557 171 475 c 0
 171 343 171 116 171 116 c 2
 171 86 171 58 176 42 c 0
 179 31 231 26 243 26 c 1
 247 21 248 2 243 -3 c 1
 202 -1 171 2 132 2 c 0
 93 2 67 -1 26 -3 c 1
 21 2 22 21 26 26 c 1
 38 26 86 31 89 42 c 0
 94 58 94 86 94 116 c 2
 94 391 l 1
 36 391 l 2
 33 391 31 397 31 400 c 0
 31 404 56 431 57 432 c 1
 73 432 83 432 94 432 c 1
 94 433 94 434 94 438 c 0
 94 560 185 693 265 693 c 0xfc
EndSplineSet
Validated: 1
Substitution2: "'smcp' Lowercase to Small Capitals lookup 2-1" germandbls.sc
EndChar

StartChar: ae
Encoding: 230 230 163
Width: 649
Flags: W
HStem: -8 64<412.721 542.098> -8 54<136.481 209.032> 248 37<337 522.487> 398 38<157.34 258.5 384.883 490.912>
VStem: 35 83<64.4927 167.195> 50 81<294.428 353.807> 263 69<142.672 220> 523 85<285.847 368.285>
LayerCount: 2
Fore
SplineSet
584 255 m 0x77
 553 253 344 248 332 248 c 1
 329 120 407 56 495 56 c 0
 550 56 592 94 605 109 c 1
 606 109 613 103 613 95 c 0
 613 90 610 82 607 77 c 0
 589 48 539 -8 461 -8 c 0xb7
 400 -8 330 20 296 77 c 1
 272 52 187 -8 152 -8 c 0
 86 -8 35 42 35 107 c 0x7b
 35 148 58 174 81 186 c 0
 129 210 218 243 247 256 c 0
 257 260 259 262 261 270 c 0
 263 279 263 290 263 302 c 0
 263 347 235 398 186 398 c 0
 151 398 138 374 131 335 c 0
 125 301 109 288 84 288 c 0
 63 288 50 310 50 330 c 0
 50 338 54 350 57 354 c 1
 81 377 164 436 237 436 c 0
 280 436 313 406 330 374 c 1
 354 400 401 438 458 438 c 0
 578 438 608 342 608 302 c 0
 608 273 603 256 584 255 c 0x77
500 285 m 0
 512 285 522 290 523 308 c 0
 524 332 502 402 441 402 c 0
 357 402 335 285 337 285 c 1
 346 285 490 285 500 285 c 0
179 194 m 0
 143 181 118 154 118 116 c 0
 118 79 147 46 185 46 c 0x7b
 221 46 277 74 277 104 c 1
 266 128 257 195 257 220 c 1
 231 211 196 200 179 194 c 0
EndSplineSet
Validated: 33
Substitution2: "'smcp' Lowercase to Small Capitals lookup 2-1" ae.sc
EndChar

StartChar: eth
Encoding: 240 240 173
Width: 515
Flags: W
HStem: -7 33<206.397 312.579> 406 33<181.49 299.167> 664 24<85.2432 102.033>
VStem: 39 86<116.483 316.648> 374 87<128.32 327.909>
LayerCount: 2
Fore
SplineSet
345 699 m 17
 353 694 370 674 363 668 c 9
 127 509 l 17
 120 514 103 535 110 541 c 9
 345 699 l 17
246 439 m 0
 275 439 311 435 331 423 c 1
 308 482 266 588 80 664 c 1
 80 671 86 688 94 688 c 1
 265 649 461 456 461 247 c 3
 461 85 360 -7 255 -7 c 0
 119 -7 39 91 39 211 c 0
 39 319 107 439 246 439 c 0
233 406 m 0
 153 406 125 319 125 227 c 0
 125 129 177 26 258 26 c 0
 337 26 374 104 374 202 c 0
 374 257 365 308 354 329 c 0
 326 382 287 406 233 406 c 0
EndSplineSet
Validated: 37
Substitution2: "'smcp' Lowercase to Small Capitals lookup 2-1" eth.sc
EndChar

StartChar: divide
Encoding: 247 247 180
Width: 585
Flags: W
HStem: 5 100<252.062 330.953> 215 63<61.7375 519.903> 390 97<251.648 331.938>
VStem: 243 98<14.7026 96.0879 398.935 478.404>
LayerCount: 2
Fore
SplineSet
292 390 m 0
 265 390 246 408 243 435 c 1
 243 439 l 2
 243 464 266 487 292 487 c 0
 319 487 338 470 341 443 c 1
 341 438 l 2
 341 414 318 390 292 390 c 0
292 5 m 0
 265 5 246 25 243 52 c 1
 243 56 l 2
 243 81 266 105 292 105 c 0
 319 105 338 84 341 57 c 1
 341 55 l 2
 341 31 318 5 292 5 c 0
58 224 m 0
 58 226 61 278 72 278 c 2
 521 278 l 1
 521 278 528 277 528 268 c 0
 528 250 521 226 520 222 c 0
 518 216 512 215 512 215 c 1
 64 215 l 1
 64 215 58 214 58 224 c 0
EndSplineSet
Validated: 1
Substitution2: "'smcp' Lowercase to Small Capitals lookup 2-1" divide.sc
EndChar

StartChar: oslash
Encoding: 248 248 181
Width: 534
Flags: W
HStem: -8 21G<125 141.706> -7 33<212.699 319.24> 406 33<188.214 294.584> 417 20G<359.264 375.5>
VStem: 40 86<120.834 313.837> 381 86<116.337 309.213>
LayerCount: 2
Back
Refer: 813 -1 N 1 0 0 1 22 0 3
Fore
SplineSet
129 -8 m 17x9c
 121 -4 99 7 102 13 c 9
 372 437 l 17
 379 434 402 423 399 417 c 9
 129 -8 l 17x9c
EndSplineSet
Refer: 78 111 N 1 0 0 1 1 0 2
Validated: 37
Substitution2: "'smcp' Lowercase to Small Capitals lookup 2-1" oslash.sc
EndChar

StartChar: thorn
Encoding: 254 254 187
Width: 489
Flags: W
HStem: -226 29<-2.59634 62.2898 150.71 215.596> -8 35<178.172 294.721> 379 59<202.78 298.97> 629 27<-3.82275 58.7581> 674 20G<139.5 146>
VStem: 68 77<-190.581 2.99635 52.6571 362.458 379.002 623.698> 369 84<139.167 301.166>
LayerCount: 2
Fore
SplineSet
272 438 m 0
 396 438 453 318 453 232 c 0
 453 103 332 -8 219 -8 c 0
 193 -8 165 -2 149 3 c 1
 149 3 145 -2 145 -10 c 2
 145 -107 l 2
 145 -137 145 -165 150 -181 c 0
 153 -192 201 -197 213 -197 c 1
 217 -202 218 -221 213 -226 c 1
 172 -224 145 -221 106 -221 c 0
 67 -221 41 -224 -0 -226 c 1
 -5 -221 -4 -202 -0 -197 c 1
 12 -197 60 -192 63 -181 c 0
 68 -165 68 -137 68 -107 c 2
 68 549 l 2
 68 566 66 593 62 613 c 1
 58 627 28 629 11 629 c 2
 2 629 l 2
 -2 629 -4 633 -4 640 c 0
 -4 642 -3 656 2 656 c 0
 111 666 138 694 141 694 c 2
 143 694 l 2
 149 694 155 683 156 678 c 1
 156 678 145 646 145 591 c 2
 145 591 145 391 145 383 c 0
 145 382 145 379 147 379 c 0
 148 379 149 380 150 381 c 0
 175 402 232 438 272 438 c 0
229 379 m 0
 188 379 145 354 145 340 c 2
 145 100 l 2
 145 48 203 27 238 27 c 0
 321 27 369 114 369 195 c 0
 369 314 305 379 229 379 c 0
EndSplineSet
Validated: 1
Substitution2: "'smcp' Lowercase to Small Capitals lookup 2-1" thorn.sc
EndChar

StartChar: Aogonek
Encoding: 260 260 193
Width: 620
Flags: W
HStem: -223 59<457.505 530.975> 2 24<-13.6875 36.2141 132.722 189.196 399.775 457.568 584.494 628.562> 252 42<201 376.999> 643 20G<318.5 324.5>
VStem: 399 54<-160.236 -83.2535>
LayerCount: 2
Fore
SplineSet
628 -3 m 1
 588 -1 562 2 518 2 c 0
 472 2 448 -1 402 -3 c 1
 397 2 398 21 403 26 c 1
 415 26 450 31 459 39 c 0
 462 42 463 47 463 53 c 0
 463 83 397 247 397 247 c 1
 397 247 394 251 391 251 c 0
 365 253 315 252 290 252 c 0
 249 252 230 252 185 249 c 0
 183 249 180 246 180 246 c 1
 180 246 150 173 134 125 c 16
 122 90 120 67 120 54 c 0
 120 30 179 26 187 26 c 1
 190 23 191 3 189 -3 c 1
 149 -1 136 2 92 2 c 0
 46 2 34 -1 -12 -3 c 1
 -15 0 -15 19 -12 26 c 1
 0 26 35 32 45 45 c 0
 65 71 78 103 92 139 c 2
 92 139 224 478 285 634 c 0
 291 650 314 663 323 663 c 0
 326 663 326 661 329 660 c 1
 329 660 549 80 558 60 c 0
 568 36 618 26 626 26 c 1
 631 19 629 0 628 -3 c 1
203 296 m 0
 229 295 266 294 289 294 c 0
 320 294 343 295 374 297 c 0
 376 297 377 302 377 302 c 1
 291 535 l 1
 201 300 l 1
 201 300 201 296 203 296 c 0
557 2 m 1
 513 -24 453 -77 453 -121 c 0
 453 -136 460 -164 494 -164 c 0
 545 -164 569 -126 575 -126 c 0
 576 -126 580 -131 580 -139 c 0
 580 -144 578 -153 575 -157 c 0
 553 -186 515 -223 470 -223 c 0
 414 -223 399 -173 399 -146 c 0
 399 -91 457 -32 511 2 c 1
 481 1 591 1 557 2 c 1
EndSplineSet
Validated: 37
EndChar

StartChar: aogonek
Encoding: 261 261 194
Width: 425
Flags: W
HStem: -223 59<266.505 339.975> -8 54<136.481 209.996> 398 38<156.777 267.5>
VStem: 35 83<64.4927 166.568> 50 81<294.824 353.758> 208 54<-160.236 -87.1945> 272 76<67.9015 223 245.918 361.958>
LayerCount: 2
Fore
SplineSet
185 46 m 0xf6
 220 46 272 77 272 87 c 2
 272 223 l 17
 245 215 197 201 179 194 c 0
 143 180 118 154 118 116 c 0
 118 79 147 46 185 46 c 0xf6
275 59 m 1
 263 47 187 -8 152 -8 c 0
 86 -8 35 42 35 107 c 0xf6
 35 148 63 179 85 187 c 0
 141 207 231 237 260 250 c 0
 270 254 272 257 272 275 c 2
 272 302 l 2
 272 347 235 398 186 398 c 0
 151 398 138 375 131 336 c 0
 125 302 109 288 84 288 c 0
 63 288 50 310 50 330 c 0xee
 50 334 53 349 57 354 c 1
 88 383 166 436 239 436 c 0
 296 436 348 376 348 299 c 2
 348 93 l 2
 348 66 356 46 379 46 c 0
 397 46 409 57 412 59 c 1
 415 59 416 54 416 51 c 0
 416 45 414 37 411 32 c 1
 401 25 387 15 375 7 c 0
 337 -20 262 -67 262 -121 c 0
 262 -136 269 -164 303 -164 c 0
 354 -164 378 -126 384 -126 c 0
 385 -126 389 -131 389 -139 c 0
 389 -144 387 -153 384 -157 c 0
 362 -186 324 -223 279 -223 c 0
 223 -223 208 -173 208 -146 c 0
 208 -102 263 -37 311 1 c 1
 294 11 277 35 275 59 c 1
EndSplineSet
Validated: 1
Substitution2: "'smcp' Lowercase to Small Capitals lookup 2-1" aogonek.sc
EndChar

StartChar: dcroat
Encoding: 273 273 206
Width: 510
Flags: W
HStem: -8 62<191.397 288.897> 20 27<437.72 495.784> 396 42<195.789 326.598> 525 35<214.529 490.01> 628 26<282.899 340.828> 674 20<406 429.5>
VStem: 38 84<130.201 291.813> 350 77<70.6579 374.572 428.007 621.593>
LayerCount: 2
Fore
SplineSet
220 560 m 1x3f
 249 560 471 560 485 560 c 0
 489 560 491 556 491 552 c 3
 491 547 489 533 485 525 c 1
 456 525 233 525 219 525 c 0
 215 525 214 533 214 537 c 3
 214 542 216 553 220 560 c 1x3f
EndSplineSet
Refer: 67 100 N 1 0 0 1 1 0 2
Validated: 5
Substitution2: "'smcp' Lowercase to Small Capitals lookup 2-1" dcroat.sc
EndChar

StartChar: Eogonek
Encoding: 280 280 213
Width: 585
Flags: W
HStem: -224 59<382.505 455.975> -3 29<40.0264 100.623> 0 40<212.604 428 457.522 461.608> 305 44<206 383.451> 612 44<209.637 446.25> 629 29<39.0898 102.882>
VStem: 119 87<49.5865 303.528 349.429 608.119> 324 54<-161.236 -85.8972> 412 32<226.002 283.868 369.107 423.976> 482 32<519.07 565.412>
LayerCount: 2
Fore
SplineSet
162 656 m 0x9bc0
 255 656 376 660 485 660 c 1
 492 610 505 569 514 524 c 1
 511 521 503 519 496 519 c 0
 489 519 483 521 482 526 c 0
 460 606 419 612 366 612 c 2
 299 612 l 2
 258 612 213 611 211 599 c 0
 207 580 206 538 206 515 c 2
 206 355 l 2
 206 350 227 349 249 349 c 2
 302 349 l 2
 398 349 395 351 412 417 c 0
 413 422 420 424 427 424 c 0
 434 424 441 422 444 419 c 1
 444 230 l 1
 442 228 435 226 428 226 c 0
 421 226 414 229 412 234 c 0
 397 291 393 291 384 297 c 0
 373 304 316 305 278 305 c 0
 250 305 206 305 206 296 c 2
 206 141 l 2
 206 122 208 70 215 50 c 0
 218 41 241 40 283 40 c 2
 331 40 l 2
 369 40 428 42 457 57 c 0
 476 67 504 105 520 158 c 0
 521 162 527 164 534 164 c 0
 544 164 556 161 559 158 c 1
 540 104 512 38 505 -6 c 1
 446 -6 378 -79 378 -122 c 0
 378 -137 385 -165 419 -165 c 0
 470 -165 494 -127 500 -127 c 0
 501 -127 504 -132 504 -140 c 0
 504 -145 503 -154 500 -158 c 0
 478 -187 440 -224 395 -224 c 0
 339 -224 324 -174 324 -147 c 0
 324 -95 377 -40 428 -5 c 1
 335 -3 267 0 164 0 c 0xbbc0
 117 0 43 -3 43 -3 c 1
 42 -2 40 4 40 13 c 0
 40 19 41 26 43 26 c 0
 55 26 104 35 112 49 c 0
 119 61 119 106 119 143 c 2
 119 521 l 2
 119 539 118 584 112 607 c 1
 107 619 55 629 43 629 c 0
 41 629 39 634 39 641 c 0
 39 648 41 656 43 658 c 1xd7c0
 43 658 95 656 162 656 c 0x9bc0
EndSplineSet
Validated: 1
EndChar

StartChar: eogonek
Encoding: 281 281 214
Width: 441
Flags: W
HStem: -224 59<242.505 315.975> -6 64<191.696 263> 232 42<120.122 325.999> 399 37<173.592 276.24>
VStem: 39 81<133.141 320.327> 184 54<-161.236 -80.1946> 326 81<246.5 350.117>
LayerCount: 2
Fore
SplineSet
227 399 m 0
 146 399 120 302 120 281 c 0
 120 278 121 274 126 274 c 0
 135 274 315 274 321 274 c 0
 325 274 326 280 326 284 c 0
 326 314 295 399 227 399 c 0
241 -6 m 0
 132 -6 39 88 39 209 c 0
 39 353 128 436 237 436 c 0
 368 436 407 329 407 261 c 0
 407 232 398 232 378 232 c 0
 296 232 210 232 126 232 c 0
 120 232 118 231 118 227 c 0
 118 156 161 58 266 58 c 0
 341 58 379 95 385 98 c 0
 386 98 391 93 391 85 c 0
 391 80 388 72 385 67 c 0
 376 54 361 39 342 26 c 0
 280 -20 238 -61 238 -122 c 0
 238 -137 245 -165 279 -165 c 0
 330 -165 354 -127 360 -127 c 0
 361 -127 364 -132 364 -140 c 0
 364 -145 363 -154 360 -158 c 0
 338 -187 300 -224 255 -224 c 0
 199 -224 184 -174 184 -147 c 0
 184 -107 223 -45 263 -5 c 1
 262 -5 248 -6 241 -6 c 0
EndSplineSet
Validated: 1
Substitution2: "'smcp' Lowercase to Small Capitals lookup 2-1" eogonek.sc
EndChar

StartChar: Hbar
Encoding: 294 294 227
Width: 714
Flags: W
HStem: -3 29<40.0058 104.855 220.335 281.234 432.188 495.855 610.335 671.997> 299 50<205 509> 470 38<79.157 118 205 509 596 641.843> 633 29<40.0511 103.079 221.221 281.234 432.188 494.079 611.221 671.993>
VStem: 118 87<36.9151 298.069 348.627 470 508 621.28> 509 87<36.9151 296.999 349.001 470 508 621.28>
LayerCount: 2
Fore
SplineSet
164 656 m 0
 208 656 240 660 280 662 c 1
 282 656 283 633 278 633 c 0
 270 633 217 623 214 612 c 0
 207 585 205 550 205 508 c 1
 217 507 301 507 359 507 c 0
 404 507 469 507 509 508 c 1
 509 544 508 589 502 612 c 1
 497 624 447 633 435 633 c 0
 430 633 430 657 435 662 c 1
 481 660 510 656 556 656 c 0
 600 656 630 660 670 662 c 1
 671 659 672 652 672 647 c 0
 672 641 671 633 668 633 c 0
 660 633 607 623 604 612 c 0
 597 585 596 548 596 508 c 1
 607 508 637 508 637 508 c 4
 641 508 642 500 642 495 c 7
 642 489 642 479 636 470 c 5
 607 470 596 470 596 470 c 1
 596 139 l 2
 596 103 597 73 604 46 c 0
 607 35 660 26 668 26 c 0
 671 26 672 17 672 11 c 0
 672 6 671 0 670 -3 c 1
 630 -1 600 2 556 2 c 0
 510 2 481 -1 435 -3 c 1
 430 2 430 26 435 26 c 0
 447 26 497 34 502 46 c 1
 508 69 509 117 509 135 c 2
 509 293 l 2
 509 295 507 297 507 297 c 1
 460 298 410 299 359 299 c 0
 205 299 205 298 205 294 c 2
 205 139 l 2
 205 103 207 73 214 46 c 0
 217 35 270 26 278 26 c 0
 283 26 282 3 280 -3 c 1
 240 -1 208 2 164 2 c 0
 118 2 90 -1 44 -3 c 1
 42 -1 40 6 40 12 c 0
 40 18 42 26 44 26 c 0
 56 26 106 34 111 46 c 1
 117 69 118 117 118 135 c 2
 118 470 l 1
 118 470 98 470 84 470 c 4
 80 470 79 478 79 483 c 7
 79 489 79 499 85 508 c 5
 85 508 111 508 118 508 c 1
 118 552 117 589 111 612 c 1
 106 624 56 633 44 633 c 0
 42 633 40 640 40 646 c 0
 40 652 42 660 44 662 c 1
 90 660 118 656 164 656 c 0
359 471 m 0
 311 471 250 471 205 470 c 9
 205 352 l 2
 205 351 206 349 207 349 c 0
 256 348 303 347 359 347 c 0
 406 347 462 348 507 349 c 1
 507 349 509 351 509 353 c 2
 509 470 l 17
 468 471 401 471 359 471 c 0
EndSplineSet
Validated: 1
EndChar

StartChar: hbar
Encoding: 295 295 228
Width: 512
Flags: W
HStem: -3 29<16.4037 81.2898 169.71 234.596 286.404 351.29 439.71 504.596> 380 58<238.761 325.184> 525 35<23.5288 299.01> 628 26<19.8986 77.8281> 674 20<143 166.5>
VStem: 87 77<32.4189 347.537 363.001 621.593> 357 77<32.4189 346.845>
LayerCount: 2
Fore
SplineSet
29 560 m 1
 58 560 280 560 294 560 c 0
 298 560 300 556 300 552 c 3
 300 547 298 533 294 525 c 1
 265 525 42 525 28 525 c 0
 24 525 23 533 23 537 c 3
 23 542 25 553 29 560 c 1
EndSplineSet
Refer: 71 104 N 1 0 0 1 0 0 2
Validated: 5
Substitution2: "'smcp' Lowercase to Small Capitals lookup 2-1" hbar.sc
EndChar

StartChar: Iogonek
Encoding: 302 302 235
Width: 325
Flags: W
HStem: -224 59<125.505 198.975> -3 29<41.0058 105.855 228.752 282.997> 633 29<41.0511 104.079 222.221 282.993>
VStem: 67 54<-161.236 -86.8884> 119 87<36.9151 621.28>
LayerCount: 2
Fore
SplineSet
165 657 m 0xe8
 209 657 241 660 281 662 c 1
 282 659 283 652 283 647 c 0
 283 641 282 633 279 633 c 0
 271 633 218 623 215 612 c 0
 208 585 206 555 206 519 c 2
 206 139 l 2xe8
 206 103 208 73 215 46 c 0
 218 35 271 26 279 26 c 0
 282 26 283 17 283 11 c 0
 283 6 282 0 281 -3 c 1
 263 -2 244 -1 228 0 c 1
 184 -26 121 -78 121 -122 c 0
 121 -137 128 -165 162 -165 c 0
 213 -165 237 -127 243 -127 c 0
 244 -127 247 -132 247 -140 c 0
 247 -145 246 -154 243 -158 c 0
 221 -187 183 -224 138 -224 c 0
 82 -224 67 -174 67 -147 c 0xf0
 67 -93 130 -33 183 2 c 1
 177 2 172 2 165 2 c 0
 119 2 91 -1 45 -3 c 1
 43 -1 41 6 41 12 c 0
 41 18 43 26 45 26 c 0
 57 26 107 34 112 46 c 1
 118 69 119 117 119 135 c 2
 119 523 l 2
 119 541 118 589 112 612 c 1
 107 624 57 633 45 633 c 0
 43 633 41 640 41 646 c 0
 41 652 43 660 45 662 c 1
 91 660 119 657 165 657 c 0xe8
EndSplineSet
Validated: 1
EndChar

StartChar: dotlessi
Encoding: 305 305 238
Width: 264
Flags: W
HStem: -3 29<28.1875 86.2849 189.966 247.593> 414 20G<175.5 179>
VStem: 99 77<36.4871 366.32>
LayerCount: 2
Fore
SplineSet
176 135 m 2
 176 102 177 73 184 46 c 0
 187 35 236 26 244 26 c 0
 249 26 249 3 247 -3 c 1
 207 -1 178 2 140 2 c 0
 99 2 72 -1 31 -3 c 1
 26 2 26 26 31 26 c 0
 43 26 89 35 92 46 c 0
 98 71 99 102 99 116 c 2
 99 305 l 2
 99 313 98 345 85 359 c 1
 63 386 27 376 27 382 c 0
 27 383 28 406 33 407 c 0
 78 414 134 422 171 433 c 0
 172 433 175 434 176 434 c 0
 182 434 182 418 181 413 c 0
 177 381 176 375 176 341 c 2
 176 135 l 2
EndSplineSet
Validated: 1
Substitution2: "'smcp' Lowercase to Small Capitals lookup 2-1" dotlessi.sc
EndChar

StartChar: kgreenlandic
Encoding: 312 312 245
Width: 526
Flags: W
HStem: -3 29<30.4037 95.2898 183.71 248.596 453.499 524.505> 368 26<29.1812 90.4485> 396 29<302.188 351.56 429.283 492.065>
VStem: 101 77<32.4189 116 298 361.708>
LayerCount: 2
Fore
SplineSet
178 358 m 2
 178 368 184 413 185 420 c 1
 185 425 179 436 174 436 c 1
 134 415 82 401 31 394 c 1
 27 389 29 370 31 368 c 1
 38 368 89 367 96 350 c 0
 101 338 101 311 101 298 c 2
 101 116 l 2
 101 86 101 58 96 42 c 0
 93 31 45 26 33 26 c 1
 29 21 28 2 33 -3 c 1
 74 -1 100 2 139 2 c 0
 178 2 205 -1 246 -3 c 1
 251 2 250 21 246 26 c 1
 234 26 186 31 183 42 c 0
 178 58 178 86 178 116 c 2
 178 204 l 1
 178 204 189 200 193 195 c 0
 250 133 336 40 336 40 c 2
 351 24 400 -4 459 -4 c 0
 486 -4 517 -1 524 2 c 1
 527 7 525 23 523 26 c 1
 497 25 457 32 431 53 c 0
 407 73 326 168 251 249 c 1
 310 299 402 365 413 373 c 0
 434 388 476 396 490 396 c 1
 493 400 494 419 490 425 c 1
 468 422 436 420 402 420 c 0
 370 420 335 422 306 425 c 1
 301 423 299 403 304 396 c 1
 313 395 352 394 352 379 c 0
 352 369 312 340 260 296 c 0
 226 267 195 241 178 235 c 1
 178 358 l 2
EndSplineSet
Validated: 41
Substitution2: "'smcp' Lowercase to Small Capitals lookup 2-1" kgreenlandic.sc
EndChar

StartChar: Lslash
Encoding: 321 321 254
Width: 563
Flags: W
HStem: -3 29<46.4037 117.252> 0 37<216.612 451.034> 633 29<46.4037 117.252 215.748 286.596>
VStem: 123 87<47.2685 626.257>
LayerCount: 2
Fore
SplineSet
385 447 m 5x30
 390 442 407 419 403 416 c 13
 52 178 l 5
 46 184 31 204 35 207 c 13
 385 447 l 5x30
EndSplineSet
Refer: 43 76 N 1 0 0 1 5 0 2
Validated: 37
EndChar

StartChar: lslash
Encoding: 322 322 255
Width: 251
Flags: W
HStem: -3 29<17.4037 82.2898 170.71 235.596> 628 26<20.8986 78.8281> 674 20<144 167.5>
VStem: 88 77<32.4189 621.593>
LayerCount: 2
Fore
SplineSet
34 260 m 1
 28 266 15 284 19 288 c 9
 216 423 l 1
 221 418 236 400 232 396 c 9
 34 260 l 1
EndSplineSet
Refer: 75 108 N 1 0 0 1 1 0 2
Validated: 5
Substitution2: "'smcp' Lowercase to Small Capitals lookup 2-1" lslash.sc
EndChar

StartChar: Eng
Encoding: 330 330 262
Width: 734
Flags: W
HStem: -227 60<389 490.01> -3 29<33.0029 101.782 199.656 267.234> 633 29<37.1875 109.794 475.074 548.881 635.826 709.993>
VStem: 126 56<41.3891 567.234> 564 55<172.79 620.656>
LayerCount: 2
Fore
SplineSet
619 85 m 2
 619 -78 551 -227 401 -227 c 0
 377 -227 349 -211 349 -211 c 1
 344 -205 337 -189 337 -174 c 0
 337 -143 367 -124 399 -124 c 0
 433 -124 447 -167 475 -167 c 0
 506 -167 554 -113 563 28 c 0
 182 568 l 1
 182 141 l 2
 182 105 182 75 189 48 c 0
 192 37 256 26 264 26 c 0
 269 26 268 3 266 -3 c 1
 226 -1 195 2 151 2 c 0
 105 2 82 -1 36 -3 c 1
 34 -1 33 6 33 12 c 0
 33 18 34 26 36 26 c 0
 48 26 111 37 116 50 c 0
 126 76 126 106 126 144 c 0
 126 275 126 406 126 537 c 0
 126 565 125 590 119 612 c 1
 114 624 52 633 40 633 c 0
 35 633 35 657 40 662 c 1
 79 661 96 660 142 660 c 0
 172 660 208 661 222 662 c 1
 267 579 450 327 561 172 c 1
 564 189 564 197 564 213 c 2
 564 524 l 2
 564 541 563 589 557 612 c 1
 552 624 490 635 478 635 c 0
 473 635 473 657 478 662 c 1
 524 660 550 656 596 656 c 0
 640 656 668 660 708 662 c 1
 709 659 710 652 710 647 c 0
 710 641 709 635 706 635 c 0
 698 635 630 623 627 612 c 0
 620 585 619 555 619 519 c 2
 619 85 l 2
EndSplineSet
Validated: 1
EndChar

StartChar: eng
Encoding: 331 331 263
Width: 514
Flags: W
HStem: -3 29<28.1875 86.2849 189.966 247.593> 371 67<238.8 332.51>
VStem: 99 77<36.4871 338.864> 369 77<-82.6719 331.999>
LayerCount: 2
Fore
SplineSet
446 251 m 2
 446 68 l 2
 446 32 442 -65 407 -120 c 0
 371 -177 310 -217 273 -231 c 1
 268 -228 263 -221 261 -216 c 0
 260 -214 259 -210 260 -209 c 0
 262 -203 369 -182 369 46 c 2
 369 227 l 2
 369 333 332 371 271 371 c 0
 226 371 179 323 176 316 c 1
 176 135 l 2
 176 102 177 73 184 46 c 0
 187 35 236 26 244 26 c 0
 249 26 249 3 247 -3 c 1
 207 -1 178 2 140 2 c 0
 99 2 72 -1 31 -3 c 1
 26 2 26 26 31 26 c 0
 43 26 89 35 92 46 c 0
 98 71 99 102 99 116 c 2
 99 305 l 2
 99 313 98 345 85 359 c 1
 63 386 27 376 27 382 c 0
 27 383 28 406 33 407 c 0
 78 414 134 422 171 433 c 0
 172 433 175 434 176 434 c 0
 182 434 182 418 181 413 c 0
 178 392 176 369 176 369 c 1
 176 367 181 367 181 367 c 1
 204 391 251 438 308 438 c 27
 399 438 446 365 446 251 c 2
EndSplineSet
Validated: 1
Substitution2: "'smcp' Lowercase to Small Capitals lookup 2-1" eng.sc
EndChar

StartChar: OE
Encoding: 338 338 270
Width: 1014
Flags: W
HStem: -7 34<312.584 494.256> 0 37<640.612 871.128> 312 37<634 811.451> 408 20G<851.5 858.5> 621 36<637.35 865.453> 630 37<274.272 472.187>
VStem: 47 99<216.52 447.375> 547 87<71.3698 310.528 349.429 571.53> 840 32<230.002 289.298 372.014 427.976> 910 32<523.07 569.412>
LayerCount: 2
Fore
SplineSet
592 0 m 24x7bc0
 546 0 503 -1 474 -3 c 0
 459 -4 386 -7 361 -7 c 0
 185 -7 47 141 47 328 c 0
 47 515 197 667 366 667 c 0xb7c0
 391 667 526 656 591 657 c 0
 685 657 804 664 913 664 c 1
 920 614 933 573 942 528 c 1
 939 525 931 523 924 523 c 0
 917 523 911 525 910 530 c 0
 888 610 847 621 794 621 c 2
 708 621 l 0
 696 621 642 620 639 610 c 0
 634 594 634 566 634 539 c 2
 634 355 l 2
 634 350 655 349 677 349 c 2
 730 349 l 2
 826 349 823 355 840 421 c 0
 841 426 848 428 855 428 c 0
 862 428 869 426 872 423 c 1
 872 234 l 1
 870 232 863 230 856 230 c 0
 849 230 842 233 840 238 c 0
 825 295 821 298 812 304 c 0
 801 311 744 312 706 312 c 0
 678 312 634 312 634 303 c 2
 634 116 l 2
 634 101 634 52 640 47 c 0
 653 37 669 37 711 37 c 2
 759 37 l 2
 797 37 856 46 885 61 c 0
 904 71 932 109 948 162 c 0
 949 166 955 168 962 168 c 0
 972 168 984 165 987 162 c 1
 968 108 940 40 933 -4 c 1
 824 -4 725 0 592 0 c 24x7bc0
353 630 m 0
 208 630 146 484 146 350 c 0
 146 195 232 27 387 27 c 0
 442 27 500 33 523 68 c 0
 547 104 547 138 547 192 c 2
 547 488 l 2
 547 523 543 558 512 586 c 0
 474 621 423 630 353 630 c 0
EndSplineSet
Validated: 33
EndChar

StartChar: oe
Encoding: 339 339 271
Width: 774
Flags: W
HStem: -8 64<537.292 667.098> -7 33<211.699 318.27> 248 37<462 647.487> 406 33<187.214 294.88 524.136 604.574>
VStem: 39 86<120.834 313.837> 380 77<142.863 244.017> 648 85<285.847 368.285>
LayerCount: 2
Fore
SplineSet
241 406 m 0x7e
 156 406 125 319 125 233 c 0
 125 136 174 26 264 26 c 0
 349 26 380 113 380 198 c 0
 380 295 330 406 241 406 c 0x7e
566 402 m 0
 482 402 460 285 462 285 c 0
 471 285 615 285 625 285 c 0
 637 285 647 290 648 308 c 0
 649 332 627 402 566 402 c 0
620 56 m 0xbe
 675 56 717 94 730 109 c 0
 731 109 738 103 738 95 c 0
 738 90 735 82 732 77 c 0
 714 48 664 -8 586 -8 c 0xbe
 514 -8 456 25 421 78 c 1
 383 26 323 -7 254 -7 c 0x7e
 122 -7 39 88 39 213 c 0
 39 342 131 439 252 439 c 0
 334 439 397 403 433 346 c 1
 473 403 531 438 583 438 c 0
 703 438 733 342 733 302 c 0
 733 273 728 256 709 255 c 0
 681 254 497 249 457 248 c 1
 457 101 548 56 620 56 c 0xbe
EndSplineSet
Validated: 33
Substitution2: "'smcp' Lowercase to Small Capitals lookup 2-1" oe.sc
EndChar

StartChar: Tbar
Encoding: 358 358 290
Width: 621
Flags: W
HStem: -3 29<191.404 262.252 360.748 431.596> 311 37<170.337 489.828> 624 37<92.4258 268 355 528.638>
VStem: 10 34<499.671 557.649> 268 87<32.7426 624> 577 34<499.671 557.649>
LayerCount: 2
Fore
SplineSet
488 311 m 1
 459 311 186 311 172 311 c 1
 168 311 167 339 173 348 c 1
 202 348 474 348 488 348 c 1
 492 348 492 320 488 311 c 1
EndSplineSet
Refer: 51 84 N 1 0 0 1 0 0 2
Validated: 37
EndChar

StartChar: tbar
Encoding: 359 359 291
Width: 316
Flags: W
HStem: -7 48<181.894 275.512> 268 40<20.1905 299.084> 374 48<159 299.919>
VStem: 82 77<63.875 374>
LayerCount: 2
Fore
SplineSet
129 526 m 1
 141 526 159 525 159 521 c 2
 159 422 l 1
 203 422 280 421 294 421 c 0
 299 421 302 418 302 412 c 0
 302 403 299 388 292 374 c 1
 159 374 l 1
 159 129 l 2
 159 76 189 41 233 41 c 0
 257 41 290 57 295 60 c 0
 300 63 310 41 309 40 c 0
 294 24 248 -7 199 -7 c 0
 137 -7 82 34 82 120 c 2
 82 374 l 1
 24 374 l 2
 21 374 19 387 19 395 c 0
 19 399 19 401 20 402 c 1
 36 409 61 429 83 455 c 0
 107 484 126 522 129 526 c 1
26 308 m 1
 55 308 280 308 294 308 c 0
 298 308 300 303 300 298 c 3
 300 292 298 277 294 268 c 1
 265 268 39 268 25 268 c 0
 21 268 20 276 20 281 c 3
 20 287 20 299 26 308 c 1
EndSplineSet
Validated: 5
Substitution2: "'smcp' Lowercase to Small Capitals lookup 2-1" tbar.sc
EndChar

StartChar: Uogonek
Encoding: 370 370 302
Width: 704
VWidth: 0
Flags: W
HStem: -224 59<358.505 431.133> 0 49<287.945 433.004> 633 29<25.0511 88.0787 206.221 266.997 456.074 529.881 616.826 690.993>
VStem: 103 87<165.404 621.28> 300 54<-161.236 -80.4004> 545 55<140.793 620.656>
LayerCount: 2
Fore
SplineSet
149 657 m 0
 193 657 225 660 265 662 c 1
 266 659 267 654 267 648 c 0
 267 641 266 633 263 633 c 0
 255 633 202 623 199 612 c 0
 192 585 190 555 190 519 c 2
 190 296 l 2
 190 148 254 49 374 49 c 0
 471 49 545 102 545 274 c 2
 545 524 l 2
 545 541 544 589 538 612 c 1
 533 624 471 635 459 635 c 0
 454 635 454 657 459 662 c 1
 505 660 531 656 577 656 c 0
 621 656 649 660 689 662 c 1
 690 659 691 652 691 647 c 0
 691 641 690 635 687 635 c 0
 679 635 611 623 608 612 c 0
 601 585 600 555 600 519 c 2
 600 276 l 2
 600 136 564 77 490 28 c 0
 430 -12 354 -64 354 -122 c 0
 354 -137 361 -165 395 -165 c 0
 446 -165 470 -127 476 -127 c 0
 477 -127 481 -132 481 -140 c 0
 481 -145 479 -153 476 -157 c 0
 454 -186 416 -224 371 -224 c 0
 315 -224 300 -174 300 -147 c 0
 300 -90 359 -22 403 3 c 1
 386 1 368 0 350 0 c 0
 199 0 103 79 103 296 c 2
 103 523 l 2
 103 541 102 589 96 612 c 1
 91 624 41 633 29 633 c 0
 27 633 25 640 25 646 c 0
 25 652 27 660 29 662 c 1
 75 660 103 657 149 657 c 0
EndSplineSet
Validated: 1
EndChar

StartChar: uogonek
Encoding: 371 371 303
Width: 501
Flags: W
HStem: -227 59<340.505 413.975> -7 61<191.445 275.477> 20 27<429.536 482.58> 414 20G<156.5 160 414.5 418>
VStem: 80 76<93.494 366.601> 282 54<-164.236 -87.7532> 338 76<82.3558 366.601>
LayerCount: 2
Fore
SplineSet
414 341 m 2xde
 414 141 l 2
 414 130 415 93 421 65 c 0
 426 46 477 48 480 47 c 0
 482 46 483 39 483 36 c 0
 483 34 480 20 475 20 c 0xbe
 468 20 462 19 455 18 c 0
 416 12 336 -73 336 -125 c 0
 336 -140 343 -168 377 -168 c 0
 428 -168 452 -130 458 -130 c 0
 459 -130 463 -135 463 -143 c 0
 463 -148 461 -157 458 -161 c 0
 436 -190 398 -227 353 -227 c 0
 297 -227 282 -177 282 -150 c 0
 282 -107 338 -28 382 2 c 1
 365 -3 346 -8 346 -8 c 0
 341 -8 338 1 338 8 c 2
 338 59 l 2
 338 64 336 64 336 64 c 1
 308 34 256 -7 205 -7 c 0
 99 -7 80 109 80 179 c 2
 80 305 l 2
 80 313 79 345 66 359 c 1
 44 386 8 376 8 382 c 0
 8 383 9 406 14 407 c 0
 59 414 115 422 152 433 c 0
 153 433 156 434 157 434 c 0
 163 434 163 418 162 413 c 0
 158 381 156 373 156 339 c 2
 156 204 l 2
 156 103 184 54 254 54 c 0
 298 54 338 98 338 118 c 2
 338 305 l 2
 338 313 337 345 324 359 c 1
 302 386 266 376 266 382 c 0
 266 383 267 406 272 407 c 0
 317 414 373 422 410 433 c 0
 411 433 414 434 415 434 c 0
 421 434 421 418 420 413 c 0
 416 381 414 375 414 341 c 2xde
EndSplineSet
Validated: 1
Substitution2: "'smcp' Lowercase to Small Capitals lookup 2-1" uogonek.sc
EndChar

StartChar: uni0218
Encoding: 536 536 316
Width: 500
Flags: W
HStem: -227 181<216 284> -10 41<168.824 323.72> 625 41<182.362 318.749>
VStem: 45 41<119.3 183.72> 65 80<454.853 571.509> 242 64<-171.345 -91> 372 87<89.7983 213.651>
LayerCount: 2
Fore
SplineSet
205 -101 m 0xe6
 205 -76 224 -46 284 -46 c 1
 296 -56 306 -83 306 -99 c 0
 306 -168 254 -208 224 -225 c 0
 223 -226 220 -227 216 -227 c 0
 203 -227 196 -223 196 -220 c 0
 196 -215 242 -185 242 -161 c 0
 242 -134 205 -131 205 -101 c 0xe6
65 490 m 0xee
 65 596 161 666 261 666 c 0
 323 666 346 653 412 638 c 1
 424 585 424 522 424 495 c 0
 424 488 417 488 414 488 c 0
 410 488 390 488 388 498 c 0
 382 548 333 625 254 625 c 0
 166 625 145 569 145 521 c 0xee
 145 441 219 408 285 366 c 0
 351 324 459 272 459 173 c 0
 459 63 357 -10 250 -10 c 0
 182 -10 119 9 70 19 c 1
 58 78 45 166 45 178 c 0
 45 183 54 184 61 184 c 0
 72 184 83 179 86 175 c 1xf6
 93 145 120 31 252 31 c 0
 314 31 372 68 372 146 c 0
 372 229 308 250 239 290 c 0
 162 335 65 389 65 490 c 0xee
EndSplineSet
Validated: 1
EndChar

StartChar: uni0219
Encoding: 537 537 317
Width: 367
Flags: W
HStem: -227 181<142 210> -11 36<122.44 228.209> 402 35<141.116 240.962>
VStem: 42 28<81.3744 117.998> 47 77<294.31 381.036> 168 64<-171.345 -91> 249 81<55.7917 143.901> 278 28<317.037 357.157>
LayerCount: 2
Fore
SplineSet
131 -101 m 0xe4
 131 -76 150 -46 210 -46 c 1
 222 -56 232 -83 232 -99 c 0
 232 -168 180 -208 150 -225 c 0
 149 -226 146 -227 142 -227 c 0
 129 -227 122 -223 122 -220 c 0
 122 -215 168 -185 168 -161 c 0
 168 -134 131 -131 131 -101 c 0xe4
192 437 m 0
 231 437 250 429 294 424 c 1
 301 393 305 358 306 322 c 0
 306 318 298 317 293 317 c 0
 288 317 279 319 278 324 c 0
 272 358 239 402 196 402 c 0
 148 402 124 379 124 343 c 0xed
 124 291 175 276 220 249 c 0
 265 222 330 190 330 127 c 0
 330 46 257 -11 176 -11 c 0
 130 -11 103 0 59 8 c 1
 51 29 42 86 42 112 c 1
 46 115 49 118 54 118 c 0
 61 118 69 119 70 112 c 0xf6
 77 76 123 25 176 25 c 0
 217 25 249 47 249 93 c 0
 249 154 178 175 120 209 c 0
 80 232 47 262 47 315 c 0xee
 47 389 118 437 192 437 c 0
EndSplineSet
Validated: 1
Substitution2: "'smcp' Lowercase to Small Capitals lookup 2-1" uni0219.sc
EndChar

StartChar: uni021A
Encoding: 538 538 318
Width: 621
Flags: W
HStem: -227 181<300 368> -3 29<191.404 262.252 360.748 431.596> 624 37<92.4258 268 355 528.638>
VStem: 10 34<499.671 557.649> 268 87<32.7426 624> 326 64<-171.345 -91> 577 34<499.671 557.649>
LayerCount: 2
Fore
SplineSet
289 -101 m 0xf6
 289 -76 308 -46 368 -46 c 1
 380 -56 390 -83 390 -99 c 0
 390 -168 338 -208 308 -225 c 0
 307 -226 304 -227 300 -227 c 0
 287 -227 280 -223 280 -220 c 0
 280 -215 326 -185 326 -161 c 0
 326 -134 289 -131 289 -101 c 0xf6
EndSplineSet
Refer: 51 84 N 1 0 0 1 0 0 2
Validated: 1
EndChar

StartChar: uni021B
Encoding: 539 539 319
Width: 307
Flags: W
HStem: -227 181<130 198> -7 54<176.456 252.292> 391 41<27.9629 83 160 292.375>
VStem: 83 77<62.1149 391 432 519.684> 156 64<-171.345 -91>
LayerCount: 2
Fore
SplineSet
119 -101 m 0xe8
 119 -76 138 -46 198 -46 c 1
 210 -56 220 -83 220 -99 c 0
 220 -168 168 -208 138 -225 c 0
 137 -226 134 -227 130 -227 c 0
 117 -227 110 -223 110 -220 c 0
 110 -215 156 -185 156 -161 c 0
 156 -134 119 -131 119 -101 c 0xe8
EndSplineSet
Refer: 83 116 N 1 0 0 1 1 0 2
Validated: 1
Substitution2: "'smcp' Lowercase to Small Capitals lookup 2-1" uni021B.sc
EndChar

StartChar: uni0237
Encoding: 567 567 320
Width: 264
Flags: W
HStem: 414 20G<208.5 212>
VStem: 132 77<-83.5328 366.601>
LayerCount: 2
Fore
SplineSet
132 305 m 2
 132 313 131 345 118 359 c 1
 96 386 60 376 60 382 c 0
 60 383 61 406 66 407 c 0
 111 414 167 422 204 433 c 0
 205 433 208 434 209 434 c 0
 215 434 215 418 214 413 c 0
 210 381 209 375 209 341 c 2
 209 68 l 2
 209 32 205 -65 170 -120 c 0
 134 -177 73 -217 36 -231 c 1
 31 -228 26 -221 24 -216 c 0
 23 -214 22 -210 23 -209 c 0
 25 -203 132 -183 132 45 c 2
 132 305 l 2
EndSplineSet
Validated: 1
EndChar

StartChar: uni02BB
Encoding: 699 699 321
Width: 470
Flags: W
HStem: 476 181<529 597>
VStem: 507 64<521 600.267>
LayerCount: 2
Fore
SplineSet
608 531 m 0
 608 506 589 476 529 476 c 1
 517 486 507 513 507 529 c 0
 507 598 564 642 589 655 c 0
 590 656 593 657 597 657 c 0
 610 657 617 653 617 650 c 0
 617 645 571 615 571 591 c 0
 571 564 608 561 608 531 c 0
EndSplineSet
Validated: 1
EndChar

StartChar: afii57929
Encoding: 700 700 322
Width: 140
Flags: W
HStem: 461 213
VStem: 54 58<529.479 628.5>
LayerCount: 2
Fore
SplineSet
76 674 m 0
 83 674 92 671 98 668 c 1
 104 658 112 645 112 612 c 0
 112 562 82 505 42 461 c 1
 36 461 23 467 23 472 c 1
 41 495 54 523 54 553 c 0
 54 600 26 598 26 632 c 0
 26 650 45 674 76 674 c 0
EndSplineSet
Validated: 1
EndChar

StartChar: uni02C0
Encoding: 704 704 323
Width: 469
Flags: W
HStem: 579 37<504.073 565.479>
VStem: 508 42<451.404 496.421> 569 52<518.671 576.434>
LayerCount: 2
Fore
SplineSet
535 579 m 4
 508 579 496 541 479 541 c 4
 464 541 461 556 461 562 c 5
 472 578 511 616 557 616 c 4
 592 616 621 597 621 560 c 4
 621 530 588 510 569 495 c 4
 559 487 550 482 550 472 c 4
 550 466 553 461 555 458 c 5
 555 455 546 450 539 450 c 4
 523 450 508 460 508 477 c 4
 508 488 533 503 550 517 c 4
 562 527 569 537 569 549 c 4
 569 565 553 579 535 579 c 4
EndSplineSet
Validated: 1
EndChar

StartChar: circumflex
Encoding: 710 710 324
Width: 467
Flags: W
HStem: 517 154
VStem: 548 210
LayerCount: 2
Fore
SplineSet
653 671 m 0
 657 671 661 667 664 662 c 0
 698 607 719 581 758 530 c 1
 758 523 752 517 747 517 c 1
 708 551 653 600 653 600 c 25
 653 600 598 551 559 517 c 1
 554 517 548 523 548 530 c 1
 587 581 608 607 642 662 c 0
 645 667 649 671 653 671 c 0
EndSplineSet
Validated: 1
EndChar

StartChar: caron
Encoding: 711 711 325
Width: 467
Flags: W
HStem: 492 154
VStem: 548 210
LayerCount: 2
Fore
SplineSet
653 492 m 0
 649 492 645 496 642 501 c 0
 608 556 587 582 548 633 c 1
 548 640 554 646 559 646 c 1
 598 612 653 563 653 563 c 25
 653 563 708 612 747 646 c 1
 752 646 758 640 758 633 c 1
 719 582 698 556 664 501 c 0
 661 496 657 492 653 492 c 0
EndSplineSet
Validated: 1
EndChar

StartChar: breve
Encoding: 728 728 326
Width: 467
Flags: W
HStem: 520 46<541.068 656.932> 621 20G<505 509 689 693>
VStem: 490 22<621.095 638.805> 686 22<620.096 638.805>
LayerCount: 2
Fore
SplineSet
599 566 m 0
 641 566 676 595 686 638 c 0
 686 640 688 641 690 641 c 0
 696 641 708 633 708 628 c 0
 708 627 707 622 707 620 c 0
 698 567 653 520 599 520 c 0
 545 520 500 564 491 621 c 0
 491 623 490 627 490 628 c 0
 490 633 502 641 508 641 c 0
 510 641 512 640 512 638 c 0
 522 595 557 566 599 566 c 0
EndSplineSet
Validated: 1
EndChar

StartChar: dotaccent
Encoding: 729 729 327
Width: 470
Flags: W
HStem: 495 100<557.438 640.562>
VStem: 549 100<503.438 586.562>
LayerCount: 2
Fore
SplineSet
549 545 m 0
 549 573 571 595 599 595 c 0
 627 595 649 573 649 545 c 0
 649 517 627 495 599 495 c 0
 571 495 549 517 549 545 c 0
EndSplineSet
Validated: 1
EndChar

StartChar: ring
Encoding: 730 730 328
Width: 468
Flags: W
HStem: 502 34<564.68 640.973> 647 34<563.263 641.425>
VStem: 515 33<552.832 630.822> 657 33<552.832 630.822>
LayerCount: 2
Fore
SplineSet
548 592 m 0
 548 561 573 536 603 536 c 0
 633 536 657 561 657 592 c 0
 657 623 633 647 603 647 c 0
 573 647 548 623 548 592 c 0
515 592 m 0
 515 641 555 681 603 681 c 0
 651 681 690 641 690 592 c 0
 690 543 651 502 603 502 c 0
 555 502 515 543 515 592 c 0
EndSplineSet
Validated: 1
EndChar

StartChar: ogonek
Encoding: 731 731 329
Width: 468
Flags: W
HStem: -218 59<547.505 620.133>
VStem: 489 54<-155.236 -80.9335>
LayerCount: 2
Fore
SplineSet
643 42 m 0
 660 42 684 37 672 25 c 0
 649 3 543 -52 543 -116 c 0
 543 -131 550 -159 584 -159 c 0
 635 -159 659 -121 665 -121 c 0
 666 -121 670 -126 670 -134 c 0
 670 -139 668 -147 665 -151 c 0
 643 -180 605 -218 560 -218 c 0
 504 -218 489 -168 489 -141 c 0
 489 -75 614 42 643 42 c 0
EndSplineSet
Validated: 33
EndChar

StartChar: hungarumlaut
Encoding: 733 733 331
Width: 464
Flags: W
HStem: 527 160<653 670>
VStem: 521 295
LayerCount: 2
Fore
SplineSet
775 687 m 0
 810 687 816 668 816 663 c 0
 816 624 670 527 660 527 c 0
 653 527 648 534 648 540 c 0
 648 546 705 637 741 678 c 0
 746 683 761 687 775 687 c 0
648 687 m 0
 683 687 689 668 689 663 c 0
 689 624 543 527 533 527 c 0
 526 527 521 534 521 540 c 0
 521 546 578 637 614 678 c 0
 619 683 634 687 648 687 c 0
EndSplineSet
Validated: 1
EndChar

StartChar: gravecomb
Encoding: 768 768 332
Width: 249
Flags: W
HStem: 524 160
VStem: 48 168
LayerCount: 2
Fore
SplineSet
48 660 m 0
 48 665 54 684 89 684 c 0
 103 684 118 680 123 675 c 0
 160 632 216 542 216 537 c 0
 216 531 211 524 204 524 c 0
 194 524 48 621 48 660 c 0
EndSplineSet
Validated: 1
EndChar

StartChar: acutecomb
Encoding: 769 769 333
Width: 235
Flags: W
HStem: 524 160
VStem: 47 168
LayerCount: 2
Fore
SplineSet
174 684 m 0
 209 684 215 665 215 660 c 0
 215 621 69 524 59 524 c 0
 52 524 47 531 47 537 c 0
 47 543 104 634 140 675 c 0
 145 680 160 684 174 684 c 0
EndSplineSet
Validated: 1
EndChar

StartChar: uni0302
Encoding: 770 770 334
Width: 430
Flags: W
HStem: 492 149
VStem: 82 199
LayerCount: 2
Fore
SplineSet
274 492 m 0
 263 492 208 534 181 558 c 1
 154 532 102 492 91 492 c 0
 85 492 82 510 82 515 c 1
 89 525 112 548 136 578 c 0
 149 594 162 612 173 631 c 0
 177 638 177 641 181 641 c 0
 185 641 188 637 191 631 c 0
 202 613 214 593 227 576 c 0
 253 543 280 518 281 515 c 1
 281 506 279 492 274 492 c 0
EndSplineSet
Validated: 1
EndChar

StartChar: tildecomb
Encoding: 771 771 335
Width: 377
Flags: W
HStem: 505 51<179.669 278.165> 548 50<71.4238 166.109>
VStem: 47 254<534 555.336>
LayerCount: 2
Fore
SplineSet
247 556 m 0xa0
 267 556 284 570 292 590 c 1
 294 591 295 591 296 591 c 0
 299 591 301 582 301 575 c 0
 301 534 256 505 232 505 c 0xa0
 205 505 184 516 164 527 c 0
 144 538 124 548 99 548 c 0
 81 548 64 534 56 514 c 1
 54 513 53 512 52 512 c 0
 49 512 47 518 47 525 c 0
 47 566 92 598 116 598 c 0x60
 143 598 163 587 184 576 c 0
 203 566 222 556 247 556 c 0xa0
EndSplineSet
Validated: 1
EndChar

StartChar: uni0304
Encoding: 772 772 336
Width: 388
Flags: W
HStem: 550 46<83.2097 300.904>
VStem: 82 225<550.013 596>
LayerCount: 2
Fore
SplineSet
82 559 m 0
 82 561 83 596 94 596 c 2
 302 596 l 2
 304 596 307 595 307 589 c 0
 307 584 306 575 301 557 c 0
 299 551 294 550 294 550 c 1
 88 550 l 1
 88 550 82 549 82 559 c 0
EndSplineSet
Validated: 1
EndChar

StartChar: uni0305
Encoding: 773 773 337
Width: 563
Flags: W
HStem: 739 63<-11.4404 578.903>
LayerCount: 2
Fore
SplineSet
-15 749 m 0
 -15 751 -12 802 -1 802 c 2
 581 802 l 2
 583 802 587 801 587 793 c 0
 587 775 580 750 579 746 c 0
 577 740 571 739 571 739 c 1
 -9 739 l 1
 -9 739 -15 739 -15 749 c 0
EndSplineSet
Validated: 1
EndChar

StartChar: uni0306
Encoding: 774 774 338
Width: 253
Flags: W
HStem: 520 46<67.068 182.932> 621 20G<31 35 215 219>
VStem: 16 22<621.095 638.805> 212 22<620.096 638.805>
LayerCount: 2
Fore
SplineSet
125 566 m 0
 167 566 202 595 212 638 c 0
 212 640 214 641 216 641 c 0
 222 641 234 633 234 628 c 0
 234 627 233 622 233 620 c 0
 224 567 179 520 125 520 c 0
 71 520 26 564 17 621 c 0
 17 623 16 627 16 628 c 0
 16 633 28 641 34 641 c 0
 36 641 38 640 38 638 c 0
 48 595 83 566 125 566 c 0
EndSplineSet
Validated: 1
EndChar

StartChar: uni0307
Encoding: 775 775 339
Width: 266
Flags: W
HStem: 495 100<83.4375 166.562>
VStem: 75 100<503.438 586.562>
LayerCount: 2
Fore
SplineSet
75 545 m 0
 75 573 97 595 125 595 c 0
 153 595 175 573 175 545 c 0
 175 517 153 495 125 495 c 0
 97 495 75 517 75 545 c 0
EndSplineSet
Validated: 1
EndChar

StartChar: uni0308
Encoding: 776 776 340
Width: 334
Flags: W
HStem: 471 92<38.6421 117.358 221.642 300.358>
VStem: 31 94<478.646 555.037> 214 94<478.646 555.037>
LayerCount: 2
Fore
SplineSet
262 563 m 0
 287 563 308 541 308 516 c 0
 308 491 286 471 261 471 c 0
 236 471 214 492 214 517 c 0
 214 542 237 563 262 563 c 0
79 563 m 0
 104 563 125 541 125 516 c 0
 125 491 103 471 78 471 c 0
 53 471 31 492 31 517 c 0
 31 542 54 563 79 563 c 0
EndSplineSet
Validated: 1
EndChar

StartChar: hookabovecomb
Encoding: 777 777 341
Width: 180
Flags: W
HStem: 626 29<69.258 120.225>
VStem: 19 46<570.661 622.444> 49 42<490.096 536.298> 125 41<563.096 624.757>
LayerCount: 2
Fore
SplineSet
112 655 m 0xd0
 147 655 166 634 166 604 c 0
 166 571 138 548 115 538 c 0
 97 530 91 525 91 513 c 0
 91 505 96 497 99 494 c 1
 99 489 88 480 83 480 c 1
 77 482 49 493 49 513 c 0xb0
 49 538 79 550 94 557 c 0
 114 566 125 577 125 594 c 0
 125 610 115 626 97 626 c 0
 77 626 65 617 65 590 c 0
 65 575 47 570 35 570 c 0
 28 570 19 574 19 579 c 0
 19 613 69 655 112 655 c 0xd0
EndSplineSet
Validated: 1
EndChar

StartChar: uni030A
Encoding: 778 778 342
Width: 246
Flags: W
HStem: 502 34<90.6802 166.973> 647 34<89.263 167.425>
VStem: 41 33<552.832 630.822> 183 33<552.832 630.822>
LayerCount: 2
Fore
SplineSet
74 592 m 0
 74 561 99 536 129 536 c 0
 159 536 183 561 183 592 c 0
 183 623 159 647 129 647 c 0
 99 647 74 623 74 592 c 0
41 592 m 0
 41 641 81 681 129 681 c 0
 177 681 216 641 216 592 c 0
 216 543 177 502 129 502 c 0
 81 502 41 543 41 592 c 0
EndSplineSet
Validated: 1
EndChar

StartChar: uni030B
Encoding: 779 779 343
Width: 365
Flags: W
HStem: 527 160<179 196>
VStem: 47 295
LayerCount: 2
Fore
SplineSet
301 687 m 0
 336 687 342 668 342 663 c 0
 342 624 196 527 186 527 c 0
 179 527 174 534 174 540 c 0
 174 546 231 637 267 678 c 0
 272 683 287 687 301 687 c 0
174 687 m 0
 209 687 215 668 215 663 c 0
 215 624 69 527 59 527 c 0
 52 527 47 534 47 540 c 0
 47 546 104 637 140 678 c 0
 145 683 160 687 174 687 c 0
EndSplineSet
Validated: 1
EndChar

StartChar: uni030C
Encoding: 780 780 344
Width: 430
Flags: W
HStem: 493 148
VStem: 82 200
LayerCount: 2
Fore
SplineSet
181 575 m 1
 208 599 263 641 274 641 c 0
 279 641 282 627 282 618 c 1
 281 615 253 590 227 557 c 0
 214 540 202 520 191 502 c 0
 188 496 186 493 182 493 c 0
 179 493 177 495 173 502 c 0
 162 521 149 538 136 554 c 0
 112 584 89 608 82 618 c 1
 82 623 85 641 91 641 c 0
 102 641 154 601 181 575 c 1
EndSplineSet
Validated: 1
EndChar

StartChar: uni0312
Encoding: 786 786 345
Width: 218
Flags: W
HStem: 476 181<55 123>
VStem: 33 64<521 600.267>
LayerCount: 2
Fore
SplineSet
134 531 m 0
 134 506 115 476 55 476 c 1
 43 486 33 513 33 529 c 0
 33 598 90 642 115 655 c 0
 116 656 119 657 123 657 c 0
 136 657 143 653 143 650 c 0
 143 645 97 615 97 591 c 0
 97 564 134 561 134 531 c 0
EndSplineSet
Validated: 1
EndChar

StartChar: uni0315
Encoding: 789 789 346
Width: 161
Flags: W
HStem: 465 187<52 119>
VStem: 73 61<527.257 624.398>
LayerCount: 2
Fore
SplineSet
51 601 m 0
 51 632 77 652 119 652 c 1
 129 640 134 618 134 590 c 0
 134 545 83 480 59 466 c 0
 58 465 54 465 52 465 c 0
 47 465 38 473 38 478 c 0
 38 481 73 503 73 548 c 0
 73 562 51 575 51 601 c 0
EndSplineSet
Validated: 1
EndChar

StartChar: uni0323
Encoding: 803 803 347
Width: 266
Flags: W
HStem: -132 100<105.438 188.562>
VStem: 97 100<-123.562 -40.4375>
LayerCount: 2
Fore
SplineSet
97 -82 m 0
 97 -54 119 -32 147 -32 c 0
 175 -32 197 -54 197 -82 c 0
 197 -110 175 -132 147 -132 c 0
 119 -132 97 -110 97 -82 c 0
EndSplineSet
Validated: 1
EndChar

StartChar: uni0326
Encoding: 806 806 348
Width: 218
Flags: W
HStem: -227 181<53 121>
VStem: 79 64<-171.345 -91>
LayerCount: 2
Fore
SplineSet
42 -101 m 0
 42 -76 61 -46 121 -46 c 1
 133 -56 143 -83 143 -99 c 0
 143 -168 91 -208 61 -225 c 0
 60 -226 57 -227 53 -227 c 0
 40 -227 33 -223 33 -220 c 0
 33 -215 79 -185 79 -161 c 0
 79 -134 42 -131 42 -101 c 0
EndSplineSet
Validated: 1
EndChar

StartChar: uni0327
Encoding: 807 807 349
Width: 452
Flags: W
HStem: -152 24<183.049 247.387> -61 34<225 252.414>
VStem: 257 37<-122.34 -64.0801>
LayerCount: 2
Fore
SplineSet
225 -27 m 1
 250 -27 l 2
 276 -27 294 -50 294 -76 c 0
 294 -123 252 -152 200 -152 c 0
 188 -152 172 -147 166 -143 c 1
 165 -138 163 -135 163 -129 c 0
 163 -122 171 -115 177 -115 c 0
 189 -115 198 -128 214 -128 c 0
 242 -128 257 -112 257 -95 c 0
 257 -71 239 -61 226 -61 c 0
 215 -61 210 -64 200 -68 c 0
 198 -68 188 -59 190 -55 c 0
 199 -40 214 -18 222 -4 c 1
 243 -4 l 1
 225 -27 l 1
EndSplineSet
Validated: 1
EndChar

StartChar: uni0328
Encoding: 808 808 350
Width: 219
Flags: W
HStem: -218 59<73.5049 146.133>
VStem: 15 54<-155.236 -80.9335>
LayerCount: 2
Fore
SplineSet
169 42 m 0
 186 42 210 37 198 25 c 0
 175 3 69 -52 69 -116 c 0
 69 -131 76 -159 110 -159 c 0
 161 -159 185 -121 191 -121 c 0
 192 -121 196 -126 196 -134 c 0
 196 -139 194 -147 191 -151 c 0
 169 -180 131 -218 86 -218 c 0
 30 -218 15 -168 15 -141 c 0
 15 -75 140 42 169 42 c 0
EndSplineSet
Validated: 33
EndChar

StartChar: alpha
Encoding: 945 945 351
Width: 498
Flags: W
HStem: -9 36<110.664 187.941> -3 75<362.063 450.184> 369 68<188.425 267.948>
VStem: 37 59<57.3161 225.373> 308 25<270 311.992> 397 56<377.756 403.439>
LayerCount: 2
Fore
SplineSet
342 133 m 1xbc
 352 78 372 72 397 72 c 0
 431 72 470 106 475 117 c 1
 483 114 488 99 488 94 c 0
 488 86 459 -3 409 -3 c 0x7c
 367 -3 325 54 320 103 c 1
 274 37 234 -9 171 -9 c 0
 92 -9 37 48 37 163 c 0
 37 235 89 437 217 437 c 0
 267 437 333 363 333 270 c 1
 360 336 386 407 397 436 c 1
 414 436 453 410 453 382 c 0
 453 355 432 302 415 266 c 0
 391 216 342 133 342 133 c 1xbc
235 369 m 0
 169 369 96 219 96 115 c 0
 96 53 113 27 143 27 c 0xbc
 213 27 308 186 308 219 c 1
 308 298 289 369 235 369 c 0
EndSplineSet
Validated: 1
EndChar

StartChar: beta
Encoding: 946 946 352
Width: 498
Flags: W
HStem: -228 21G<131 139> -6 61<233.668 334.016> 302 66<215.281 261.432> 638 55<209.048 319.107>
VStem: 74 63<-209.944 230.458> 74 51<155.054 522.18> 355 40<462.309 602.966> 394 65<120.159 275.16>
LayerCount: 2
Fore
SplineSet
394 215 m 0xf1
 394 276 372 337 318 337 c 0
 314 337 309 336 305 334 c 1
 279 311 255 302 243 302 c 1
 237 305 225 312 217 322 c 24
 210 331 206 338 206 350 c 0
 206 357 212 363 222 368 c 0
 304 406 355 455 355 545 c 0
 355 599 321 638 273 638 c 0
 175 638 125 520 125 376 c 0xf6
 125 330 136 59 137 0 c 0
 138 -70 151 -190 159 -211 c 1
 152 -221 144 -228 134 -228 c 0
 128 -228 74 -207 74 -192 c 2xf8
 74 401 l 2
 74 602 147 693 239 693 c 0
 360 693 395 581 395 508 c 0xf6
 395 461 365 405 336 368 c 1
 393 350 459 277 459 184 c 0
 459 68 387 -6 317 -6 c 0
 236 -6 193 45 178 69 c 1
 176 76 176 75 176 83 c 0
 176 87 179 94 181 94 c 0
 187 94 209 55 275 55 c 0
 325 55 394 103 394 215 c 0xf1
EndSplineSet
Validated: 1
EndChar

StartChar: gamma
Encoding: 947 947 353
Width: 463
Flags: W
HStem: -226 21G<211.5 227.5> 362 71<56.1115 153.629>
VStem: 170 81<-206.919 -74.4783> 230 26<83 167.384> 381 51<310.404 416.603>
LayerCount: 2
Fore
SplineSet
251 -197 m 0xe8
 248 -215 234 -226 221 -226 c 0
 202 -226 170 -183 170 -164 c 0xe8
 170 -146 201 -34 230 40 c 1
 230 83 224 93 222 123 c 0
 206 325 152 362 88 362 c 0
 62 362 38 341 31 332 c 1
 28 332 24 337 21 342 c 0
 19 346 18 350 18 353 c 1
 31 397 71 433 111 433 c 0
 200 432 244 288 253 155 c 0
 254 142 256 91 256 83 c 1xd8
 292 156 323 213 352 290 c 0
 381 367 381 395 381 422 c 0
 381 434 390 436 392 436 c 0
 406 436 432 373 432 355 c 0
 432 333 425 292 397 226 c 0
 361 142 276 6 266 -10 c 1
 263 -28 260 -138 251 -197 c 0xe8
EndSplineSet
Validated: 1
EndChar

StartChar: delta
Encoding: 948 948 354
Width: 462
Flags: W
HStem: -6 53<153.721 288.695> 376 46<218.182 260.059>
VStem: 59 54<103.029 257.856> 117 65<573.394 659> 360 62<123.166 264.221>
LayerCount: 2
Fore
SplineSet
117 650 m 0
 117 668 143 696 188 690 c 0
 257 681 368 566 388 534 c 0
 398 518 403 504 403 493 c 0
 403 489 395 479 393 482 c 1
 368 518 269 624 199 624 c 0
 186 624 182 617 182 607 c 0
 182 554 207 524 279 438 c 0
 335 372 422 262 422 186 c 0
 422 76 357 -6 234 -6 c 0
 109 -6 59 126 59 200 c 0
 59 340 132 392 193 422 c 1
 216 422 241 418 261 408 c 1
 192 492 117 576 117 650 c 0
282 376 m 1
 202 374 113 266 113 172 c 0
 113 101 141 47 220 47 c 0
 285 47 360 103 360 217 c 0
 360 289 321 335 282 376 c 1
EndSplineSet
Validated: 33
EndChar

StartChar: epsilon
Encoding: 949 949 355
Width: 357
Flags: W
HStem: -5 61<91.3197 270.34> 375 60<150.553 279.214>
VStem: 40 35<73.0939 144.275> 49 44<246.873 325.841>
LayerCount: 2
Fore
SplineSet
75 110 m 0xe0
 75 64 121 56 173 56 c 0
 262 56 334 106 339 106 c 0
 343 106 345 103 345 99 c 0
 345 90 344 83 342 77 c 1
 306 33 253 -5 188 -5 c 0
 101 -5 40 34 40 104 c 0xe0
 40 141 75 186 115 216 c 1
 78 226 49 257 49 292 c 0
 49 389 138 435 191 435 c 0
 267 435 304 396 312 387 c 0
 314 384 316 380 316 375 c 0
 316 369 313 361 310 358 c 1
 296 366 264 375 237 375 c 0
 153 375 93 320 93 280 c 0xd0
 93 249 133 235 150 235 c 1
 173 244 204 257 231 257 c 0
 237 257 245 255 251 253 c 1
 263 243 275 228 275 212 c 0
 275 209 276 198 267 198 c 0
 190 198 75 164 75 110 c 0xe0
EndSplineSet
Validated: 1
EndChar

StartChar: zeta
Encoding: 950 950 356
Width: 388
VWidth: 295
Flags: W
HStem: -3 71<91.2025 290.116> 12 74<155.638 320.255> 673 20G<335 355.5> 674 10<164.74 171.488>
VStem: 39 33<95.8492 246.304> 70 60<571.813 651.768> 321 48<-54.2165 30.5>
LayerCount: 2
Fore
SplineSet
293 -106 m 1x4a
 289 -106 272 -103 272 -93 c 1
 290 -83 321 -56 321 -17 c 0
 321 2 304 12 285 12 c 3x4a
 251 12 200 -3 150 -3 c 3
 64 -3 39 52 39 132 c 1x8a
 39 254 102 396 185 536 c 1
 185 536 70 544 70 606 c 0
 70 662 148 681 158 684 c 1
 168 684 172 679 172 674 c 1
 153 664 130 629 130 608 c 0x96
 130 567 180 559 201 559 c 1
 252 629 321 693 349 693 c 0
 362 693 379 656 379 645 c 0
 379 630 377 622 358 608 c 0
 342 596 299 566 273 546 c 0
 205 492 72 299 72 155 c 0
 72 74 123 68 157 68 c 3xaa
 198 68 253 86 299 86 c 3
 349 86 369 42 369 19 c 0
 369 -49 321 -88 293 -106 c 1x4a
EndSplineSet
Validated: 1
EndChar

StartChar: eta
Encoding: 951 951 357
Width: 535
Flags: W
HStem: -227 21G<434.5 443.5> -6 21G<177 188> 362 71<66.1115 146.056 287.295 386.139>
VStem: 126 80<9.07266 167.851> 403 38<81.9445 343.678>
LayerCount: 2
Fore
SplineSet
376 -182 m 0
 380 -110 403 87 403 266 c 0
 403 324 386 363 345 363 c 0
 278 363 230 278 206 207 c 5
 206 183 206 159 206 136 c 4
 206 123 205 52 206 14 c 1
 201 6 194 -6 182 -6 c 0
 172 -6 126 18 126 31 c 0
 126 49 133 99 152 188 c 4
 153 194 166 247 166 247 c 5
 166 328 144 362 98 362 c 0
 72 362 48 341 41 332 c 1
 38 332 34 337 31 342 c 0
 29 346 28 350 28 353 c 0
 41 397 81 433 121 433 c 0
 169 432 182 365 191 301 c 5
 221 371 271 440 341 440 c 0
 402 440 434 379 441 290 c 0
 450 171 442 -130 464 -209 c 1
 459 -217 448 -227 439 -227 c 0
 430 -227 375 -198 376 -182 c 0
EndSplineSet
Validated: 33
EndChar

StartChar: theta
Encoding: 952 952 358
Width: 468
VWidth: 390
Flags: W
HStem: -5 39<179.265 263.696> 330 48<125.592 351.678> 656 39<212.941 295.703>
VStem: 48 74<177.164 326.988 379.921 498.469> 353 71<185.398 325.659 380.806 509.843>
LayerCount: 2
Fore
SplineSet
235 378 m 1
 285 378 332 379 354 384 c 1
 351 500 336 656 254 656 c 0
 187 656 137 528 125 382 c 1
 137 379 189 378 235 378 c 1
238 695 m 0
 346 695 424 531 424 354 c 0
 424 161 346 -5 238 -5 c 0
 130 -5 48 147 48 340 c 0
 48 533 130 695 238 695 c 0
353 324 m 1
 325 326 284 330 235 330 c 0
 188 330 130 328 122 323 c 1
 122 321 122 320 122 318 c 0
 122 202 139 34 220 34 c 0
 293 34 345 163 353 324 c 1
EndSplineSet
Validated: 1
EndChar

StartChar: iota
Encoding: 953 953 359
Width: 224
Flags: W
HStem: -3 63<120.711 194.375> 413 20G<94 102>
VStem: 74 75<155.595 419.952> 74 67<62.1681 335.549>
LayerCount: 2
Fore
SplineSet
145 -3 m 3xd0
 98 -3 74 39 74 89 c 0xd0
 74 112 74 288 74 416 c 17
 81 426 89 433 99 433 c 0
 105 433 149 412 149 397 c 9xe0
 146 282 143 201 141 101 c 0
 140 73 155 60 177 60 c 0
 189 60 203 61 209 65 c 1
 216 60 216 53 216 48 c 1
 216 40 182 -3 145 -3 c 3xd0
EndSplineSet
Validated: 33
EndChar

StartChar: kappa
Encoding: 954 954 360
Width: 476
Flags: W
HStem: -4 66<345.285 439.18> 362 71<65.1115 138.219> 386 50<361.124 439.762>
VStem: 108 87<15.4237 139.57>
LayerCount: 2
Back
SplineSet
195 207 m 1
 195 183 195 159 195 136 c 0
141 188 m 0
 142 194 155 247 155 247 c 1
180 301 m 1
EndSplineSet
Fore
SplineSet
366 436 m 0xb0
 382 436 454 416 454 399 c 0
 454 396 454 388 453 386 c 1xb0
 341 386 257 298 219 225 c 1
 230 167 349 62 403 62 c 0
 449 62 452 72 463 77 c 1
 465 77 467 71 467 68 c 0
 467 60 465 52 464 49 c 1
 454 32 430 -4 376 -4 c 0
 302 -4 224 137 201 195 c 1
 200 193 196 182 196 180 c 0
 196 172 195 171 195 148 c 0
 195 98 189 44 185 14 c 1
 180 6 173 -6 161 -6 c 0
 151 -6 108 18 108 31 c 0
 108 49 120 104 141 180 c 0
 143 186 155 241 155 241 c 1
 155 322 143 362 97 362 c 0
 71 362 47 341 40 332 c 1
 37 332 33 337 30 342 c 0
 28 346 27 350 27 353 c 0
 40 397 80 433 120 433 c 0xd0
 168 432 171 342 180 278 c 1
 210 348 296 436 366 436 c 0xb0
EndSplineSet
Validated: 1
EndChar

StartChar: lambda
Encoding: 955 955 361
Width: 516
VWidth: 255
Flags: W
HStem: -3 61<410.611 484.131> 618 78<148.116 213.43>
LayerCount: 2
Fore
SplineSet
322 354 m 0
 337 237 359 162 374 129 c 0
 409 54 461 58 474 58 c 0
 485 58 494 64 498 68 c 1
 501 67 506 55 506 52 c 0
 506 50 507 49 506 46 c 1
 501 38 476 -3 433 -3 c 0
 334 -3 310 207 293 302 c 1
 262 239 141 62 118 30 c 0
 100 5 85 -4 68 -4 c 0
 50 -4 15 18 15 32 c 1
 66 52 197 273 273 424 c 1
 273 536 215 618 169 618 c 4
 147 618 130 604 123 595 c 5
 120 595 116 600 113 605 c 4
 111 609 110 613 110 616 c 4
 123 660 163 696 203 696 c 4
 279 696 304 492 322 354 c 0
EndSplineSet
Validated: 545
Substitution2: "Single Substitution lookup 46 subtable" u03BB.d
EndChar

StartChar: mu
Encoding: 956 956 362
Width: 499
Flags: W
HStem: -227 21G<102 113> -9 73<143.372 226.249 386.184 445.783> 417 20G<89 100 331 342>
VStem: 71 77<250.141 422.656> 71 43<108.623 298.513> 313 77<250.141 422.656>
LayerCount: 2
Fore
SplineSet
95 437 m 4xf4
 105 437 148 413 148 400 c 4xf4
 148 382 144 335 125 246 c 4
 124 240 120 223 120 223 c 4
 120 144 135 64 171 64 c 4
 238 64 288 155 313 227 c 5
 313 251 313 275 313 298 c 4
 313 311 314 379 313 417 c 5
 318 425 325 437 337 437 c 4
 347 437 390 413 390 400 c 4
 390 382 381 335 367 246 c 4
 365 236 357 195 357 195 c 5
 357 124 381 66 427 66 c 4
 453 66 471 87 478 96 c 5
 481 96 484 92 487 87 c 4
 489 83 490 79 490 76 c 4
 477 32 437 -4 397 -4 c 4
 349 -3 334 115 332 142 c 5
 302 72 247 -9 177 -9 c 4
 135 -9 119 71 114 101 c 5xec
 116 76 109 -89 131 -207 c 5
 126 -215 119 -227 107 -227 c 4
 97 -227 54 -203 54 -190 c 4
 54 -172 63 100 75 204 c 5
 75 228 71 275 71 298 c 4
 71 311 72 379 71 417 c 5
 76 425 83 437 95 437 c 4xf4
EndSplineSet
Validated: 33
EndChar

StartChar: nu
Encoding: 957 957 363
Width: 440
Flags: W
HStem: -4 21G<219 261.5> 361 71<55.1687 144.7>
VStem: 205 32<104.955 209.422> 399 22<368.437 433.116>
LayerCount: 2
Fore
SplineSet
115 432 m 0
 200 432 237 286 237 188 c 0
 237 154 237 120 237 106 c 1
 237 105 240 104 241 105 c 1
 323 185 399 358 399 422 c 1
 400 427 404 436 407 436 c 1
 412 436 420 406 421 390 c 1
 421 286 302 -4 221 -4 c 0
 217 -4 205 3 205 10 c 1
 205 163 201 361 89 361 c 0
 63 361 39 340 32 331 c 1
 29 331 25 336 22 341 c 0
 20 345 19 349 19 352 c 1
 32 396 66 432 115 432 c 0
EndSplineSet
Validated: 1
EndChar

StartChar: xi
Encoding: 958 958 364
Width: 409
VWidth: 295
Flags: W
HStem: -4 69<81.2004 288.971> 12 74<133.606 319.638> 305 79<284.24 354.357> 560 26<143.487 152> 672 20G<147 157>
VStem: 39 33<77.9516 177.943> 69 65<590.082 657.974> 69 48<339.088 451.95> 321 48<-55.0301 28.0547>
LayerCount: 2
Fore
SplineSet
72 121 m 0xbc80
 72 90 90 65 122 65 c 0xbc80
 186 65 248 86 298 86 c 0
 348 86 369 46 369 15 c 0
 369 -51 316 -91 293 -106 c 1
 289 -106 272 -103 272 -93 c 1
 286 -84 321 -60 321 -19 c 0
 321 2 306 12 284 12 c 0x7c80
 248 12 187 -4 140 -4 c 0
 71 -4 39 57 39 123 c 0xbc80
 39 187 96 262 156 300 c 1
 117 308 69 323 69 395 c 0xb980
 69 482 138 545 152 560 c 1
 152 560 69 562 69 610 c 0
 69 666 142 689 152 692 c 1
 162 692 169 686 169 681 c 1
 152 672 134 641 134 626 c 0xba80
 134 599 153 586 174 586 c 1
 243 640 294 673 334 673 c 0
 359 673 365 632 365 621 c 0
 365 598 299 569 251 557 c 1
 208 533 117 460 117 381 c 0xb980
 117 343 150 326 190 326 c 0
 207 326 320 384 342 384 c 0
 355 384 363 380 363 370 c 24
 363 343 351 313 341 305 c 1
 255 293 72 242 72 121 c 0xbc80
EndSplineSet
Validated: 1
EndChar

StartChar: omicron
Encoding: 959 959 365
Width: 489
Flags: W
HStem: -7 62<164.382 305.141> 375 62<186.64 330.207>
VStem: 52 57<116.95 288.18> 386 57<144.65 313.389>
LayerCount: 2
Fore
SplineSet
109 187 m 0
 109 90 158 55 230 55 c 0
 321 55 386 134 386 243 c 0
 386 335 333 375 264 375 c 0
 172 375 109 296 109 187 c 0
52 221 m 0
 52 352 129 437 240 437 c 0
 367 437 443 323 443 209 c 0
 443 79 366 -7 254 -7 c 0
 126 -7 52 107 52 221 c 0
EndSplineSet
Validated: 1
EndChar

StartChar: pi
Encoding: 960 960 366
Width: 509
VWidth: 255
Flags: W
HStem: -3 63<364.772 435.903> 346 73<266.908 465.034> 362 72<70.3186 170 197.239 305.542>
VStem: 170 29<253.467 362> 307 27<157.25 350>
LayerCount: 2
Fore
SplineSet
170 362 m 1xb8
 71 362 59 341 51 299 c 1
 50 294 40 290 32 290 c 1
 28 299 25 311 25 328 c 3
 25 428 115 434 159 434 c 0xb8
 245 434 320 419 418 419 c 0
 448 419 466 432 488 444 c 1
 497 442 503 440 506 433 c 1
 506 426 476 346 408 346 c 0xd8
 394 346 359 348 334 350 c 5
 335 289 337 177 349 116 c 4
 359 65 399 60 421 60 c 4
 433 60 447 65 453 69 c 5
 457 66 460 57 460 52 c 5
 460 44 426 -3 389 -3 c 7
 342 -3 318 38 313 88 c 4
 304 175 306 290 307 353 c 5
 276 356 238 362 199 362 c 1
 193 292 167 32 145 0 c 1
 138 -2 130 -3 124 -3 c 0
 100 -3 79 29 79 37 c 1
 135 126 153 194 170 362 c 1xb8
EndSplineSet
Validated: 33
EndChar

StartChar: rho
Encoding: 961 961 367
Width: 480
Flags: W
HStem: -228 21G<128 136> -6 62<178.384 306.15> 375 62<196.865 325.125>
VStem: 71 61<-205.939 55 83.795 295.363> 386 57<140.948 310.25>
LayerCount: 2
Fore
SplineSet
71 -192 m 2
 71 -192 69 225 72 252 c 0
 87 376 158 437 236 437 c 0
 357 437 443 332 443 206 c 0
 443 83 366 -6 264 -6 c 0
 195 -6 152 30 132 55 c 1
 132 37 132 18 132 0 c 0
 133 -70 148 -190 156 -211 c 1
 149 -221 141 -228 131 -228 c 0
 125 -228 71 -207 71 -192 c 2
238 56 m 0
 309 56 386 122 386 240 c 0
 386 356 312 375 264 375 c 0
 163 375 129 264 129 164 c 0
 129 150 129 139 130 129 c 0
 134 95 165 56 238 56 c 0
EndSplineSet
Validated: 33
EndChar

StartChar: sigma1
Encoding: 962 962 368
Width: 388
VWidth: 295
Flags: W
HStem: -3 70<70.4857 275.116> 12 73<140.638 305.255> 372 66<158.349 281.642>
VStem: 24 37<80.2773 233.662> 306 48<-60.0073 29.5>
LayerCount: 2
Fore
SplineSet
24 132 m 0xb8
 24 303 101 438 197 438 c 7
 269 438 336 385 346 370 c 5
 348 365 351 360 351 354 c 7
 351 341 347 330 341 330 c 7
 335 330 287 372 229 372 c 7
 134 372 61 263 61 120 c 0
 61 70 108 67 142 67 c 3xb8
 183 67 238 85 284 85 c 3
 334 85 354 41 354 18 c 0
 354 -50 314 -87 286 -105 c 1
 282 -105 264 -100 264 -90 c 1
 282 -80 306 -56 306 -17 c 0
 306 2 289 12 270 12 c 3x78
 236 12 185 -3 135 -3 c 3
 49 -3 24 52 24 132 c 0xb8
EndSplineSet
Validated: 1
EndChar

StartChar: sigma
Encoding: 963 963 369
Width: 547
Flags: W
HStem: -7 62<164.959 302.786> 346 73<344.639 503.034> 375 57<188.694 336.662>
VStem: 52 57<116.73 287.992> 376 57<136.516 301.848>
LayerCount: 2
Fore
SplineSet
368 358 m 1xd8
 388 342 433 290 433 207 c 0
 433 76 365 -8 254 -7 c 0
 126 -7 52 107 52 221 c 0
 52 352 137 433 248 432 c 0xb8
 334 432 358 419 456 419 c 0
 486 419 504 432 526 444 c 1
 535 442 541 440 544 433 c 1
 544 426 514 346 446 346 c 0
 432 346 390 352 368 358 c 1xd8
264 375 m 0
 172 375 109 296 109 187 c 0
 109 89 158 55 230 55 c 0
 322 56 376 132 376 241 c 0
 376 293 352 348 324 366 c 0
 315 372 290 375 264 375 c 0
EndSplineSet
Validated: 33
EndChar

StartChar: tau
Encoding: 964 964 370
Width: 514
VWidth: 255
Flags: W
HStem: -3 63<258.531 332.903> 346 73<251.019 444.034> 362 72<114.307 386.599>
VStem: 70 175<96 378>
LayerCount: 2
Fore
SplineSet
258 360 m 1xd0
 242 361 227 362 215 362 c 0
 116 362 104 341 96 299 c 0
 95 294 85 290 77 290 c 1
 73 299 70 311 70 328 c 0
 70 428 160 434 204 434 c 0xb0
 290 434 299 419 397 419 c 0
 427 419 445 432 467 444 c 1
 476 442 482 440 485 433 c 1
 485 426 455 346 387 346 c 0
 379 346 336 351 292 356 c 1
 275 314 245 190 245 131 c 0
 245 61 296 60 318 60 c 0
 330 60 344 65 350 69 c 1
 354 66 357 57 357 52 c 0
 357 44 323 -3 286 -3 c 0
 239 -3 215 38 210 88 c 0
 201 172 240 299 258 360 c 1xd0
EndSplineSet
Validated: 33
EndChar

StartChar: upsilon
Encoding: 965 965 371
Width: 440
Flags: W
HStem: -6 66<115.418 242.118> 414 20G<66 95.5 280 287>
VStem: 39 42<86.6019 234.341> 73 73<282.959 392.44> 318 64<150.246 334.198>
LayerCount: 2
Fore
SplineSet
73 353 m 0xd8
 73 403 20 399 16 401 c 1
 14 402 18 415 23 422 c 1
 26 425 51 434 81 434 c 3xe8
 110 434 146 415 146 366 c 0xd8
 146 336 129 290 115 263 c 0
 92 219 81 187 81 155 c 0
 81 77 124 60 178 60 c 3
 230 60 318 112 318 266 c 0
 318 343 279 401 260 424 c 1
 260 431 278 434 282 434 c 0
 292 434 311 419 322 404 c 0
 347 370 382 298 382 236 c 0
 382 82 296 -6 189 -6 c 3
 125 -6 39 47 39 163 c 3xe8
 39 201 73 327 73 353 c 0xd8
EndSplineSet
Validated: 1
EndChar

StartChar: phi
Encoding: 966 966 372
Width: 591
Flags: W
HStem: -228 21G<318 326> -12 66<182.868 261> -11 73<324 387.203> 378 54<356.42 457.396> 390 42<229.281 244.516>
VStem: 37 48<118.264 257.956> 261 63<-209.998 -9.40396 62 342.787> 502 51<164.814 316.954>
LayerCount: 2
Fore
SplineSet
324 -11 m 1xb7
 326 -82 338 -191 346 -211 c 1
 339 -221 331 -228 321 -228 c 0
 315 -228 261 -207 261 -192 c 2
 261 -12 l 1
 147 1 37 86 37 206 c 0
 37 316 151 432 205 432 c 0
 233 432 291 415 291 390 c 1
 221 384 85 289 85 181 c 0
 85 86 154 54 253 54 c 0
 256 54 258 54 261 54 c 1xcf
 261 141 l 2
 261 342 296 432 388 432 c 0
 474 432 553 335 553 208 c 4
 553 84 424 4 324 -11 c 1xb7
322 62 m 1xb7
 404 79 502 133 502 251 c 0
 502 323 474 378 415 378 c 0
 319 378 317 264 319 164 c 0
 320 134 321 99 322 62 c 1xb7
EndSplineSet
Validated: 33
EndChar

StartChar: chi
Encoding: 967 967 373
Width: 436
VWidth: 255
Flags: W
HStem: -226 60<325.587 400.75> 367 67<51.3379 122.321>
VStem: 12 63<-212.023 -149.859> 198 204<138 366> 354 48<374.424 418.564>
LayerCount: 2
Fore
SplineSet
108 434 m 0xf0
 172 434 213 302 232 181 c 1
 297 279 330 368 354 428 c 1xe8
 358 432 362 434 364 434 c 0
 369 434 402 397 402 366 c 0
 402 318 318 184 245 87 c 1
 259 -6 280 -73 294 -101 c 0
 329 -171 375 -166 388 -166 c 0
 402 -166 413 -160 417 -156 c 1
 420 -157 423 -167 423 -170 c 0
 423 -172 424 -173 423 -176 c 0
 418 -184 393 -226 350 -226 c 0
 257 -227 232 -41 215 48 c 1
 175 -9 87 -129 75 -225 c 1
 71 -226 68 -227 62 -227 c 0
 38 -227 12 -187 12 -179 c 1
 30 -74 144 72 198 138 c 1
 198 243 131 367 85 367 c 0
 59 367 35 347 28 339 c 1
 25 339 21 343 18 348 c 0
 16 352 15 356 15 359 c 0
 28 400 68 434 108 434 c 0xf0
EndSplineSet
Validated: 33
EndChar

StartChar: psi
Encoding: 968 968 374
Width: 515
Flags: W
HStem: -228 21G<231 243> -7 63<278 325.627> -7 53<136.078 218.67> 412 20G<18.5 30.5 378 385>
VStem: 15 64<97.8102 224.257> 54 63<254.35 383.597> 203 78<264.184 523.326> 207 85<-218.444 -9.82343> 222 54<-203.989 -4.99901 56 375.057> 436 65<179.096 319.64>
LayerCount: 2
Fore
SplineSet
117 314 m 0xb440
 117 249 79 176 79 120 c 0
 79 54 161 46 199 46 c 0
 206 46 214 46 221 47 c 1
 222 80 222 125 222 154 c 0xb8c0
 222 308 210 488 203 509 c 1
 218 522 240 532 256 532 c 0
 261 532 281 530 281 518 c 2xb240
 281 518 276 316 276 162 c 0
 276 131 276 90 276 56 c 1
 360 80 436 162 436 281 c 0
 436 358 390 401 371 424 c 1
 371 431 376 432 380 432 c 0
 390 432 420 416 432 402 c 0
 460 368 501 288 501 226 c 0
 501 84 381 4 278 -7 c 1xd0c0
 279 -24 279 -45 279 -57 c 0
 281 -127 284 -184 292 -205 c 1
 275 -218 252 -228 234 -228 c 0
 228 -228 207 -226 207 -214 c 0
 210 -142 216 -67 219 -7 c 1
 119 1 15 76 15 174 c 0xb940
 15 229 54 295 54 356 c 0
 54 382 30 403 19 410 c 1
 16 413 13 421 13 428 c 0
 13 431 16 432 21 432 c 0
 40 432 117 398 117 314 c 0xb440
EndSplineSet
Validated: 1
EndChar

StartChar: omega
Encoding: 969 969 375
Width: 558
Flags: W
HStem: -6 59<98.268 199.771> -5 66<340.33 441.921> 425 9<365.039 371.423>
VStem: 25 41<88.5936 248.664> 246 55<105.141 280.784> 482 55<107.238 293.263>
LayerCount: 2
Fore
SplineSet
385 61 m 0x7c
 453 61 482 122 482 226 c 0
 482 328 396 406 365 425 c 1
 365 431 366 434 370 434 c 24
 388 433 405 428 414 422 c 1
 455 392 537 312 537 180 c 0
 537 66 471 -5 400 -5 c 0x7c
 337 -5 298 60 288 96 c 1
 264 34 222 -6 164 -6 c 0
 76 -6 25 95 25 188 c 0
 25 293 98 413 128 435 c 1
 137 435 150 428 158 422 c 0
 168 414 180 399 180 386 c 0
 180 382 172 377 165 371 c 0
 121 334 66 236 66 156 c 0
 66 101 89 53 142 53 c 0xbc
 218 53 246 133 246 204 c 0
 246 240 244 262 242 273 c 1
 246 282 251 288 260 288 c 0
 274 288 306 263 308 254 c 1
 308 234 301 170 301 141 c 0
 301 117 330 61 385 61 c 0x7c
EndSplineSet
Validated: 1
EndChar

StartChar: phi1
Encoding: 981 981 378
Width: 571
Flags: W
HStem: -228 21G<267 279> -8 62<314 369.273> 384 66<198.262 252> 396 53<313 408.87> 673 20G<284 294.5>
VStem: 30 54<124.849 275.194> 239 77<455.419 684.326> 243 85<-218.444 -13.9063> 253 60<-203.989 -9.39095 54 384 446.762 669.334> 491 55<171.569 323.218>
LayerCount: 2
Fore
SplineSet
315 -57 m 4xdcc0
 317 -127 320 -184 328 -205 c 5
 311 -218 288 -228 270 -228 c 4
 264 -228 243 -226 243 -214 c 4xdd40
 246 -135 249 -73 252 -11 c 1
 133 -4 30 99 30 219 c 0
 30 345 131 430 253 450 c 1xecc0
 249 566 243 657 239 670 c 5
 254 683 276 693 292 693 c 4
 297 693 316 691 316 679 c 6xee40
 316 679 314 574 313 449 c 1
 467 436 546 350 546 218 c 0
 546 90 387 0 314 -8 c 1
 314 -24 315 -39 315 -57 c 4xdcc0
252 384 m 1xecc0
 124 348 84 260 84 187 c 0
 84 95 184 46 253 46 c 1
 255 105 258 147 258 222 c 4
 258 277 254 324 252 384 c 1xecc0
313 396 m 1xdcc0
 312 336 312 282 312 230 c 4
 312 150 313 120 313 54 c 1
 399 72 491 158 491 250 c 0
 491 340 418 396 313 396 c 1xdcc0
EndSplineSet
Validated: 1
EndChar

StartChar: uni2010
Encoding: 8208 8208 411
Width: 315
Flags: W
HStem: 199 62<34.6239 189.957> 210 63<143.043 291.493>
VStem: 33 261
LayerCount: 2
Fore
SplineSet
33 210 m 0x60
 33 258 42 261 45 261 c 2
 46 261 l 1xa0
 287 273 l 1
 288 273 l 2
 290 273 294 272 294 264 c 0
 294 215 281 210 281 210 c 1x60
 40 199 l 1xa0
 40 199 33 198 33 210 c 0x60
EndSplineSet
Validated: 1
EndChar

StartChar: uni2011
Encoding: 8209 8209 412
Width: 315
Flags: W
HStem: 199 62<34.6239 189.957> 210 63<143.043 291.493>
VStem: 33 261
LayerCount: 2
Fore
SplineSet
33 210 m 0x60
 33 258 42 261 45 261 c 2
 46 261 l 1xa0
 287 273 l 1
 288 273 l 2
 290 273 294 272 294 264 c 0
 294 215 281 210 281 210 c 1x60
 40 199 l 1xa0
 40 199 33 198 33 210 c 0x60
EndSplineSet
Validated: 1
EndChar

StartChar: figuredash
Encoding: 8210 8210 413
Width: 476
Flags: W
HStem: 200 62<32.5596 433.904>
LayerCount: 2
Fore
SplineSet
29 209 m 0
 29 211 32 262 43 262 c 2
 437 262 l 2
 439 262 442 261 442 255 c 0
 442 250 439 225 434 207 c 0
 432 201 427 200 427 200 c 1
 35 200 l 1
 35 200 29 199 29 209 c 0
EndSplineSet
Validated: 1
EndChar

